<?xml version="1.0" encoding="UTF-8" standalone="no"?>
<!DOCTYPE svg PUBLIC "-//W3C//DTD SVG 1.1//EN" "http://www.w3.org/Graphics/SVG/1.1/DTD/svg11.dtd">
<svg xmlns="http://www.w3.org/2000/svg" version="1.1" viewBox="0.00 0.00 1024.00 1024.00">
<g stroke-width="2.00" fill="none" stroke-linecap="butt">
<path stroke="#a95526" vector-effect="non-scaling-stroke" d="
  M 571.17 248.87
  Q 571.79 251.51 575.13 252.26
  C 590.36 255.71 597.18 256.74 607.60 260.93
  Q 613.81 263.42 636.34 273.07
  C 648.02 278.07 658.83 284.34 667.32 289.62
  C 672.58 292.88 681.54 300.74 689.67 304.87
  Q 691.42 305.75 692.63 308.05
  Q 694.50 311.58 695.22 315.63"
/>
<path stroke="#c46e36" vector-effect="non-scaling-stroke" d="
  M 695.22 315.63
  Q 690.85 312.35 686.60 309.02
  Q 681.67 305.16 677.77 302.77
  C 671.16 298.72 666.06 294.88 659.84 291.44
  Q 658.06 290.46 652.32 286.99
  A 5.62 5.31 68.5 0 0 651.34 286.53
  Q 644.54 284.20 638.21 280.50"
/>
<path stroke="#cb783c" vector-effect="non-scaling-stroke" d="
  M 638.21 280.50
  Q 626.72 274.75 619.23 272.02
  Q 612.08 269.42 593.95 264.01
  Q 590.97 263.13 587.68 262.64"
/>
<path stroke="#d07f41" vector-effect="non-scaling-stroke" d="
  M 587.68 262.64
  C 577.89 259.85 570.75 258.71 559.33 256.96
  Q 552.07 255.85 545.10 255.47
  C 530.05 254.63 515.55 254.06 500.64 255.88"
/>
<path stroke="#d48747" vector-effect="non-scaling-stroke" d="
  M 500.64 255.88
  Q 487.29 256.45 477.99 258.16
  Q 472.05 259.26 450.01 264.53
  Q 440.16 266.88 419.36 274.91
  Q 401.25 281.89 374.43 297.91
  Q 371.60 299.59 363.19 305.83
  C 361.59 307.02 359.31 308.19 358.08 309.07
  Q 355.12 311.20 341.71 321.61
  C 337.29 325.05 333.35 329.44 328.95 333.30
  Q 324.80 336.94 319.58 342.26
  Q 307.97 354.08 297.45 367.73
  Q 288.28 379.63 280.15 394.40
  C 269.92 412.99 262.38 432.68 258.40 453.47"
/>
<path stroke="#d07f41" vector-effect="non-scaling-stroke" d="
  M 258.40 453.47
  L 257.60 458.26"
/>
<path stroke="#a95526" vector-effect="non-scaling-stroke" d="
  M 257.60 458.26
  L 258.37 445.22
  A 5.64 4.79 46.7 0 0 258.32 444.25
  C 257.89 441.34 256.62 438.71 256.89 435.23
  C 257.52 426.88 259.07 418.94 263.34 411.71
  Q 266.73 405.97 268.43 399.38
  C 269.55 395.08 271.79 390.14 273.95 387.20
  C 277.99 381.69 280.93 378.04 284.31 372.32
  C 290.35 362.09 296.53 356.09 303.99 347.30
  C 312.76 336.96 322.09 328.11 332.75 318.49
  Q 338.65 313.16 344.16 308.99
  Q 355.23 300.61 356.09 300.11
  C 359.29 298.24 362.07 296.50 365.25 294.21
  Q 376.98 285.77 380.42 284.12
  C 387.42 280.75 394.92 278.29 398.72 272.79"
/>
<path stroke="#da8b47" vector-effect="non-scaling-stroke" d="
  M 268.53 472.32
  L 268.77 478.89"
/>
<path stroke="#d58443" vector-effect="non-scaling-stroke" d="
  M 268.77 478.89
  C 267.11 482.53 266.25 486.72 268.21 490.53"
/>
<path stroke="#da8b47" vector-effect="non-scaling-stroke" d="
  M 268.21 490.53
  Q 268.38 510.92 275.72 530.07"
/>
<path stroke="#e2954d" vector-effect="non-scaling-stroke" d="
  M 275.72 530.07
  Q 273.14 530.37 271.51 527.91
  Q 266.56 520.43 260.70 513.68"
/>
<path stroke="#d68442" vector-effect="non-scaling-stroke" d="
  M 638.21 280.50
  C 640.27 282.26 642.58 284.38 644.79 285.68
  Q 656.29 292.47 664.36 300.07
  Q 673.83 308.96 680.67 316.20
  Q 686.51 322.37 690.13 328.12
  C 693.71 333.80 699.76 343.28 702.96 351.37
  Q 706.23 359.66 707.02 363.28
  Q 709.89 376.36 711.00 381.16
  C 711.42 382.98 711.57 384.90 711.59 386.80
  Q 711.65 393.84 710.42 404.93
  Q 709.41 414.02 705.46 425.99
  Q 702.46 435.06 697.13 440.60"
/>
<path stroke="#e69d54" vector-effect="non-scaling-stroke" d="
  M 697.13 440.60
  C 696.83 436.38 697.14 433.74 694.87 429.50
  A 1.74 1.74 0.0 0 0 694.15 428.78
  Q 690.77 427.00 688.33 430.41
  C 685.75 434.02 682.31 440.47 685.01 444.62
  C 687.19 447.98 691.18 447.62 694.00 445.22"
/>
<path stroke="#d68442" vector-effect="non-scaling-stroke" d="
  M 694.00 445.22
  Q 689.31 454.75 681.25 461.60"
/>
<path stroke="#d17d3e" vector-effect="non-scaling-stroke" d="
  M 681.25 461.60
  C 674.51 468.95 666.59 474.02 657.33 479.57
  Q 649.55 484.24 642.71 486.69"
/>
<path stroke="#d68442" vector-effect="non-scaling-stroke" d="
  M 642.71 486.69
  C 637.39 482.17 634.44 477.41 637.62 470.40
  C 638.99 467.37 641.19 463.54 640.75 461.47
  A 2.00 1.54 -18.9 0 0 638.14 460.59
  Q 635.08 461.90 633.83 462.31
  C 627.40 464.44 623.60 457.30 620.72 452.98
  C 616.36 446.44 611.73 449.60 606.57 453.55
  C 602.88 456.37 594.94 462.67 600.54 467.17
  Q 609.06 474.00 612.25 481.38
  A 0.82 0.79 44.1 0 1 612.27 482.00
  L 610.19 487.40
  A 0.54 0.52 -10.1 0 1 610.03 487.62
  Q 608.76 488.67 607.74 487.72
  A 1.03 1.00 23.8 0 1 607.43 486.95
  L 607.93 474.86
  A 0.47 0.47 0.0 0 0 607.48 474.37
  L 607.20 474.36
  A 0.54 0.53 -83.9 0 0 606.65 474.81
  C 605.96 479.11 605.14 484.30 602.46 489.18
  Q 601.01 491.83 599.85 495.53
  A 0.38 0.37 21.5 0 0 600.05 495.98
  L 600.33 496.11
  A 0.73 0.73 0.0 0 0 601.30 495.76
  L 604.18 489.61
  A 1.38 1.37 30.0 0 1 606.21 489.07
  Q 610.59 492.12 613.79 496.14"
/>
<path stroke="#d17d3e" vector-effect="non-scaling-stroke" d="
  M 613.79 496.14
  Q 595.40 500.60 576.75 501.76"
/>
<path stroke="#d68442" vector-effect="non-scaling-stroke" d="
  M 576.75 501.76
  C 571.24 494.54 568.58 487.71 571.26 478.62
  Q 572.55 474.24 575.55 466.35
  C 577.40 461.51 574.37 459.44 569.86 460.85
  C 558.12 464.52 549.15 474.30 540.30 480.83
  C 528.32 489.67 510.08 493.59 494.70 494.77
  Q 494.30 494.80 460.49 498.07
  Q 455.70 498.53 440.70 499.05"
/>
<path stroke="#d17d3e" vector-effect="non-scaling-stroke" d="
  M 440.70 499.05
  C 425.81 500.00 410.91 499.99 396.09 501.91"
/>
<path stroke="#d68442" vector-effect="non-scaling-stroke" d="
  M 396.09 501.91
  Q 390.57 500.91 371.79 498.01
  C 357.63 495.82 349.88 487.15 340.35 477.03
  A 1.78 1.69 -9.5 0 0 339.67 476.57
  L 322.49 470.12"
/>
<path stroke="#e69d54" vector-effect="non-scaling-stroke" d="
  M 322.49 470.12
  Q 323.41 467.11 321.96 464.30
  C 319.92 460.36 315.57 463.21 313.72 465.48
  Q 310.79 469.06 308.80 473.36"
/>
<path stroke="#d68442" vector-effect="non-scaling-stroke" d="
  M 308.80 473.36
  Q 288.78 470.37 268.53 472.32"
/>
<path stroke="#e2954d" vector-effect="non-scaling-stroke" d="
  M 268.53 472.32
  Q 269.22 462.17 271.78 452.22"
/>
<path stroke="#e1a367" vector-effect="non-scaling-stroke" d="
  M 435.51 442.99
  C 432.24 446.14 425.03 456.64 432.84 459.13
  C 437.22 460.53 441.75 454.32 443.11 450.85
  Q 444.51 447.27 442.90 442.76"
/>
<path stroke="#853c16" vector-effect="non-scaling-stroke" d="
  M 796.48 531.43
  C 791.67 537.53 786.48 542.53 780.02 548.76"
/>
<path stroke="#af5a28" vector-effect="non-scaling-stroke" d="
  M 780.02 548.76
  Q 786.76 528.25 787.87 506.43"
/>
<path stroke="#b4612c" vector-effect="non-scaling-stroke" d="
  M 787.87 506.43
  Q 788.32 498.22 787.44 490.00
  C 787.05 486.39 787.29 483.24 786.75 479.97
  Q 786.22 476.80 785.97 472.48
  Q 785.39 462.82 783.80 456.69
  C 780.46 443.88 776.93 428.90 771.52 415.74
  C 769.76 411.47 767.49 408.17 765.46 403.53
  Q 764.76 401.93 760.55 393.83
  Q 757.84 388.63 754.90 384.56
  Q 750.88 379.01 748.54 374.86
  Q 745.43 369.38 742.00 365.22
  C 737.95 360.29 734.09 353.29 728.35 347.93
  Q 726.72 346.40 723.58 342.93
  Q 710.28 328.24 695.22 315.63"
/>
<path stroke="#e2954d" vector-effect="non-scaling-stroke" d="
  M 587.68 262.64
  C 596.13 277.59 603.23 294.72 600.01 312.20
  C 598.02 322.97 592.42 332.82 585.80 343.21
  C 579.60 352.96 572.85 362.10 563.30 368.48
  C 550.18 377.25 543.11 381.83 533.86 391.51
  C 521.77 404.17 510.70 415.66 497.27 426.37
  Q 484.73 436.37 468.91 438.75
  Q 455.96 440.69 442.90 442.76"
/>
<path stroke="#e5aa6c" vector-effect="non-scaling-stroke" d="
  M 442.90 442.76
  Q 440.50 438.15 435.51 442.99"
/>
<path stroke="#e2954d" vector-effect="non-scaling-stroke" d="
  M 435.51 442.99
  C 410.04 439.26 390.02 440.10 358.55 440.61
  A 3.21 3.19 31.7 0 0 357.22 440.92
  Q 342.40 447.84 325.60 447.77
  A 2.63 2.57 53.8 0 1 324.76 447.63
  Q 301.50 439.62 277.81 433.44"
/>
<path stroke="#eaa459" vector-effect="non-scaling-stroke" d="
  M 277.81 433.44
  C 285.42 412.67 297.03 392.76 310.25 375.50
  A 0.60 0.60 0.0 0 1 311.32 375.79
  Q 311.41 376.52 310.93 377.74
  Q 308.17 384.82 307.09 387.82
  Q 300.62 405.65 303.60 424.38
  Q 304.41 429.45 308.00 434.50
  A 0.54 0.54 0.0 0 0 308.76 434.62
  C 313.41 431.09 316.38 430.30 321.91 431.00
  C 333.90 432.51 345.54 425.10 354.69 420.96
  C 365.67 415.98 375.52 417.83 389.29 419.40
  Q 392.33 419.74 399.67 419.78"
/>
<path stroke="#e5aa6c" vector-effect="non-scaling-stroke" d="
  M 399.67 419.78
  Q 399.74 424.81 404.23 425.21
  A 2.79 2.73 39.0 0 0 405.19 425.12
  Q 409.61 423.86 412.11 419.48"
/>
<path stroke="#eaa459" vector-effect="non-scaling-stroke" d="
  M 412.11 419.48
  C 423.34 420.15 436.18 420.37 447.78 418.19
  C 460.93 415.72 471.94 409.44 481.67 400.53
  C 490.05 392.85 499.37 383.18 508.80 375.55
  Q 523.55 363.62 524.63 362.72
  C 530.09 358.18 534.96 353.18 537.84 347.20
  Q 539.66 343.42 539.80 342.87
  Q 543.50 327.55 543.10 312.50
  C 542.75 298.99 537.03 288.03 527.92 278.64
  Q 516.13 266.48 500.64 255.88"
/>
<path stroke="#c97338" vector-effect="non-scaling-stroke" d="
  M 787.87 506.43
  Q 785.95 502.55 782.59 501.69
  Q 777.76 500.44 772.96 498.89
  A 0.43 0.42 -75.7 0 0 772.41 499.22
  L 769.18 517.41"
/>
<path stroke="#c46e36" vector-effect="non-scaling-stroke" d="
  M 769.18 517.41
  C 764.14 513.72 764.45 507.13 763.88 502.22
  C 762.63 491.42 758.08 484.36 752.25 475.50
  Q 749.51 471.34 743.59 470.20
  A 1.04 1.02 -57.2 0 0 742.80 470.38
  L 732.26 478.01"
/>
<path stroke="#c97338" vector-effect="non-scaling-stroke" d="
  M 732.26 478.01
  Q 723.25 478.25 718.19 481.01
  Q 711.50 484.65 707.04 486.83
  Q 701.54 489.52 697.87 486.29
  C 693.59 482.53 695.54 474.77 690.25 471.62
  Q 684.38 468.14 681.25 461.60"
/>
<path stroke="#de934e" vector-effect="non-scaling-stroke" d="
  M 694.00 445.22
  L 697.13 440.60"
/>
<path stroke="#e9b273" vector-effect="non-scaling-stroke" d="
  M 412.11 419.48
  C 414.32 416.55 416.85 411.04 413.75 408.02
  C 411.39 405.73 408.27 406.68 406.03 408.77
  Q 400.91 413.55 399.67 419.78"
/>
<path stroke="#e69d54" vector-effect="non-scaling-stroke" d="
  M 277.81 433.44
  L 271.78 452.22"
/>
<path stroke="#eaa459" vector-effect="non-scaling-stroke" d="
  M 271.78 452.22
  L 258.40 453.47"
/>
<path stroke="#c07237" vector-effect="non-scaling-stroke" d="
  M 257.60 458.26
  Q 253.89 483.92 259.34 509.19
  Q 259.60 510.40 260.70 513.68"
/>
<path stroke="#bb6b32" vector-effect="non-scaling-stroke" d="
  M 260.70 513.68
  L 264.79 526.68
  A 3.87 3.68 -71.8 0 0 265.24 527.63
  Q 269.30 533.75 272.08 540.46"
/>
<path stroke="#853c16" vector-effect="non-scaling-stroke" d="
  M 272.08 540.46
  C 267.66 537.65 261.77 534.92 258.72 530.61
  C 257.12 528.35 256.40 524.31 254.55 521.72
  Q 252.81 519.30 250.80 521.27"
/>
<path stroke="#b4612c" vector-effect="non-scaling-stroke" d="
  M 327.36 520.57
  Q 326.51 521.44 326.33 521.90"
/>
<path stroke="#c46e36" vector-effect="non-scaling-stroke" d="
  M 321.91 523.84
  Q 313.89 528.53 305.86 533.31
  Q 297.97 538.02 289.00 537.87
  C 285.53 537.81 281.70 536.17 278.05 535.42"
/>
<path stroke="#d68442" vector-effect="non-scaling-stroke" d="
  M 278.05 535.42
  L 275.72 530.07"
/>
<path stroke="#c97338" vector-effect="non-scaling-stroke" d="
  M 268.21 490.53
  Q 270.59 492.29 273.54 492.83
  A 1.54 1.50 -55.1 0 0 274.63 492.62
  C 280.41 489.04 283.61 480.85 279.36 474.63
  A 2.26 2.26 0.0 0 0 276.87 473.73
  Q 272.25 475.04 268.77 478.89"
/>
<path stroke="#cb783c" vector-effect="non-scaling-stroke" d="
  M 278.05 535.42
  C 281.44 541.25 284.58 547.44 288.56 552.56
  Q 293.57 559.00 299.02 564.35
  Q 305.74 570.95 313.98 577.34
  A 0.41 0.41 0.0 0 1 313.76 578.07
  L 312.90 578.14"
/>
<path stroke="#a75f2c" vector-effect="non-scaling-stroke" d="
  M 312.90 578.14
  Q 298.21 569.39 288.00 559.49
  Q 283.27 554.91 274.63 544.61
  Q 273.69 543.49 272.08 540.46"
/>
<path stroke="#bf6732" vector-effect="non-scaling-stroke" d="
  M 732.26 478.01
  C 726.84 483.20 723.76 486.72 715.29 495.55
  C 707.50 503.65 697.83 510.67 686.74 514.56
  Q 671.55 519.89 656.50 522.97
  Q 654.02 523.47 638.30 525.53
  Q 637.59 525.63 635.33 526.23
  A 0.61 0.59 -13.7 0 0 634.89 526.93
  Q 636.42 534.22 631.64 539.67
  A 0.85 0.85 0.0 0 0 631.95 541.02
  Q 642.74 545.51 657.79 552.00
  Q 661.24 553.49 663.23 554.87
  Q 664.63 555.84 666.22 556.04
  Q 670.59 556.61 673.31 558.66
  Q 675.84 560.58 683.03 565.72
  C 693.53 573.23 702.11 585.50 692.54 598.01
  Q 690.01 601.32 687.19 599.72"
/>
<path stroke="#9b4e22" vector-effect="non-scaling-stroke" d="
  M 687.19 599.72
  Q 687.82 593.52 682.80 588.68
  Q 669.95 576.25 655.97 569.80
  Q 642.23 563.46 636.79 561.74
  Q 627.84 558.90 620.50 555.56
  C 617.82 554.33 613.62 553.71 610.10 552.49
  Q 602.82 549.96 592.80 547.73
  A 1.84 1.83 -83.7 0 1 591.37 545.94
  Q 591.36 540.43 593.39 534.31
  A 0.29 0.28 -69.5 0 0 593.24 533.96
  L 593.01 533.85
  A 0.67 0.66 27.0 0 0 592.14 534.13
  L 589.02 539.77
  A 0.71 0.68 -10.2 0 1 588.89 539.95
  L 584.81 544.11
  A 0.49 0.43 3.6 0 1 584.72 544.18
  Q 582.78 545.38 580.65 544.88
  C 564.27 541.10 551.61 538.39 536.64 536.29
  Q 521.03 534.10 518.65 533.79
  C 490.89 530.22 461.89 529.48 434.13 529.76
  A 2.53 2.52 -12.5 0 1 431.80 528.28
  Q 429.96 524.23 429.72 519.53"
/>
<path stroke="#bf6732" vector-effect="non-scaling-stroke" d="
  M 429.72 519.53
  L 429.63 519.08
  A 0.52 0.51 -9.4 0 0 429.07 518.68
  Q 414.50 520.22 409.50 521.22
  C 392.60 524.60 381.26 527.97 366.28 524.09
  A 1.11 1.10 88.0 0 1 365.51 523.37
  Q 363.95 518.74 360.60 515.81
  A 0.79 0.79 0.0 0 0 359.30 516.26
  Q 358.47 520.92 360.99 525.00
  A 0.51 0.51 0.0 0 1 360.77 525.72
  Q 352.04 529.73 347.81 530.66
  Q 337.58 532.91 326.97 529.96
  A 1.20 1.14 77.3 0 1 326.37 529.56
  L 321.91 523.84"
/>
<path stroke="#c97338" vector-effect="non-scaling-stroke" d="
  M 321.91 523.84
  L 326.33 521.90"
/>
<path stroke="#af5a28" vector-effect="non-scaling-stroke" d="
  M 326.33 521.90
  Q 328.05 526.15 331.79 528.36
  A 1.28 1.26 50.5 0 0 332.83 528.47
  Q 334.75 527.85 335.00 526.01
  Q 335.18 524.78 333.63 522.35
  Q 330.29 517.05 327.36 520.57"
/>
<path stroke="#c97338" vector-effect="non-scaling-stroke" d="
  M 327.36 520.57
  Q 327.72 517.90 329.12 515.06
  A 0.16 0.16 0.0 0 1 329.42 515.10
  Q 329.43 515.14 329.45 515.23
  A 1.03 1.00 3.2 0 0 330.15 515.99
  Q 334.84 517.39 339.59 515.60
  Q 366.93 505.30 396.09 501.91"
/>
<path stroke="#af5a28" vector-effect="non-scaling-stroke" d="
  M 547.05 503.89
  C 544.67 506.89 541.25 510.29 541.06 514.22
  C 540.74 521.04 548.42 521.47 551.97 517.20
  Q 555.77 512.65 555.24 506.49
  Q 554.75 500.77 549.14 502.51"
/>
<path stroke="#de934e" vector-effect="non-scaling-stroke" d="
  M 322.49 470.12
  Q 321.16 476.21 316.71 479.67
  C 311.60 483.64 306.98 478.71 308.80 473.36"
/>
<path stroke="#c97338" vector-effect="non-scaling-stroke" d="
  M 576.75 501.76
  Q 568.61 502.81 560.49 502.83
  Q 558.87 502.84 555.07 502.08
  Q 551.52 501.36 549.14 502.51"
/>
<path stroke="#b4612c" vector-effect="non-scaling-stroke" d="
  M 549.14 502.51
  L 547.05 503.89"
/>
<path stroke="#c97338" vector-effect="non-scaling-stroke" d="
  M 547.05 503.89
  Q 536.79 503.09 526.67 503.40
  Q 524.68 503.46 523.33 502.81
  A 0.85 0.84 -75.1 0 1 522.85 501.97
  C 523.06 499.22 523.12 494.49 520.63 493.04
  A 1.48 1.46 -35.2 0 0 519.60 492.87
  C 514.74 493.83 511.37 496.99 508.70 501.12
  A 2.50 2.50 0.0 0 1 506.30 502.24
  C 490.77 500.35 477.39 500.08 456.74 499.38
  C 454.14 499.29 446.72 500.03 440.70 499.05"
/>
<path stroke="#c97338" vector-effect="non-scaling-stroke" d="
  M 642.71 486.69
  Q 628.82 493.49 613.79 496.14"
/>
<path stroke="#9b4e22" vector-effect="non-scaling-stroke" d="
  M 780.02 548.76
  Q 775.39 563.75 766.83 576.76
  C 764.35 580.53 760.86 584.13 758.60 586.93
  Q 755.99 590.16 751.67 593.84
  Q 742.71 601.46 740.93 602.66
  Q 734.53 607.02 724.11 612.21
  Q 721.08 613.72 719.10 614.40
  C 714.31 616.04 710.79 617.77 706.26 619.12
  Q 696.59 622.01 686.77 624.30
  Q 683.51 625.06 678.79 625.61
  Q 674.99 626.06 670.74 626.56"
/>
<path stroke="#853c16" vector-effect="non-scaling-stroke" d="
  M 614.39 640.33
  Q 609.94 639.35 605.27 639.97"
/>
<path stroke="#ab744b" vector-effect="non-scaling-stroke" d="
  M 605.27 639.97
  L 604.29 621.29"
/>
<path stroke="#853c16" vector-effect="non-scaling-stroke" d="
  M 604.29 621.29
  L 604.76 612.65
  A 1.78 1.76 83.5 0 1 606.02 611.05
  L 612.19 609.20"
/>
<path stroke="#ab744b" vector-effect="non-scaling-stroke" d="
  M 612.19 609.20
  Q 625.62 608.81 638.16 606.27
  Q 644.32 605.02 649.46 602.71
  C 667.13 594.80 651.31 583.54 643.13 578.47
  Q 635.45 573.71 620.72 567.62
  Q 604.22 560.80 581.54 555.01
  Q 537.53 543.77 496.12 541.27
  Q 481.73 540.40 479.77 540.27
  Q 444.23 537.94 405.75 541.73
  C 392.80 543.01 379.83 545.89 368.14 551.14
  C 350.37 559.12 363.86 569.59 373.48 574.24
  Q 385.69 580.15 399.55 584.17"
/>
<path stroke="#853c16" vector-effect="non-scaling-stroke" d="
  M 399.55 584.17
  Q 399.37 590.65 397.05 596.76
  A 0.81 0.81 0.0 0 1 396.35 597.29
  L 395.45 597.36"
/>
<path stroke="#bf6732" vector-effect="non-scaling-stroke" d="
  M 769.18 517.41
  Q 767.84 523.19 766.42 529.04
  Q 764.68 536.22 762.78 540.41
  Q 760.84 544.70 759.49 548.55
  C 756.98 555.73 752.23 563.83 749.48 569.35
  Q 745.61 577.12 742.08 581.52
  Q 734.99 590.35 729.14 595.88
  Q 727.76 597.19 718.98 604.28
  C 712.05 609.87 705.83 612.26 698.31 616.50
  Q 694.89 618.42 688.29 620.72
  Q 679.81 623.67 670.74 626.56"
/>
<path stroke="#95491f" vector-effect="non-scaling-stroke" d="
  M 670.74 626.56
  Q 653.08 629.69 641.50 629.63
  Q 627.03 629.56 614.76 629.94
  A 1.78 1.78 0.0 0 1 612.92 628.16
  L 612.92 621.66
  A 1.59 1.59 0.0 0 1 614.48 620.07
  Q 633.33 619.73 639.68 618.84
  Q 650.98 617.26 656.22 616.43
  C 664.56 615.10 674.87 612.03 682.67 606.89
  Q 686.58 604.31 687.19 599.72"
/>
<path stroke="#853c16" vector-effect="non-scaling-stroke" d="
  M 394.22 607.67
  Q 399.24 608.64 401.46 613.50"
/>
<path stroke="#b68256" vector-effect="non-scaling-stroke" d="
  M 401.46 613.50
  L 400.16 618.69"
/>
<path stroke="#95491f" vector-effect="non-scaling-stroke" d="
  M 400.16 618.69
  Q 396.46 619.68 390.76 618.19"
/>
<path stroke="#95491f" vector-effect="non-scaling-stroke" d="
  M 429.72 519.53
  Q 429.56 519.45 429.40 519.48
  A 0.21 0.20 88.5 0 0 429.22 519.68
  L 428.83 529.15
  A 0.30 0.28 -2.4 0 1 428.57 529.42
  Q 427.06 529.61 425.61 528.57
  A 0.96 0.89 6.0 0 1 425.33 528.25
  L 422.58 522.86
  A 0.17 0.16 -58.8 0 0 422.27 522.94
  L 422.27 529.27
  A 1.18 1.18 0.0 0 1 421.11 530.45
  Q 404.79 530.75 391.26 532.82
  Q 384.69 533.83 379.00 534.55
  Q 375.54 534.98 364.77 537.21
  Q 350.14 540.25 338.45 546.68
  C 332.64 549.88 327.59 554.04 328.07 561.27
  A 3.31 3.27 -57.9 0 0 328.30 562.31
  Q 330.00 566.65 332.77 569.51
  C 338.25 575.17 345.65 580.14 353.49 583.01
  Q 354.61 583.41 359.27 585.18
  Q 359.28 585.18 367.76 588.85
  C 376.44 592.60 387.05 595.53 395.45 597.36"
/>
<path stroke="#a95526" vector-effect="non-scaling-stroke" d="
  M 395.45 597.36
  Q 396.59 597.74 396.41 598.74
  Q 395.88 601.76 394.22 607.67"
/>
<path stroke="#95491f" vector-effect="non-scaling-stroke" d="
  M 394.22 607.67
  Q 388.05 606.92 382.17 605.01
  Q 374.94 602.67 372.20 602.02
  Q 357.74 598.58 344.41 593.35
  Q 338.36 590.97 336.57 589.98
  Q 329.50 586.06 329.36 586.26
  Q 329.31 586.33 320.46 582.20
  Q 316.60 580.40 312.90 578.14"
/>
<path stroke="#bf8051" vector-effect="non-scaling-stroke" d="
  M 612.19 609.20
  Q 612.09 601.78 611.93 594.43
  C 611.85 591.18 611.13 589.20 608.95 587.11
  Q 603.29 581.70 595.76 578.86
  C 586.25 575.29 578.93 572.60 569.68 570.59
  Q 562.18 568.95 547.36 565.97
  A 0.06 0.05 -69.2 0 0 547.30 566.00
  L 547.04 566.55
  A 0.23 0.23 0.0 0 0 547.20 566.87
  Q 565.08 570.41 582.28 577.21
  C 586.41 578.84 603.97 586.76 603.92 591.49
  Q 603.76 606.41 604.29 621.29"
/>
<path stroke="#bf8051" vector-effect="non-scaling-stroke" d="
  M 605.27 639.97
  L 609.01 681.29"
/>
<path stroke="#cf8c5b" vector-effect="non-scaling-stroke" d="
  M 609.01 681.29
  Q 609.33 687.03 610.05 692.75
  Q 610.61 697.12 609.50 706.25
  Q 608.39 715.43 602.69 722.57"
/>
<path stroke="#f0c691" vector-effect="non-scaling-stroke" d="
  M 602.69 722.57
  L 587.49 713.76
  A 0.60 0.60 0.0 0 1 587.25 712.98
  Q 592.34 702.16 593.10 689.53
  Q 594.03 673.88 593.64 665.64
  C 592.55 642.94 591.92 623.12 589.04 600.90
  A 3.51 3.30 30.2 0 0 588.77 599.99
  Q 587.77 597.83 586.06 596.15
  Q 578.17 588.36 567.28 583.73
  Q 555.01 578.52 550.30 576.99
  Q 510.72 564.16 469.16 563.09
  C 457.75 562.80 447.05 563.73 435.65 565.68
  Q 431.21 566.43 425.06 568.81
  Q 416.18 572.26 408.75 580.16"
/>
<path stroke="#bf8051" vector-effect="non-scaling-stroke" d="
  M 408.75 580.16
  L 409.59 568.76
  A 3.96 3.95 78.3 0 1 411.70 565.54
  Q 418.44 562.00 425.94 560.40
  Q 433.93 558.69 442.71 557.60"
/>
<path stroke="#e1a367" vector-effect="non-scaling-stroke" d="
  M 442.71 557.60
  L 452.85 556.73
  A 0.22 0.21 85.8 0 0 453.04 556.50
  L 453.04 556.49
  A 0.22 0.21 85.8 0 0 452.82 556.29
  L 437.17 557.06"
/>
<path stroke="#bf8051" vector-effect="non-scaling-stroke" d="
  M 437.17 557.06
  Q 426.51 557.89 421.52 558.99
  C 415.72 560.26 406.78 562.99 403.19 568.13
  Q 402.38 569.29 401.50 575.51
  Q 400.87 580.02 399.55 584.17"
/>
<path stroke="#ca8e5c" vector-effect="non-scaling-stroke" d="
  M 408.75 580.16
  Q 406.74 589.44 404.58 600.87
  Q 403.37 607.22 401.46 613.50"
/>
<path stroke="#a95526" vector-effect="non-scaling-stroke" d="
  M 609.01 681.29
  L 610.40 687.60
  A 0.33 0.33 0.0 0 0 610.91 687.80
  Q 616.56 683.92 616.49 676.83
  Q 616.44 671.90 616.62 666.92"
/>
<path stroke="#d49c7b" vector-effect="non-scaling-stroke" d="
  M 619.42 703.95
  Q 618.73 722.40 605.56 734.72"
/>
<path stroke="#cf8c5b" vector-effect="non-scaling-stroke" d="
  M 605.56 734.72
  C 598.80 741.43 589.99 745.87 581.05 748.78
  Q 573.84 751.13 558.50 754.96
  Q 552.95 756.35 533.75 757.72
  Q 522.13 758.56 510.59 758.77
  C 502.61 758.91 493.69 758.29 485.21 757.96"
/>
<path stroke="#d49c7b" vector-effect="non-scaling-stroke" d="
  M 485.21 757.96
  C 464.02 756.23 442.82 753.39 422.66 746.67
  C 417.96 745.10 411.10 742.16 406.52 739.98
  C 397.15 735.53 386.33 728.00 380.54 718.73
  Q 377.76 714.27 375.98 709.81"
/>
<path stroke="#da9b66" vector-effect="non-scaling-stroke" d="
  M 602.69 722.57
  Q 593.47 732.65 578.96 737.71
  Q 561.49 743.80 547.09 745.66
  Q 527.92 748.14 514.50 748.26
  Q 497.21 748.41 472.52 746.16
  Q 454.55 744.53 437.48 740.30
  C 431.98 738.94 425.60 736.76 421.91 735.50
  Q 413.90 732.77 404.35 726.94
  C 388.52 717.29 380.13 704.55 382.98 685.22
  Q 383.82 679.59 384.46 677.00"
/>
<path stroke="#fde3b8" vector-effect="non-scaling-stroke" d="
  M 384.46 677.00
  L 384.72 679.36
  A 1.47 1.45 21.6 0 0 385.08 680.17
  Q 385.89 681.07 386.30 682.26
  Q 389.14 690.48 395.29 696.23
  Q 406.54 706.74 421.48 711.25
  C 438.54 716.41 461.38 716.84 474.97 703.49
  Q 480.68 697.88 481.41 696.91
  Q 488.89 686.93 493.28 674.02
  Q 497.97 660.23 499.69 648.73
  Q 502.82 627.78 504.78 608.50
  Q 505.23 604.12 501.73 602.21
  C 494.01 598.00 485.02 594.70 476.04 593.02
  Q 471.23 592.13 466.56 590.20
  A 3.04 3.00 57.9 0 0 465.54 589.96
  Q 447.68 588.84 431.06 591.82
  C 421.77 593.48 412.73 597.67 408.01 606.49
  Q 404.19 613.64 399.93 620.95"
/>
<path stroke="#da9b66" vector-effect="non-scaling-stroke" d="
  M 399.93 620.95
  Q 400.42 618.84 400.16 618.69"
/>
<path stroke="#bb6b32" vector-effect="non-scaling-stroke" d="
  M 442.71 557.60
  Q 440.41 556.81 437.17 557.06"
/>
<path stroke="#eac7a7" vector-effect="non-scaling-stroke" d="
  M 485.21 757.96
  Q 495.23 759.27 505.18 760.75
  Q 509.21 761.35 511.42 761.37
  C 516.76 761.41 521.73 762.16 527.11 762.16
  Q 551.58 762.16 557.13 761.49
  Q 566.86 760.33 572.31 759.01
  Q 590.91 754.50 613.80 749.58
  Q 617.70 748.74 622.38 746.05
  A 1.33 1.30 -7.1 0 0 622.97 745.31
  Q 623.57 743.31 622.71 742.28
  C 618.59 737.29 612.71 736.36 605.56 734.72"
/>
<path stroke="#dca981" vector-effect="non-scaling-stroke" d="
  M 384.46 677.00
  L 399.93 620.95"
/>
<path stroke="#f5c07e" vector-effect="non-scaling-stroke" d="
  M 482.5124 290.0614
  A 5.38 4.51 -12.0 0 0 476.3123 286.7686
  A 5.38 4.51 -12.0 0 0 471.9876 292.2986
  A 5.38 4.51 -12.0 0 0 478.1877 295.5914
  A 5.38 4.51 -12.0 0 0 482.5124 290.0614"
/>
<path stroke="#f5c07e" vector-effect="non-scaling-stroke" d="
  M 446.35 288.80
  C 442.98 289.74 445.21 295.72 445.40 297.56
  Q 445.74 300.94 446.82 302.19
  C 450.71 306.73 460.33 306.13 461.50 299.45
  Q 461.86 297.39 461.36 296.12
  Q 457.25 285.76 446.35 288.80"
/>
<path stroke="#f5c07e" vector-effect="non-scaling-stroke" d="
  M 359.90 326.38
  C 354.40 333.42 354.42 343.31 366.54 341.75
  C 376.89 340.42 387.61 335.12 398.24 329.85
  C 407.40 325.31 414.48 320.24 421.98 314.22
  C 427.06 310.15 432.18 305.06 434.33 298.85
  C 436.65 292.18 431.51 287.97 425.24 288.70
  Q 416.26 289.76 407.79 293.06
  Q 389.98 300.01 375.62 310.88
  Q 366.82 317.55 359.90 326.38"
/>
<path stroke="#e2954d" vector-effect="non-scaling-stroke" d="
  M 662.07 309.46
  A 0.91 0.91 0.0 0 0 660.90 310.26
  Q 660.50 315.57 664.41 319.82
  C 668.36 324.12 672.90 327.67 678.69 324.36
  A 1.37 1.36 -22.9 0 0 679.32 322.82
  C 678.01 318.12 675.54 314.64 670.52 312.98
  Q 668.46 312.30 664.66 310.29
  A 2.50 2.20 62.7 0 0 664.25 310.13
  L 662.07 309.46"
/>
<path stroke="#e2954d" vector-effect="non-scaling-stroke" d="
  M 645.82 396.61
  A 2.19 2.18 -69.8 0 0 642.61 398.10
  Q 640.41 409.24 649.68 416.28
  A 1.35 1.34 -41.0 0 0 651.15 416.38
  C 660.82 411.00 652.07 400.12 645.82 396.61"
/>
<path stroke="#e2954d" vector-effect="non-scaling-stroke" d="
  M 522.65 445.83
  C 529.90 442.37 535.30 435.35 530.03 427.60
  A 1.57 1.57 0.0 0 0 528.25 426.99
  C 520.87 429.35 513.84 439.02 520.95 445.58
  A 1.54 1.52 -36.4 0 0 522.65 445.83"
/>
<path stroke="#d68442" vector-effect="non-scaling-stroke" d="
  M 662.47 453.46
  C 660.89 452.67 659.88 452.10 658.25 453.59
  C 652.90 458.46 648.69 464.42 653.71 470.95
  A 1.31 1.30 66.3 0 0 654.96 471.44
  L 659.20 470.76
  A 1.18 1.17 15.3 0 0 659.91 470.36
  Q 666.00 463.20 662.96 454.02
  A 0.97 0.92 -87.5 0 0 662.47 453.46"
/>
<path stroke="#e69d54" vector-effect="non-scaling-stroke" d="
  M 363.33 462.79
  C 359.76 460.39 354.21 469.69 352.80 471.99
  Q 350.24 476.15 352.05 479.73
  Q 353.11 481.83 355.10 481.87
  C 359.79 481.97 361.73 479.03 363.99 475.56
  C 365.55 473.16 366.35 464.83 363.33 462.79"
/>
<path stroke="#c46e36" vector-effect="non-scaling-stroke" d="
  M 755.51 427.71
  A 1.08 1.08 0.0 0 0 757.10 427.54
  Q 759.55 424.17 759.90 420.45
  C 760.96 409.30 745.28 410.28 750.28 420.85
  Q 752.08 424.65 755.51 427.71"
/>
<path stroke="#c46e36" vector-effect="non-scaling-stroke" d="
  M 759.4702 436.3953
  A 2.96 1.84 -126.0 0 0 759.7214 439.8715
  A 2.96 1.84 -126.0 0 0 762.9498 441.1847
  A 2.96 1.84 -126.0 0 0 762.6986 437.7085
  A 2.96 1.84 -126.0 0 0 759.4702 436.3953"
/>
<path stroke="#bf6732" vector-effect="non-scaling-stroke" d="
  M 682.77 484.43
  A 1.51 1.51 0.0 0 0 680.78 483.71
  C 674.32 486.70 668.18 497.23 675.65 502.79
  A 2.03 2.03 0.0 0 0 678.06 502.81
  Q 688.07 495.61 682.77 484.43"
/>
<path stroke="#c97338" vector-effect="non-scaling-stroke" d="
  M 422.94 516.36
  L 427.80 514.57
  A 1.20 1.20 0.0 0 0 428.59 513.47
  Q 428.70 507.70 426.62 502.78
  A 1.36 1.35 -3.2 0 0 425.75 502.01
  Q 424.15 501.53 422.84 502.25
  A 1.60 1.59 -5.9 0 0 422.09 503.17
  Q 420.09 509.56 422.22 516.01
  A 0.56 0.55 70.8 0 0 422.94 516.36"
/>
<path stroke="#af5a28" vector-effect="non-scaling-stroke" d="
  M 509.86 502.17
  A 2.05 2.05 0.0 0 0 507.77 503.81
  C 506.77 508.71 510.10 513.42 515.36 510.90
  Q 520.05 508.65 521.40 504.03
  A 1.11 1.10 -80.6 0 0 520.39 502.61
  L 509.86 502.17"
/>
<path stroke="#bf6732" vector-effect="non-scaling-stroke" d="
  M 612.24 531.04
  Q 616.92 536.44 624.85 537.74
  A 0.70 0.70 0.0 0 0 625.65 537.22
  C 625.86 536.37 625.88 535.09 626.12 534.29
  Q 627.34 530.24 630.72 527.12
  A 0.70 0.69 25.5 0 0 630.29 525.92
  C 623.94 525.51 616.88 525.31 612.27 530.08
  A 0.71 0.70 -43.5 0 0 612.24 531.04"
/>
<path stroke="#c97338" vector-effect="non-scaling-stroke" d="
  M 295.96 503.75
  C 290.32 508.11 283.45 520.33 293.84 523.97
  A 1.81 1.80 -57.2 0 0 295.71 523.56
  Q 304.39 515.00 297.72 504.08
  A 1.20 1.20 0.0 0 0 295.96 503.75"
/>
<path stroke="#a95526" vector-effect="non-scaling-stroke" d="
  M 747.11 475.83
  Q 745.07 475.62 743.85 476.61
  C 740.66 479.18 735.20 485.50 736.56 489.87
  C 737.85 494.02 741.77 495.68 745.64 493.24
  Q 751.43 489.59 750.90 481.54
  Q 750.66 477.88 748.05 476.16
  A 2.10 2.09 64.3 0 0 747.11 475.83"
/>
<path stroke="#a95526" vector-effect="non-scaling-stroke" d="
  M 746.43 519.92
  Q 741.44 522.18 738.01 527.83
  Q 735.92 531.28 735.92 533.40
  A 2.83 2.74 36.5 0 0 736.07 534.30
  Q 736.79 536.31 738.74 537.06
  C 745.06 539.48 748.55 534.35 750.18 529.02
  Q 751.81 523.68 748.56 520.32
  A 1.89 1.88 -34.2 0 0 746.43 519.92"
/>
<path stroke="#bf6732" vector-effect="non-scaling-stroke" d="
  M 702.32 536.94
  C 698.03 541.20 696.07 547.24 694.97 553.04
  A 0.76 0.76 0.0 0 0 696.02 553.88
  Q 702.31 551.20 707.54 547.29
  Q 713.20 543.06 711.16 536.66"
/>
<path stroke="#a95526" vector-effect="non-scaling-stroke" d="
  M 711.16 536.66
  Q 718.44 530.10 715.25 521.66
  A 1.50 1.49 73.8 0 0 713.55 520.72
  C 706.69 522.12 700.66 529.91 702.32 536.94"
/>
<path stroke="#af5a28" vector-effect="non-scaling-stroke" d="
  M 711.16 536.66
  Q 708.66 538.35 705.62 538.57
  A 2.30 2.22 -35.2 0 1 704.66 538.42
  Q 703.37 537.90 702.32 536.94"
/>
<path stroke="#bf6732" vector-effect="non-scaling-stroke" d="
  M 691.17 527.99
  C 684.66 532.16 680.00 541.89 679.66 549.14
  A 1.14 1.12 -69.7 0 0 680.09 550.09
  Q 681.34 551.10 683.03 551.53
  A 1.56 1.53 -52.0 0 0 684.16 551.38
  C 692.33 546.79 696.80 537.51 693.14 528.61
  A 1.35 1.34 62.3 0 0 691.17 527.99"
/>
<path stroke="#a95526" vector-effect="non-scaling-stroke" d="
  M 667.26 548.03
  A 1.39 1.38 29.9 0 0 665.36 548.54
  L 662.97 552.66
  A 1.19 1.19 0.0 0 0 663.71 554.41
  L 665.97 554.99
  A 2.13 2.12 22.0 0 0 668.33 553.99
  L 669.87 551.33
  A 1.57 1.56 29.9 0 0 669.29 549.20
  L 667.26 548.03"
/>
<path stroke="#a95526" vector-effect="non-scaling-stroke" d="
  M 700.44 577.47
  L 702.76 572.53
  A 1.19 1.19 0.0 0 0 701.68 570.84
  L 699.84 570.84
  A 1.82 1.82 0.0 0 0 698.02 572.66
  L 698.02 576.93
  A 1.27 1.27 0.0 0 0 700.44 577.47"
/>
<path stroke="#a95526" vector-effect="non-scaling-stroke" d="
  M 711.10 588.58
  C 709.49 591.68 709.99 596.31 714.22 596.60
  C 720.84 597.04 724.37 591.01 725.80 585.37
  Q 726.74 581.64 724.32 579.43
  A 3.41 3.39 -38.0 0 0 720.41 578.96
  Q 714.43 582.20 711.10 588.58"
/>
<path stroke="#bf6732" vector-effect="non-scaling-stroke" d="
  M 773.88 517.54
  A 2.49 2.48 -41.1 0 0 773.64 521.01
  L 776.82 524.78
  A 2.25 2.25 0.0 0 0 780.59 524.25
  Q 783.74 517.28 784.57 511.43
  A 1.53 1.52 34.8 0 0 784.39 510.45
  L 781.32 505.15
  A 0.74 0.73 36.9 0 0 779.97 505.34
  Q 777.87 513.99 773.88 517.54"
/>
<path stroke="#a95526" vector-effect="non-scaling-stroke" d="
  M 321.06 527.20
  L 321.06 530.86
  A 1.46 1.45 -77.6 0 0 321.90 532.18
  L 324.63 533.46
  A 1.22 1.21 2.4 0 0 326.29 531.94
  L 324.45 526.95
  A 0.85 0.84 0.9 0 0 323.95 526.44
  Q 322.34 525.82 321.22 526.84
  A 0.49 0.47 70.3 0 0 321.06 527.20"
/>
<path stroke="#f0c691" vector-effect="non-scaling-stroke" d="
  M 567.37 655.68
  C 564.59 661.51 565.86 671.86 566.53 678.98
  C 566.83 682.10 569.01 686.28 572.80 685.11
  C 576.57 683.95 577.65 679.23 577.68 675.27
  Q 577.79 664.23 572.40 657.26
  Q 570.41 654.68 568.32 654.98
  A 1.27 1.26 8.6 0 0 567.37 655.68"
/>
<path stroke="#f0c691" vector-effect="non-scaling-stroke" d="
  M 542.79 692.68
  Q 546.49 689.78 547.99 685.28
  C 549.53 680.69 550.80 675.08 548.57 670.48
  A 1.84 1.62 69.7 0 0 546.68 669.46
  C 543.01 670.28 538.86 679.12 537.49 682.52
  C 536.09 685.99 534.89 689.55 536.77 692.11
  Q 538.23 694.10 542.02 693.06
  A 2.20 2.10 -69.9 0 0 542.79 692.68"
/>
<path stroke="#fde3b8" vector-effect="non-scaling-stroke" d="
  M 576.28 702.93
  L 578.61 705.26
  A 1.35 1.34 71.7 0 0 579.32 705.62
  Q 582.82 706.20 584.05 702.99
  Q 587.26 694.64 585.90 684.19
  C 585.64 682.14 585.59 680.39 584.17 678.85
  A 1.82 1.60 47.2 0 0 581.75 678.60
  Q 581.12 679.19 580.80 680.05
  C 577.95 687.70 574.48 694.15 575.58 701.54
  A 2.48 2.48 0.0 0 0 576.28 702.93"
/>
<path stroke="#f0c691" vector-effect="non-scaling-stroke" d="
  M 573.74 702.76
  Q 573.16 703.00 572.62 703.58
  Q 563.77 712.98 560.09 724.51
  Q 558.57 729.28 561.30 733.39
  A 1.33 1.32 75.9 0 0 562.28 733.98
  C 566.55 734.37 570.15 730.69 572.39 727.22
  Q 574.42 724.10 574.99 719.45
  Q 576.04 710.98 575.08 703.53
  A 0.97 0.97 0.0 0 0 573.74 702.76"
/>
</g>
<path fill="#b9612f" d="
  M 571.17 248.87
  Q 571.79 251.51 575.13 252.26
  C 590.36 255.71 597.18 256.74 607.60 260.93
  Q 613.81 263.42 636.34 273.07
  C 648.02 278.07 658.83 284.34 667.32 289.62
  C 672.58 292.88 681.54 300.74 689.67 304.87
  Q 691.42 305.75 692.63 308.05
  Q 694.50 311.58 695.22 315.63
  Q 690.85 312.35 686.60 309.02
  Q 681.67 305.16 677.77 302.77
  C 671.16 298.72 666.06 294.88 659.84 291.44
  Q 658.06 290.46 652.32 286.99
  A 5.62 5.31 68.5 0 0 651.34 286.53
  Q 644.54 284.20 638.21 280.50
  Q 626.72 274.75 619.23 272.02
  Q 612.08 269.42 593.95 264.01
  Q 590.97 263.13 587.68 262.64
  C 577.89 259.85 570.75 258.71 559.33 256.96
  Q 552.07 255.85 545.10 255.47
  C 530.05 254.63 515.55 254.06 500.64 255.88
  Q 487.29 256.45 477.99 258.16
  Q 472.05 259.26 450.01 264.53
  Q 440.16 266.88 419.36 274.91
  Q 401.25 281.89 374.43 297.91
  Q 371.60 299.59 363.19 305.83
  C 361.59 307.02 359.31 308.19 358.08 309.07
  Q 355.12 311.20 341.71 321.61
  C 337.29 325.05 333.35 329.44 328.95 333.30
  Q 324.80 336.94 319.58 342.26
  Q 307.97 354.08 297.45 367.73
  Q 288.28 379.63 280.15 394.40
  C 269.92 412.99 262.38 432.68 258.40 453.47
  L 257.60 458.26
  L 258.37 445.22
  A 5.64 4.79 46.7 0 0 258.32 444.25
  C 257.89 441.34 256.62 438.71 256.89 435.23
  C 257.52 426.88 259.07 418.94 263.34 411.71
  Q 266.73 405.97 268.43 399.38
  C 269.55 395.08 271.79 390.14 273.95 387.20
  C 277.99 381.69 280.93 378.04 284.31 372.32
  C 290.35 362.09 296.53 356.09 303.99 347.30
  C 312.76 336.96 322.09 328.11 332.75 318.49
  Q 338.65 313.16 344.16 308.99
  Q 355.23 300.61 356.09 300.11
  C 359.29 298.24 362.07 296.50 365.25 294.21
  Q 376.98 285.77 380.42 284.12
  C 387.42 280.75 394.92 278.29 398.72 272.79
  Q 401.34 271.06 405.36 269.35
  Q 428.29 259.61 451.00 253.68
  Q 510.59 238.13 571.17 248.87
  Z"
/>
<path fill="#99481c" d="
  M 571.17 248.87
  Q 584.86 251.25 598.12 255.13
  Q 644.30 268.66 683.69 295.35
  Q 705.94 310.42 726.32 331.19
  Q 757.25 362.71 776.45 402.67
  C 795.76 442.87 803.51 487.49 796.48 531.43
  C 791.67 537.53 786.48 542.53 780.02 548.76
  Q 786.76 528.25 787.87 506.43
  Q 788.32 498.22 787.44 490.00
  C 787.05 486.39 787.29 483.24 786.75 479.97
  Q 786.22 476.80 785.97 472.48
  Q 785.39 462.82 783.80 456.69
  C 780.46 443.88 776.93 428.90 771.52 415.74
  C 769.76 411.47 767.49 408.17 765.46 403.53
  Q 764.76 401.93 760.55 393.83
  Q 757.84 388.63 754.90 384.56
  Q 750.88 379.01 748.54 374.86
  Q 745.43 369.38 742.00 365.22
  C 737.95 360.29 734.09 353.29 728.35 347.93
  Q 726.72 346.40 723.58 342.93
  Q 710.28 328.24 695.22 315.63
  Q 694.50 311.58 692.63 308.05
  Q 691.42 305.75 689.67 304.87
  C 681.54 300.74 672.58 292.88 667.32 289.62
  C 658.83 284.34 648.02 278.07 636.34 273.07
  Q 613.81 263.42 607.60 260.93
  C 597.18 256.74 590.36 255.71 575.13 252.26
  Q 571.79 251.51 571.17 248.87
  Z"
/>
<path fill="#e69c52" d="
  M 587.68 262.64
  C 596.13 277.59 603.23 294.72 600.01 312.20
  C 598.02 322.97 592.42 332.82 585.80 343.21
  C 579.60 352.96 572.85 362.10 563.30 368.48
  C 550.18 377.25 543.11 381.83 533.86 391.51
  C 521.77 404.17 510.70 415.66 497.27 426.37
  Q 484.73 436.37 468.91 438.75
  Q 455.96 440.69 442.90 442.76
  Q 440.50 438.15 435.51 442.99
  C 410.04 439.26 390.02 440.10 358.55 440.61
  A 3.21 3.19 31.7 0 0 357.22 440.92
  Q 342.40 447.84 325.60 447.77
  A 2.63 2.57 53.8 0 1 324.76 447.63
  Q 301.50 439.62 277.81 433.44
  C 285.42 412.67 297.03 392.76 310.25 375.50
  A 0.60 0.60 0.0 0 1 311.32 375.79
  Q 311.41 376.52 310.93 377.74
  Q 308.17 384.82 307.09 387.82
  Q 300.62 405.65 303.60 424.38
  Q 304.41 429.45 308.00 434.50
  A 0.54 0.54 0.0 0 0 308.76 434.62
  C 313.41 431.09 316.38 430.30 321.91 431.00
  C 333.90 432.51 345.54 425.10 354.69 420.96
  C 365.67 415.98 375.52 417.83 389.29 419.40
  Q 392.33 419.74 399.67 419.78
  Q 399.74 424.81 404.23 425.21
  A 2.79 2.73 39.0 0 0 405.19 425.12
  Q 409.61 423.86 412.11 419.48
  C 423.34 420.15 436.18 420.37 447.78 418.19
  C 460.93 415.72 471.94 409.44 481.67 400.53
  C 490.05 392.85 499.37 383.18 508.80 375.55
  Q 523.55 363.62 524.63 362.72
  C 530.09 358.18 534.96 353.18 537.84 347.20
  Q 539.66 343.42 539.80 342.87
  Q 543.50 327.55 543.10 312.50
  C 542.75 298.99 537.03 288.03 527.92 278.64
  Q 516.13 266.48 500.64 255.88
  C 515.55 254.06 530.05 254.63 545.10 255.47
  Q 552.07 255.85 559.33 256.96
  C 570.75 258.71 577.89 259.85 587.68 262.64
  Z"
/>
<path fill="#eeac5f" d="
  M 500.64 255.88
  Q 516.13 266.48 527.92 278.64
  C 537.03 288.03 542.75 298.99 543.10 312.50
  Q 543.50 327.55 539.80 342.87
  Q 539.66 343.42 537.84 347.20
  C 534.96 353.18 530.09 358.18 524.63 362.72
  Q 523.55 363.62 508.80 375.55
  C 499.37 383.18 490.05 392.85 481.67 400.53
  C 471.94 409.44 460.93 415.72 447.78 418.19
  C 436.18 420.37 423.34 420.15 412.11 419.48
  C 414.32 416.55 416.85 411.04 413.75 408.02
  C 411.39 405.73 408.27 406.68 406.03 408.77
  Q 400.91 413.55 399.67 419.78
  Q 392.33 419.74 389.29 419.40
  C 375.52 417.83 365.67 415.98 354.69 420.96
  C 345.54 425.10 333.90 432.51 321.91 431.00
  C 316.38 430.30 313.41 431.09 308.76 434.62
  A 0.54 0.54 0.0 0 1 308.00 434.50
  Q 304.41 429.45 303.60 424.38
  Q 300.62 405.65 307.09 387.82
  Q 308.17 384.82 310.93 377.74
  Q 311.41 376.52 311.32 375.79
  A 0.60 0.60 0.0 0 0 310.25 375.50
  C 297.03 392.76 285.42 412.67 277.81 433.44
  L 271.78 452.22
  L 258.40 453.47
  C 262.38 432.68 269.92 412.99 280.15 394.40
  Q 288.28 379.63 297.45 367.73
  Q 307.97 354.08 319.58 342.26
  Q 324.80 336.94 328.95 333.30
  C 333.35 329.44 337.29 325.05 341.71 321.61
  Q 355.12 311.20 358.08 309.07
  C 359.31 308.19 361.59 307.02 363.19 305.83
  Q 371.60 299.59 374.43 297.91
  Q 401.25 281.89 419.36 274.91
  Q 440.16 266.88 450.01 264.53
  Q 472.05 259.26 477.99 258.16
  Q 487.29 256.45 500.64 255.88
  Z
  M 482.5124 290.0614
  A 5.38 4.51 -12.0 0 0 476.3123 286.7686
  A 5.38 4.51 -12.0 0 0 471.9876 292.2986
  A 5.38 4.51 -12.0 0 0 478.1877 295.5914
  A 5.38 4.51 -12.0 0 0 482.5124 290.0614
  Z
  M 446.35 288.80
  C 442.98 289.74 445.21 295.72 445.40 297.56
  Q 445.74 300.94 446.82 302.19
  C 450.71 306.73 460.33 306.13 461.50 299.45
  Q 461.86 297.39 461.36 296.12
  Q 457.25 285.76 446.35 288.80
  Z
  M 359.90 326.38
  C 354.40 333.42 354.42 343.31 366.54 341.75
  C 376.89 340.42 387.61 335.12 398.24 329.85
  C 407.40 325.31 414.48 320.24 421.98 314.22
  C 427.06 310.15 432.18 305.06 434.33 298.85
  C 436.65 292.18 431.51 287.97 425.24 288.70
  Q 416.26 289.76 407.79 293.06
  Q 389.98 300.01 375.62 310.88
  Q 366.82 317.55 359.90 326.38
  Z
  M 343.4158 350.7899
  A 12.50 7.68 -52.0 0 0 329.6681 355.9117
  A 12.50 7.68 -52.0 0 0 328.0242 370.4901
  A 12.50 7.68 -52.0 0 0 341.7719 365.3683
  A 12.50 7.68 -52.0 0 0 343.4158 350.7899
  Z"
/>
<path fill="#dd8e48" d="
  M 638.21 280.50
  C 640.27 282.26 642.58 284.38 644.79 285.68
  Q 656.29 292.47 664.36 300.07
  Q 673.83 308.96 680.67 316.20
  Q 686.51 322.37 690.13 328.12
  C 693.71 333.80 699.76 343.28 702.96 351.37
  Q 706.23 359.66 707.02 363.28
  Q 709.89 376.36 711.00 381.16
  C 711.42 382.98 711.57 384.90 711.59 386.80
  Q 711.65 393.84 710.42 404.93
  Q 709.41 414.02 705.46 425.99
  Q 702.46 435.06 697.13 440.60
  C 696.83 436.38 697.14 433.74 694.87 429.50
  A 1.74 1.74 0.0 0 0 694.15 428.78
  Q 690.77 427.00 688.33 430.41
  C 685.75 434.02 682.31 440.47 685.01 444.62
  C 687.19 447.98 691.18 447.62 694.00 445.22
  Q 689.31 454.75 681.25 461.60
  C 674.51 468.95 666.59 474.02 657.33 479.57
  Q 649.55 484.24 642.71 486.69
  C 637.39 482.17 634.44 477.41 637.62 470.40
  C 638.99 467.37 641.19 463.54 640.75 461.47
  A 2.00 1.54 -18.9 0 0 638.14 460.59
  Q 635.08 461.90 633.83 462.31
  C 627.40 464.44 623.60 457.30 620.72 452.98
  C 616.36 446.44 611.73 449.60 606.57 453.55
  C 602.88 456.37 594.94 462.67 600.54 467.17
  Q 609.06 474.00 612.25 481.38
  A 0.82 0.79 44.1 0 1 612.27 482.00
  L 610.19 487.40
  A 0.54 0.52 -10.1 0 1 610.03 487.62
  Q 608.76 488.67 607.74 487.72
  A 1.03 1.00 23.8 0 1 607.43 486.95
  L 607.93 474.86
  A 0.47 0.47 0.0 0 0 607.48 474.37
  L 607.20 474.36
  A 0.54 0.53 -83.9 0 0 606.65 474.81
  C 605.96 479.11 605.14 484.30 602.46 489.18
  Q 601.01 491.83 599.85 495.53
  A 0.38 0.37 21.5 0 0 600.05 495.98
  L 600.33 496.11
  A 0.73 0.73 0.0 0 0 601.30 495.76
  L 604.18 489.61
  A 1.38 1.37 30.0 0 1 606.21 489.07
  Q 610.59 492.12 613.79 496.14
  Q 595.40 500.60 576.75 501.76
  C 571.24 494.54 568.58 487.71 571.26 478.62
  Q 572.55 474.24 575.55 466.35
  C 577.40 461.51 574.37 459.44 569.86 460.85
  C 558.12 464.52 549.15 474.30 540.30 480.83
  C 528.32 489.67 510.08 493.59 494.70 494.77
  Q 494.30 494.80 460.49 498.07
  Q 455.70 498.53 440.70 499.05
  C 425.81 500.00 410.91 499.99 396.09 501.91
  Q 390.57 500.91 371.79 498.01
  C 357.63 495.82 349.88 487.15 340.35 477.03
  A 1.78 1.69 -9.5 0 0 339.67 476.57
  L 322.49 470.12
  Q 323.41 467.11 321.96 464.30
  C 319.92 460.36 315.57 463.21 313.72 465.48
  Q 310.79 469.06 308.80 473.36
  Q 288.78 470.37 268.53 472.32
  Q 269.22 462.17 271.78 452.22
  L 277.81 433.44
  Q 301.50 439.62 324.76 447.63
  A 2.63 2.57 53.8 0 0 325.60 447.77
  Q 342.40 447.84 357.22 440.92
  A 3.21 3.19 31.7 0 1 358.55 440.61
  C 390.02 440.10 410.04 439.26 435.51 442.99
  C 432.24 446.14 425.03 456.64 432.84 459.13
  C 437.22 460.53 441.75 454.32 443.11 450.85
  Q 444.51 447.27 442.90 442.76
  Q 455.96 440.69 468.91 438.75
  Q 484.73 436.37 497.27 426.37
  C 510.70 415.66 521.77 404.17 533.86 391.51
  C 543.11 381.83 550.18 377.25 563.30 368.48
  C 572.85 362.10 579.60 352.96 585.80 343.21
  C 592.42 332.82 598.02 322.97 600.01 312.20
  C 603.23 294.72 596.13 277.59 587.68 262.64
  Q 590.97 263.13 593.95 264.01
  Q 612.08 269.42 619.23 272.02
  Q 626.72 274.75 638.21 280.50
  Z
  M 662.07 309.46
  A 0.91 0.91 0.0 0 0 660.90 310.26
  Q 660.50 315.57 664.41 319.82
  C 668.36 324.12 672.90 327.67 678.69 324.36
  A 1.37 1.36 -22.9 0 0 679.32 322.82
  C 678.01 318.12 675.54 314.64 670.52 312.98
  Q 668.46 312.30 664.66 310.29
  A 2.50 2.20 62.7 0 0 664.25 310.13
  L 662.07 309.46
  Z
  M 645.82 396.61
  A 2.19 2.18 -69.8 0 0 642.61 398.10
  Q 640.41 409.24 649.68 416.28
  A 1.35 1.34 -41.0 0 0 651.15 416.38
  C 660.82 411.00 652.07 400.12 645.82 396.61
  Z
  M 522.65 445.83
  C 529.90 442.37 535.30 435.35 530.03 427.60
  A 1.57 1.57 0.0 0 0 528.25 426.99
  C 520.87 429.35 513.84 439.02 520.95 445.58
  A 1.54 1.52 -36.4 0 0 522.65 445.83
  Z
  M 662.47 453.46
  C 660.89 452.67 659.88 452.10 658.25 453.59
  C 652.90 458.46 648.69 464.42 653.71 470.95
  A 1.31 1.30 66.3 0 0 654.96 471.44
  L 659.20 470.76
  A 1.18 1.17 15.3 0 0 659.91 470.36
  Q 666.00 463.20 662.96 454.02
  A 0.97 0.92 -87.5 0 0 662.47 453.46
  Z
  M 363.33 462.79
  C 359.76 460.39 354.21 469.69 352.80 471.99
  Q 350.24 476.15 352.05 479.73
  Q 353.11 481.83 355.10 481.87
  C 359.79 481.97 361.73 479.03 363.99 475.56
  C 365.55 473.16 366.35 464.83 363.33 462.79
  Z"
/>
<path fill="#99481c" d="
  M 398.72 272.79
  C 394.92 278.29 387.42 280.75 380.42 284.12
  Q 376.98 285.77 365.25 294.21
  C 362.07 296.50 359.29 298.24 356.09 300.11
  Q 355.23 300.61 344.16 308.99
  Q 338.65 313.16 332.75 318.49
  C 322.09 328.11 312.76 336.96 303.99 347.30
  C 296.53 356.09 290.35 362.09 284.31 372.32
  C 280.93 378.04 277.99 381.69 273.95 387.20
  C 271.79 390.14 269.55 395.08 268.43 399.38
  Q 266.73 405.97 263.34 411.71
  C 259.07 418.94 257.52 426.88 256.89 435.23
  C 256.62 438.71 257.89 441.34 258.32 444.25
  A 5.64 4.79 46.7 0 1 258.37 445.22
  L 257.60 458.26
  Q 253.89 483.92 259.34 509.19
  Q 259.60 510.40 260.70 513.68
  L 264.79 526.68
  A 3.87 3.68 -71.8 0 0 265.24 527.63
  Q 269.30 533.75 272.08 540.46
  C 267.66 537.65 261.77 534.92 258.72 530.61
  C 257.12 528.35 256.40 524.31 254.55 521.72
  Q 252.81 519.30 250.80 521.27
  Q 248.71 515.31 247.91 511.37
  Q 240.97 477.19 249.30 442.80
  C 255.95 415.37 268.71 388.67 284.97 366.70
  Q 296.48 351.14 301.52 345.76
  Q 307.39 339.49 314.94 331.95
  Q 351.76 295.18 398.72 272.79
  Z"
/>
<path fill="#ce7a3c" d="
  M 695.22 315.63
  Q 710.28 328.24 723.58 342.93
  Q 726.72 346.40 728.35 347.93
  C 734.09 353.29 737.95 360.29 742.00 365.22
  Q 745.43 369.38 748.54 374.86
  Q 750.88 379.01 754.90 384.56
  Q 757.84 388.63 760.55 393.83
  Q 764.76 401.93 765.46 403.53
  C 767.49 408.17 769.76 411.47 771.52 415.74
  C 776.93 428.90 780.46 443.88 783.80 456.69
  Q 785.39 462.82 785.97 472.48
  Q 786.22 476.80 786.75 479.97
  C 787.29 483.24 787.05 486.39 787.44 490.00
  Q 788.32 498.22 787.87 506.43
  Q 785.95 502.55 782.59 501.69
  Q 777.76 500.44 772.96 498.89
  A 0.43 0.42 -75.7 0 0 772.41 499.22
  L 769.18 517.41
  C 764.14 513.72 764.45 507.13 763.88 502.22
  C 762.63 491.42 758.08 484.36 752.25 475.50
  Q 749.51 471.34 743.59 470.20
  A 1.04 1.02 -57.2 0 0 742.80 470.38
  L 732.26 478.01
  Q 723.25 478.25 718.19 481.01
  Q 711.50 484.65 707.04 486.83
  Q 701.54 489.52 697.87 486.29
  C 693.59 482.53 695.54 474.77 690.25 471.62
  Q 684.38 468.14 681.25 461.60
  Q 689.31 454.75 694.00 445.22
  L 697.13 440.60
  Q 702.46 435.06 705.46 425.99
  Q 709.41 414.02 710.42 404.93
  Q 711.65 393.84 711.59 386.80
  C 711.57 384.90 711.42 382.98 711.00 381.16
  Q 709.89 376.36 707.02 363.28
  Q 706.23 359.66 702.96 351.37
  C 699.76 343.28 693.71 333.80 690.13 328.12
  Q 686.51 322.37 680.67 316.20
  Q 673.83 308.96 664.36 300.07
  Q 656.29 292.47 644.79 285.68
  C 642.58 284.38 640.27 282.26 638.21 280.50
  Q 644.54 284.20 651.34 286.53
  A 5.62 5.31 68.5 0 1 652.32 286.99
  Q 658.06 290.46 659.84 291.44
  C 666.06 294.88 671.16 298.72 677.77 302.77
  Q 681.67 305.16 686.60 309.02
  Q 690.85 312.35 695.22 315.63
  Z
  M 755.51 427.71
  A 1.08 1.08 0.0 0 0 757.10 427.54
  Q 759.55 424.17 759.90 420.45
  C 760.96 409.30 745.28 410.28 750.28 420.85
  Q 752.08 424.65 755.51 427.71
  Z
  M 759.4702 436.3953
  A 2.96 1.84 -126.0 0 0 759.7214 439.8715
  A 2.96 1.84 -126.0 0 0 762.9498 441.1847
  A 2.96 1.84 -126.0 0 0 762.6986 437.7085
  A 2.96 1.84 -126.0 0 0 759.4702 436.3953
  Z"
/>
<ellipse fill="#fbd49c" cx="0.00" cy="0.00" transform="translate(477.25,291.18) rotate(-12.0)" rx="5.38" ry="4.51"/>
<path fill="#fbd49c" d="
  M 445.40 297.56
  C 445.21 295.72 442.98 289.74 446.35 288.80
  Q 457.25 285.76 461.36 296.12
  Q 461.86 297.39 461.50 299.45
  C 460.33 306.13 450.71 306.73 446.82 302.19
  Q 445.74 300.94 445.40 297.56
  Z"
/>
<path fill="#fbd49c" d="
  M 366.54 341.75
  C 354.42 343.31 354.40 333.42 359.90 326.38
  Q 366.82 317.55 375.62 310.88
  Q 389.98 300.01 407.79 293.06
  Q 416.26 289.76 425.24 288.70
  C 431.51 287.97 436.65 292.18 434.33 298.85
  C 432.18 305.06 427.06 310.15 421.98 314.22
  C 414.48 320.24 407.40 325.31 398.24 329.85
  C 387.61 335.12 376.89 340.42 366.54 341.75
  Z"
/>
<path fill="#e69c52" d="
  M 662.07 309.46
  L 664.25 310.13
  A 2.50 2.20 62.7 0 1 664.66 310.29
  Q 668.46 312.30 670.52 312.98
  C 675.54 314.64 678.01 318.12 679.32 322.82
  A 1.37 1.36 -22.9 0 1 678.69 324.36
  C 672.90 327.67 668.36 324.12 664.41 319.82
  Q 660.50 315.57 660.90 310.26
  A 0.91 0.91 0.0 0 1 662.07 309.46
  Z"
/>
<path fill="#e69c52" d="
  M 645.82 396.61
  C 652.07 400.12 660.82 411.00 651.15 416.38
  A 1.35 1.34 -41.0 0 1 649.68 416.28
  Q 640.41 409.24 642.61 398.10
  A 2.19 2.18 -69.8 0 1 645.82 396.61
  Z"
/>
<path fill="#e4b786" d="
  M 412.11 419.48
  Q 409.61 423.86 405.19 425.12
  A 2.79 2.73 39.0 0 1 404.23 425.21
  Q 399.74 424.81 399.67 419.78
  Q 400.91 413.55 406.03 408.77
  C 408.27 406.68 411.39 405.73 413.75 408.02
  C 416.85 411.04 414.32 416.55 412.11 419.48
  Z"
/>
<path fill="#b9612f" d="
  M 755.51 427.71
  Q 752.08 424.65 750.28 420.85
  C 745.28 410.28 760.96 409.30 759.90 420.45
  Q 759.55 424.17 757.10 427.54
  A 1.08 1.08 0.0 0 1 755.51 427.71
  Z"
/>
<path fill="#e69c52" d="
  M 522.65 445.83
  A 1.54 1.52 -36.4 0 1 520.95 445.58
  C 513.84 439.02 520.87 429.35 528.25 426.99
  A 1.57 1.57 0.0 0 1 530.03 427.60
  C 535.30 435.35 529.90 442.37 522.65 445.83
  Z"
/>
<path fill="#eeac5f" d="
  M 697.13 440.60
  L 694.00 445.22
  C 691.18 447.62 687.19 447.98 685.01 444.62
  C 682.31 440.47 685.75 434.02 688.33 430.41
  Q 690.77 427.00 694.15 428.78
  A 1.74 1.74 0.0 0 1 694.87 429.50
  C 697.14 433.74 696.83 436.38 697.13 440.60
  Z"
/>
<ellipse fill="#b9612f" cx="0.00" cy="0.00" transform="translate(761.21,438.79) rotate(-126.0)" rx="2.96" ry="1.84"/>
<path fill="#e4b786" d="
  M 442.90 442.76
  Q 444.51 447.27 443.11 450.85
  C 441.75 454.32 437.22 460.53 432.84 459.13
  C 425.03 456.64 432.24 446.14 435.51 442.99
  Q 440.50 438.15 442.90 442.76
  Z"
/>
<path fill="#ce7a3c" d="
  M 642.71 486.69
  Q 628.82 493.49 613.79 496.14
  Q 610.59 492.12 606.21 489.07
  A 1.38 1.37 30.0 0 0 604.18 489.61
  L 601.30 495.76
  A 0.73 0.73 0.0 0 1 600.33 496.11
  L 600.05 495.98
  A 0.38 0.37 21.5 0 1 599.85 495.53
  Q 601.01 491.83 602.46 489.18
  C 605.14 484.30 605.96 479.11 606.65 474.81
  A 0.54 0.53 -83.9 0 1 607.20 474.36
  L 607.48 474.37
  A 0.47 0.47 0.0 0 1 607.93 474.86
  L 607.43 486.95
  A 1.03 1.00 23.8 0 0 607.74 487.72
  Q 608.76 488.67 610.03 487.62
  A 0.54 0.52 -10.1 0 0 610.19 487.40
  L 612.27 482.00
  A 0.82 0.79 44.1 0 0 612.25 481.38
  Q 609.06 474.00 600.54 467.17
  C 594.94 462.67 602.88 456.37 606.57 453.55
  C 611.73 449.60 616.36 446.44 620.72 452.98
  C 623.60 457.30 627.40 464.44 633.83 462.31
  Q 635.08 461.90 638.14 460.59
  A 2.00 1.54 -18.9 0 1 640.75 461.47
  C 641.19 463.54 638.99 467.37 637.62 470.40
  C 634.44 477.41 637.39 482.17 642.71 486.69
  Z"
/>
<path fill="#e69c52" d="
  M 271.78 452.22
  Q 269.22 462.17 268.53 472.32
  L 268.77 478.89
  C 267.11 482.53 266.25 486.72 268.21 490.53
  Q 268.38 510.92 275.72 530.07
  Q 273.14 530.37 271.51 527.91
  Q 266.56 520.43 260.70 513.68
  Q 259.60 510.40 259.34 509.19
  Q 253.89 483.92 257.60 458.26
  L 258.40 453.47
  L 271.78 452.22
  Z"
/>
<path fill="#ce7a3c" d="
  M 662.96 454.02
  Q 666.00 463.20 659.91 470.36
  A 1.18 1.17 15.3 0 1 659.20 470.76
  L 654.96 471.44
  A 1.31 1.30 66.3 0 1 653.71 470.95
  C 648.69 464.42 652.90 458.46 658.25 453.59
  C 659.88 452.10 660.89 452.67 662.47 453.46
  A 0.97 0.92 -87.5 0 1 662.96 454.02
  Z"
/>
<path fill="#ce7a3c" d="
  M 576.75 501.76
  Q 568.61 502.81 560.49 502.83
  Q 558.87 502.84 555.07 502.08
  Q 551.52 501.36 549.14 502.51
  L 547.05 503.89
  Q 536.79 503.09 526.67 503.40
  Q 524.68 503.46 523.33 502.81
  A 0.85 0.84 -75.1 0 1 522.85 501.97
  C 523.06 499.22 523.12 494.49 520.63 493.04
  A 1.48 1.46 -35.2 0 0 519.60 492.87
  C 514.74 493.83 511.37 496.99 508.70 501.12
  A 2.50 2.50 0.0 0 1 506.30 502.24
  C 490.77 500.35 477.39 500.08 456.74 499.38
  C 454.14 499.29 446.72 500.03 440.70 499.05
  Q 455.70 498.53 460.49 498.07
  Q 494.30 494.80 494.70 494.77
  C 510.08 493.59 528.32 489.67 540.30 480.83
  C 549.15 474.30 558.12 464.52 569.86 460.85
  C 574.37 459.44 577.40 461.51 575.55 466.35
  Q 572.55 474.24 571.26 478.62
  C 568.58 487.71 571.24 494.54 576.75 501.76
  Z"
/>
<path fill="#c46c34" d="
  M 681.25 461.60
  Q 684.38 468.14 690.25 471.62
  C 695.54 474.77 693.59 482.53 697.87 486.29
  Q 701.54 489.52 707.04 486.83
  Q 711.50 484.65 718.19 481.01
  Q 723.25 478.25 732.26 478.01
  C 726.84 483.20 723.76 486.72 715.29 495.55
  C 707.50 503.65 697.83 510.67 686.74 514.56
  Q 671.55 519.89 656.50 522.97
  Q 654.02 523.47 638.30 525.53
  Q 637.59 525.63 635.33 526.23
  A 0.61 0.59 -13.7 0 0 634.89 526.93
  Q 636.42 534.22 631.64 539.67
  A 0.85 0.85 0.0 0 0 631.95 541.02
  Q 642.74 545.51 657.79 552.00
  Q 661.24 553.49 663.23 554.87
  Q 664.63 555.84 666.22 556.04
  Q 670.59 556.61 673.31 558.66
  Q 675.84 560.58 683.03 565.72
  C 693.53 573.23 702.11 585.50 692.54 598.01
  Q 690.01 601.32 687.19 599.72
  Q 687.82 593.52 682.80 588.68
  Q 669.95 576.25 655.97 569.80
  Q 642.23 563.46 636.79 561.74
  Q 627.84 558.90 620.50 555.56
  C 617.82 554.33 613.62 553.71 610.10 552.49
  Q 602.82 549.96 592.80 547.73
  A 1.84 1.83 -83.7 0 1 591.37 545.94
  Q 591.36 540.43 593.39 534.31
  A 0.29 0.28 -69.5 0 0 593.24 533.96
  L 593.01 533.85
  A 0.67 0.66 27.0 0 0 592.14 534.13
  L 589.02 539.77
  A 0.71 0.68 -10.2 0 1 588.89 539.95
  L 584.81 544.11
  A 0.49 0.43 3.6 0 1 584.72 544.18
  Q 582.78 545.38 580.65 544.88
  C 564.27 541.10 551.61 538.39 536.64 536.29
  Q 521.03 534.10 518.65 533.79
  C 490.89 530.22 461.89 529.48 434.13 529.76
  A 2.53 2.52 -12.5 0 1 431.80 528.28
  Q 429.96 524.23 429.72 519.53
  L 429.63 519.08
  A 0.52 0.51 -9.4 0 0 429.07 518.68
  Q 414.50 520.22 409.50 521.22
  C 392.60 524.60 381.26 527.97 366.28 524.09
  A 1.11 1.10 88.0 0 1 365.51 523.37
  Q 363.95 518.74 360.60 515.81
  A 0.79 0.79 0.0 0 0 359.30 516.26
  Q 358.47 520.92 360.99 525.00
  A 0.51 0.51 0.0 0 1 360.77 525.72
  Q 352.04 529.73 347.81 530.66
  Q 337.58 532.91 326.97 529.96
  A 1.20 1.14 77.3 0 1 326.37 529.56
  L 321.91 523.84
  L 326.33 521.90
  Q 328.05 526.15 331.79 528.36
  A 1.28 1.26 50.5 0 0 332.83 528.47
  Q 334.75 527.85 335.00 526.01
  Q 335.18 524.78 333.63 522.35
  Q 330.29 517.05 327.36 520.57
  Q 327.72 517.90 329.12 515.06
  A 0.16 0.16 0.0 0 1 329.42 515.10
  Q 329.43 515.14 329.45 515.23
  A 1.03 1.00 3.2 0 0 330.15 515.99
  Q 334.84 517.39 339.59 515.60
  Q 366.93 505.30 396.09 501.91
  C 410.91 499.99 425.81 500.00 440.70 499.05
  C 446.72 500.03 454.14 499.29 456.74 499.38
  C 477.39 500.08 490.77 500.35 506.30 502.24
  A 2.50 2.50 0.0 0 0 508.70 501.12
  C 511.37 496.99 514.74 493.83 519.60 492.87
  A 1.48 1.46 -35.2 0 1 520.63 493.04
  C 523.12 494.49 523.06 499.22 522.85 501.97
  A 0.85 0.84 -75.1 0 0 523.33 502.81
  Q 524.68 503.46 526.67 503.40
  Q 536.79 503.09 547.05 503.89
  C 544.67 506.89 541.25 510.29 541.06 514.22
  C 540.74 521.04 548.42 521.47 551.97 517.20
  Q 555.77 512.65 555.24 506.49
  Q 554.75 500.77 549.14 502.51
  Q 551.52 501.36 555.07 502.08
  Q 558.87 502.84 560.49 502.83
  Q 568.61 502.81 576.75 501.76
  Q 595.40 500.60 613.79 496.14
  Q 628.82 493.49 642.71 486.69
  Q 649.55 484.24 657.33 479.57
  C 666.59 474.02 674.51 468.95 681.25 461.60
  Z
  M 682.77 484.43
  A 1.51 1.51 0.0 0 0 680.78 483.71
  C 674.32 486.70 668.18 497.23 675.65 502.79
  A 2.03 2.03 0.0 0 0 678.06 502.81
  Q 688.07 495.61 682.77 484.43
  Z
  M 422.94 516.36
  L 427.80 514.57
  A 1.20 1.20 0.0 0 0 428.59 513.47
  Q 428.70 507.70 426.62 502.78
  A 1.36 1.35 -3.2 0 0 425.75 502.01
  Q 424.15 501.53 422.84 502.25
  A 1.60 1.59 -5.9 0 0 422.09 503.17
  Q 420.09 509.56 422.22 516.01
  A 0.56 0.55 70.8 0 0 422.94 516.36
  Z
  M 509.86 502.17
  A 2.05 2.05 0.0 0 0 507.77 503.81
  C 506.77 508.71 510.10 513.42 515.36 510.90
  Q 520.05 508.65 521.40 504.03
  A 1.11 1.10 -80.6 0 0 520.39 502.61
  L 509.86 502.17
  Z
  M 612.24 531.04
  Q 616.92 536.44 624.85 537.74
  A 0.70 0.70 0.0 0 0 625.65 537.22
  C 625.86 536.37 625.88 535.09 626.12 534.29
  Q 627.34 530.24 630.72 527.12
  A 0.70 0.69 25.5 0 0 630.29 525.92
  C 623.94 525.51 616.88 525.31 612.27 530.08
  A 0.71 0.70 -43.5 0 0 612.24 531.04
  Z"
/>
<path fill="#eeac5f" d="
  M 322.49 470.12
  Q 321.16 476.21 316.71 479.67
  C 311.60 483.64 306.98 478.71 308.80 473.36
  Q 310.79 469.06 313.72 465.48
  C 315.57 463.21 319.92 460.36 321.96 464.30
  Q 323.41 467.11 322.49 470.12
  Z"
/>
<path fill="#eeac5f" d="
  M 363.33 462.79
  C 366.35 464.83 365.55 473.16 363.99 475.56
  C 361.73 479.03 359.79 481.97 355.10 481.87
  Q 353.11 481.83 352.05 479.73
  Q 350.24 476.15 352.80 471.99
  C 354.21 469.69 359.76 460.39 363.33 462.79
  Z"
/>
<path fill="#ce7a3c" d="
  M 308.80 473.36
  C 306.98 478.71 311.60 483.64 316.71 479.67
  Q 321.16 476.21 322.49 470.12
  L 339.67 476.57
  A 1.78 1.69 -9.5 0 1 340.35 477.03
  C 349.88 487.15 357.63 495.82 371.79 498.01
  Q 390.57 500.91 396.09 501.91
  Q 366.93 505.30 339.59 515.60
  Q 334.84 517.39 330.15 515.99
  A 1.03 1.00 3.2 0 1 329.45 515.23
  Q 329.43 515.14 329.42 515.10
  A 0.16 0.16 0.0 0 0 329.12 515.06
  Q 327.72 517.90 327.36 520.57
  Q 326.51 521.44 326.33 521.90
  L 321.91 523.84
  Q 313.89 528.53 305.86 533.31
  Q 297.97 538.02 289.00 537.87
  C 285.53 537.81 281.70 536.17 278.05 535.42
  L 275.72 530.07
  Q 268.38 510.92 268.21 490.53
  Q 270.59 492.29 273.54 492.83
  A 1.54 1.50 -55.1 0 0 274.63 492.62
  C 280.41 489.04 283.61 480.85 279.36 474.63
  A 2.26 2.26 0.0 0 0 276.87 473.73
  Q 272.25 475.04 268.77 478.89
  L 268.53 472.32
  Q 288.78 470.37 308.80 473.36
  Z
  M 295.96 503.75
  C 290.32 508.11 283.45 520.33 293.84 523.97
  A 1.81 1.80 -57.2 0 0 295.71 523.56
  Q 304.39 515.00 297.72 504.08
  A 1.20 1.20 0.0 0 0 295.96 503.75
  Z"
/>
<path fill="#b9612f" d="
  M 769.18 517.41
  Q 767.84 523.19 766.42 529.04
  Q 764.68 536.22 762.78 540.41
  Q 760.84 544.70 759.49 548.55
  C 756.98 555.73 752.23 563.83 749.48 569.35
  Q 745.61 577.12 742.08 581.52
  Q 734.99 590.35 729.14 595.88
  Q 727.76 597.19 718.98 604.28
  C 712.05 609.87 705.83 612.26 698.31 616.50
  Q 694.89 618.42 688.29 620.72
  Q 679.81 623.67 670.74 626.56
  Q 653.08 629.69 641.50 629.63
  Q 627.03 629.56 614.76 629.94
  A 1.78 1.78 0.0 0 1 612.92 628.16
  L 612.92 621.66
  A 1.59 1.59 0.0 0 1 614.48 620.07
  Q 633.33 619.73 639.68 618.84
  Q 650.98 617.26 656.22 616.43
  C 664.56 615.10 674.87 612.03 682.67 606.89
  Q 686.58 604.31 687.19 599.72
  Q 690.01 601.32 692.54 598.01
  C 702.11 585.50 693.53 573.23 683.03 565.72
  Q 675.84 560.58 673.31 558.66
  Q 670.59 556.61 666.22 556.04
  Q 664.63 555.84 663.23 554.87
  Q 661.24 553.49 657.79 552.00
  Q 642.74 545.51 631.95 541.02
  A 0.85 0.85 0.0 0 1 631.64 539.67
  Q 636.42 534.22 634.89 526.93
  A 0.61 0.59 -13.7 0 1 635.33 526.23
  Q 637.59 525.63 638.30 525.53
  Q 654.02 523.47 656.50 522.97
  Q 671.55 519.89 686.74 514.56
  C 697.83 510.67 707.50 503.65 715.29 495.55
  C 723.76 486.72 726.84 483.20 732.26 478.01
  L 742.80 470.38
  A 1.04 1.02 -57.2 0 1 743.59 470.20
  Q 749.51 471.34 752.25 475.50
  C 758.08 484.36 762.63 491.42 763.88 502.22
  C 764.45 507.13 764.14 513.72 769.18 517.41
  Z
  M 747.11 475.83
  Q 745.07 475.62 743.85 476.61
  C 740.66 479.18 735.20 485.50 736.56 489.87
  C 737.85 494.02 741.77 495.68 745.64 493.24
  Q 751.43 489.59 750.90 481.54
  Q 750.66 477.88 748.05 476.16
  A 2.10 2.09 64.3 0 0 747.11 475.83
  Z
  M 746.43 519.92
  Q 741.44 522.18 738.01 527.83
  Q 735.92 531.28 735.92 533.40
  A 2.83 2.74 36.5 0 0 736.07 534.30
  Q 736.79 536.31 738.74 537.06
  C 745.06 539.48 748.55 534.35 750.18 529.02
  Q 751.81 523.68 748.56 520.32
  A 1.89 1.88 -34.2 0 0 746.43 519.92
  Z
  M 702.32 536.94
  C 698.03 541.20 696.07 547.24 694.97 553.04
  A 0.76 0.76 0.0 0 0 696.02 553.88
  Q 702.31 551.20 707.54 547.29
  Q 713.20 543.06 711.16 536.66
  Q 718.44 530.10 715.25 521.66
  A 1.50 1.49 73.8 0 0 713.55 520.72
  C 706.69 522.12 700.66 529.91 702.32 536.94
  Z
  M 691.17 527.99
  C 684.66 532.16 680.00 541.89 679.66 549.14
  A 1.14 1.12 -69.7 0 0 680.09 550.09
  Q 681.34 551.10 683.03 551.53
  A 1.56 1.53 -52.0 0 0 684.16 551.38
  C 692.33 546.79 696.80 537.51 693.14 528.61
  A 1.35 1.34 62.3 0 0 691.17 527.99
  Z
  M 667.26 548.03
  A 1.39 1.38 29.9 0 0 665.36 548.54
  L 662.97 552.66
  A 1.19 1.19 0.0 0 0 663.71 554.41
  L 665.97 554.99
  A 2.13 2.12 22.0 0 0 668.33 553.99
  L 669.87 551.33
  A 1.57 1.56 29.9 0 0 669.29 549.20
  L 667.26 548.03
  Z
  M 700.44 577.47
  L 702.76 572.53
  A 1.19 1.19 0.0 0 0 701.68 570.84
  L 699.84 570.84
  A 1.82 1.82 0.0 0 0 698.02 572.66
  L 698.02 576.93
  A 1.27 1.27 0.0 0 0 700.44 577.47
  Z
  M 711.10 588.58
  C 709.49 591.68 709.99 596.31 714.22 596.60
  C 720.84 597.04 724.37 591.01 725.80 585.37
  Q 726.74 581.64 724.32 579.43
  A 3.41 3.39 -38.0 0 0 720.41 578.96
  Q 714.43 582.20 711.10 588.58
  Z"
/>
<path fill="#c46c34" d="
  M 268.21 490.53
  C 266.25 486.72 267.11 482.53 268.77 478.89
  Q 272.25 475.04 276.87 473.73
  A 2.26 2.26 0.0 0 1 279.36 474.63
  C 283.61 480.85 280.41 489.04 274.63 492.62
  A 1.54 1.50 -55.1 0 1 273.54 492.83
  Q 270.59 492.29 268.21 490.53
  Z"
/>
<path fill="#99481c" d="
  M 748.05 476.16
  Q 750.66 477.88 750.90 481.54
  Q 751.43 489.59 745.64 493.24
  C 741.77 495.68 737.85 494.02 736.56 489.87
  C 735.20 485.50 740.66 479.18 743.85 476.61
  Q 745.07 475.62 747.11 475.83
  A 2.10 2.09 64.3 0 1 748.05 476.16
  Z"
/>
<path fill="#b9612f" d="
  M 682.77 484.43
  Q 688.07 495.61 678.06 502.81
  A 2.03 2.03 0.0 0 1 675.65 502.79
  C 668.18 497.23 674.32 486.70 680.78 483.71
  A 1.51 1.51 0.0 0 1 682.77 484.43
  Z"
/>
<path fill="#c46c34" d="
  M 787.87 506.43
  Q 786.76 528.25 780.02 548.76
  Q 775.39 563.75 766.83 576.76
  C 764.35 580.53 760.86 584.13 758.60 586.93
  Q 755.99 590.16 751.67 593.84
  Q 742.71 601.46 740.93 602.66
  Q 734.53 607.02 724.11 612.21
  Q 721.08 613.72 719.10 614.40
  C 714.31 616.04 710.79 617.77 706.26 619.12
  Q 696.59 622.01 686.77 624.30
  Q 683.51 625.06 678.79 625.61
  Q 674.99 626.06 670.74 626.56
  Q 679.81 623.67 688.29 620.72
  Q 694.89 618.42 698.31 616.50
  C 705.83 612.26 712.05 609.87 718.98 604.28
  Q 727.76 597.19 729.14 595.88
  Q 734.99 590.35 742.08 581.52
  Q 745.61 577.12 749.48 569.35
  C 752.23 563.83 756.98 555.73 759.49 548.55
  Q 760.84 544.70 762.78 540.41
  Q 764.68 536.22 766.42 529.04
  Q 767.84 523.19 769.18 517.41
  L 772.41 499.22
  A 0.43 0.42 -75.7 0 1 772.96 498.89
  Q 777.76 500.44 782.59 501.69
  Q 785.95 502.55 787.87 506.43
  Z
  M 773.88 517.54
  A 2.49 2.48 -41.1 0 0 773.64 521.01
  L 776.82 524.78
  A 2.25 2.25 0.0 0 0 780.59 524.25
  Q 783.74 517.28 784.57 511.43
  A 1.53 1.52 34.8 0 0 784.39 510.45
  L 781.32 505.15
  A 0.74 0.73 36.9 0 0 779.97 505.34
  Q 777.87 513.99 773.88 517.54
  Z"
/>
<path fill="#ce7a3c" d="
  M 422.94 516.36
  A 0.56 0.55 70.8 0 1 422.22 516.01
  Q 420.09 509.56 422.09 503.17
  A 1.60 1.59 -5.9 0 1 422.84 502.25
  Q 424.15 501.53 425.75 502.01
  A 1.36 1.35 -3.2 0 1 426.62 502.78
  Q 428.70 507.70 428.59 513.47
  A 1.20 1.20 0.0 0 1 427.80 514.57
  L 422.94 516.36
  Z"
/>
<path fill="#99481c" d="
  M 509.86 502.17
  L 520.39 502.61
  A 1.11 1.10 -80.6 0 1 521.40 504.03
  Q 520.05 508.65 515.36 510.90
  C 510.10 513.42 506.77 508.71 507.77 503.81
  A 2.05 2.05 0.0 0 1 509.86 502.17
  Z"
/>
<path fill="#99481c" d="
  M 547.05 503.89
  L 549.14 502.51
  Q 554.75 500.77 555.24 506.49
  Q 555.77 512.65 551.97 517.20
  C 548.42 521.47 540.74 521.04 541.06 514.22
  C 541.25 510.29 544.67 506.89 547.05 503.89
  Z"
/>
<path fill="#c46c34" d="
  M 295.96 503.75
  A 1.20 1.20 0.0 0 1 297.72 504.08
  Q 304.39 515.00 295.71 523.56
  A 1.81 1.80 -57.2 0 1 293.84 523.97
  C 283.45 520.33 290.32 508.11 295.96 503.75
  Z"
/>
<path fill="#b9612f" d="
  M 773.88 517.54
  Q 777.87 513.99 779.97 505.34
  A 0.74 0.73 36.9 0 1 781.32 505.15
  L 784.39 510.45
  A 1.53 1.52 34.8 0 1 784.57 511.43
  Q 783.74 517.28 780.59 524.25
  A 2.25 2.25 0.0 0 1 776.82 524.78
  L 773.64 521.01
  A 2.49 2.48 -41.1 0 1 773.88 517.54
  Z"
/>
<path fill="#dd8e48" d="
  M 275.72 530.07
  L 278.05 535.42
  C 281.44 541.25 284.58 547.44 288.56 552.56
  Q 293.57 559.00 299.02 564.35
  Q 305.74 570.95 313.98 577.34
  A 0.41 0.41 0.0 0 1 313.76 578.07
  L 312.90 578.14
  Q 298.21 569.39 288.00 559.49
  Q 283.27 554.91 274.63 544.61
  Q 273.69 543.49 272.08 540.46
  Q 269.30 533.75 265.24 527.63
  A 3.87 3.68 -71.8 0 1 264.79 526.68
  L 260.70 513.68
  Q 266.56 520.43 271.51 527.91
  Q 273.14 530.37 275.72 530.07
  Z"
/>
<path fill="#b9612f" d="
  M 429.72 519.53
  Q 429.56 519.45 429.40 519.48
  A 0.21 0.20 88.5 0 0 429.22 519.68
  L 428.83 529.15
  A 0.30 0.28 -2.4 0 1 428.57 529.42
  Q 427.06 529.61 425.61 528.57
  A 0.96 0.89 6.0 0 1 425.33 528.25
  L 422.58 522.86
  A 0.17 0.16 -58.8 0 0 422.27 522.94
  L 422.27 529.27
  A 1.18 1.18 0.0 0 1 421.11 530.45
  Q 404.79 530.75 391.26 532.82
  Q 384.69 533.83 379.00 534.55
  Q 375.54 534.98 364.77 537.21
  Q 350.14 540.25 338.45 546.68
  C 332.64 549.88 327.59 554.04 328.07 561.27
  A 3.31 3.27 -57.9 0 0 328.30 562.31
  Q 330.00 566.65 332.77 569.51
  C 338.25 575.17 345.65 580.14 353.49 583.01
  Q 354.61 583.41 359.27 585.18
  Q 359.28 585.18 367.76 588.85
  C 376.44 592.60 387.05 595.53 395.45 597.36
  Q 396.59 597.74 396.41 598.74
  Q 395.88 601.76 394.22 607.67
  Q 388.05 606.92 382.17 605.01
  Q 374.94 602.67 372.20 602.02
  Q 357.74 598.58 344.41 593.35
  Q 338.36 590.97 336.57 589.98
  Q 329.50 586.06 329.36 586.26
  Q 329.31 586.33 320.46 582.20
  Q 316.60 580.40 312.90 578.14
  L 313.76 578.07
  A 0.41 0.41 0.0 0 0 313.98 577.34
  Q 305.74 570.95 299.02 564.35
  Q 293.57 559.00 288.56 552.56
  C 284.58 547.44 281.44 541.25 278.05 535.42
  C 281.70 536.17 285.53 537.81 289.00 537.87
  Q 297.97 538.02 305.86 533.31
  Q 313.89 528.53 321.91 523.84
  L 326.37 529.56
  A 1.20 1.14 77.3 0 0 326.97 529.96
  Q 337.58 532.91 347.81 530.66
  Q 352.04 529.73 360.77 525.72
  A 0.51 0.51 0.0 0 0 360.99 525.00
  Q 358.47 520.92 359.30 516.26
  A 0.79 0.79 0.0 0 1 360.60 515.81
  Q 363.95 518.74 365.51 523.37
  A 1.11 1.10 88.0 0 0 366.28 524.09
  C 381.26 527.97 392.60 524.60 409.50 521.22
  Q 414.50 520.22 429.07 518.68
  A 0.52 0.51 -9.4 0 1 429.63 519.08
  L 429.72 519.53
  Z
  M 321.06 527.20
  L 321.06 530.86
  A 1.46 1.45 -77.6 0 0 321.90 532.18
  L 324.63 533.46
  A 1.22 1.21 2.4 0 0 326.29 531.94
  L 324.45 526.95
  A 0.85 0.84 0.9 0 0 323.95 526.44
  Q 322.34 525.82 321.22 526.84
  A 0.49 0.47 70.3 0 0 321.06 527.20
  Z"
/>
<path fill="#71300f" d="
  M 272.08 540.46
  Q 273.69 543.49 274.63 544.61
  Q 283.27 554.91 288.00 559.49
  Q 298.21 569.39 312.90 578.14
  Q 316.60 580.40 320.46 582.20
  Q 329.31 586.33 329.36 586.26
  Q 329.50 586.06 336.57 589.98
  Q 338.36 590.97 344.41 593.35
  Q 357.74 598.58 372.20 602.02
  Q 374.94 602.67 382.17 605.01
  Q 388.05 606.92 394.22 607.67
  Q 399.24 608.64 401.46 613.50
  L 400.16 618.69
  Q 396.46 619.68 390.76 618.19
  Q 390.85 619.04 390.59 618.50
  A 0.90 0.87 -5.4 0 0 389.99 618.02
  Q 374.61 614.53 368.15 612.56
  Q 361.72 610.59 346.80 605.66
  Q 321.49 597.28 299.45 582.77
  Q 287.95 575.20 278.42 565.82
  Q 259.25 546.95 250.80 521.27
  Q 252.81 519.30 254.55 521.72
  C 256.40 524.31 257.12 528.35 258.72 530.61
  C 261.77 534.92 267.66 537.65 272.08 540.46
  Z"
/>
<path fill="#99481c" d="
  M 326.33 521.90
  Q 326.51 521.44 327.36 520.57
  Q 330.29 517.05 333.63 522.35
  Q 335.18 524.78 335.00 526.01
  Q 334.75 527.85 332.83 528.47
  A 1.28 1.26 50.5 0 1 331.79 528.36
  Q 328.05 526.15 326.33 521.90
  Z"
/>
<path fill="#71300f" d="
  M 429.72 519.53
  Q 429.96 524.23 431.80 528.28
  A 2.53 2.52 -12.5 0 0 434.13 529.76
  C 461.89 529.48 490.89 530.22 518.65 533.79
  Q 521.03 534.10 536.64 536.29
  C 551.61 538.39 564.27 541.10 580.65 544.88
  Q 582.78 545.38 584.72 544.18
  A 0.49 0.43 3.6 0 0 584.81 544.11
  L 588.89 539.95
  A 0.71 0.68 -10.2 0 0 589.02 539.77
  L 592.14 534.13
  A 0.67 0.66 27.0 0 1 593.01 533.85
  L 593.24 533.96
  A 0.29 0.28 -69.5 0 1 593.39 534.31
  Q 591.36 540.43 591.37 545.94
  A 1.84 1.83 -83.7 0 0 592.80 547.73
  Q 602.82 549.96 610.10 552.49
  C 613.62 553.71 617.82 554.33 620.50 555.56
  Q 627.84 558.90 636.79 561.74
  Q 642.23 563.46 655.97 569.80
  Q 669.95 576.25 682.80 588.68
  Q 687.82 593.52 687.19 599.72
  Q 686.58 604.31 682.67 606.89
  C 674.87 612.03 664.56 615.10 656.22 616.43
  Q 650.98 617.26 639.68 618.84
  Q 633.33 619.73 614.48 620.07
  A 1.59 1.59 0.0 0 0 612.92 621.66
  L 612.92 628.16
  A 1.78 1.78 0.0 0 0 614.76 629.94
  Q 627.03 629.56 641.50 629.63
  Q 653.08 629.69 670.74 626.56
  Q 674.99 626.06 678.79 625.61
  Q 683.51 625.06 686.77 624.30
  Q 696.59 622.01 706.26 619.12
  C 710.79 617.77 714.31 616.04 719.10 614.40
  Q 721.08 613.72 724.11 612.21
  Q 734.53 607.02 740.93 602.66
  Q 742.71 601.46 751.67 593.84
  Q 755.99 590.16 758.60 586.93
  C 760.86 584.13 764.35 580.53 766.83 576.76
  Q 775.39 563.75 780.02 548.76
  C 786.48 542.53 791.67 537.53 796.48 531.43
  Q 793.51 549.37 785.46 566.97
  Q 775.39 588.99 758.13 604.01
  Q 744.89 615.53 725.30 623.85
  C 701.83 633.81 676.35 638.16 651.50 639.48
  Q 633.08 640.45 614.39 640.33
  Q 609.94 639.35 605.27 639.97
  L 604.29 621.29
  L 604.76 612.65
  A 1.78 1.76 83.5 0 1 606.02 611.05
  L 612.19 609.20
  Q 625.62 608.81 638.16 606.27
  Q 644.32 605.02 649.46 602.71
  C 667.13 594.80 651.31 583.54 643.13 578.47
  Q 635.45 573.71 620.72 567.62
  Q 604.22 560.80 581.54 555.01
  Q 537.53 543.77 496.12 541.27
  Q 481.73 540.40 479.77 540.27
  Q 444.23 537.94 405.75 541.73
  C 392.80 543.01 379.83 545.89 368.14 551.14
  C 350.37 559.12 363.86 569.59 373.48 574.24
  Q 385.69 580.15 399.55 584.17
  Q 399.37 590.65 397.05 596.76
  A 0.81 0.81 0.0 0 1 396.35 597.29
  L 395.45 597.36
  C 387.05 595.53 376.44 592.60 367.76 588.85
  Q 359.28 585.18 359.27 585.18
  Q 354.61 583.41 353.49 583.01
  C 345.65 580.14 338.25 575.17 332.77 569.51
  Q 330.00 566.65 328.30 562.31
  A 3.31 3.27 -57.9 0 1 328.07 561.27
  C 327.59 554.04 332.64 549.88 338.45 546.68
  Q 350.14 540.25 364.77 537.21
  Q 375.54 534.98 379.00 534.55
  Q 384.69 533.83 391.26 532.82
  Q 404.79 530.75 421.11 530.45
  A 1.18 1.18 0.0 0 0 422.27 529.27
  L 422.27 522.94
  A 0.17 0.16 -58.8 0 1 422.58 522.86
  L 425.33 528.25
  A 0.96 0.89 6.0 0 0 425.61 528.57
  Q 427.06 529.61 428.57 529.42
  A 0.30 0.28 -2.4 0 0 428.83 529.15
  L 429.22 519.68
  A 0.21 0.20 88.5 0 1 429.40 519.48
  Q 429.56 519.45 429.72 519.53
  Z"
/>
<path fill="#99481c" d="
  M 746.43 519.92
  A 1.89 1.88 -34.2 0 1 748.56 520.32
  Q 751.81 523.68 750.18 529.02
  C 748.55 534.35 745.06 539.48 738.74 537.06
  Q 736.79 536.31 736.07 534.30
  A 2.83 2.74 36.5 0 1 735.92 533.40
  Q 735.92 531.28 738.01 527.83
  Q 741.44 522.18 746.43 519.92
  Z"
/>
<path fill="#99481c" d="
  M 711.16 536.66
  Q 708.66 538.35 705.62 538.57
  A 2.30 2.22 -35.2 0 1 704.66 538.42
  Q 703.37 537.90 702.32 536.94
  C 700.66 529.91 706.69 522.12 713.55 520.72
  A 1.50 1.49 73.8 0 1 715.25 521.66
  Q 718.44 530.10 711.16 536.66
  Z"
/>
<path fill="#b9612f" d="
  M 612.24 531.04
  A 0.71 0.70 -43.5 0 1 612.27 530.08
  C 616.88 525.31 623.94 525.51 630.29 525.92
  A 0.70 0.69 25.5 0 1 630.72 527.12
  Q 627.34 530.24 626.12 534.29
  C 625.88 535.09 625.86 536.37 625.65 537.22
  A 0.70 0.70 0.0 0 1 624.85 537.74
  Q 616.92 536.44 612.24 531.04
  Z"
/>
<path fill="#99481c" d="
  M 321.22 526.84
  Q 322.34 525.82 323.95 526.44
  A 0.85 0.84 0.9 0 1 324.45 526.95
  L 326.29 531.94
  A 1.22 1.21 2.4 0 1 324.63 533.46
  L 321.90 532.18
  A 1.46 1.45 -77.6 0 1 321.06 530.86
  L 321.06 527.20
  A 0.49 0.47 70.3 0 1 321.22 526.84
  Z"
/>
<path fill="#c46c34" d="
  M 691.17 527.99
  A 1.35 1.34 62.3 0 1 693.14 528.61
  C 696.80 537.51 692.33 546.79 684.16 551.38
  A 1.56 1.53 -52.0 0 1 683.03 551.53
  Q 681.34 551.10 680.09 550.09
  A 1.14 1.12 -69.7 0 1 679.66 549.14
  C 680.00 541.89 684.66 532.16 691.17 527.99
  Z"
/>
<path fill="#c46c34" d="
  M 702.32 536.94
  Q 703.37 537.90 704.66 538.42
  A 2.30 2.22 -35.2 0 0 705.62 538.57
  Q 708.66 538.35 711.16 536.66
  Q 713.20 543.06 707.54 547.29
  Q 702.31 551.20 696.02 553.88
  A 0.76 0.76 0.0 0 1 694.97 553.04
  C 696.07 547.24 698.03 541.20 702.32 536.94
  Z"
/>
<path fill="#e4b786" d="
  M 612.19 609.20
  Q 612.09 601.78 611.93 594.43
  C 611.85 591.18 611.13 589.20 608.95 587.11
  Q 603.29 581.70 595.76 578.86
  C 586.25 575.29 578.93 572.60 569.68 570.59
  Q 562.18 568.95 547.36 565.97
  A 0.06 0.05 -69.2 0 0 547.30 566.00
  L 547.04 566.55
  A 0.23 0.23 0.0 0 0 547.20 566.87
  Q 565.08 570.41 582.28 577.21
  C 586.41 578.84 603.97 586.76 603.92 591.49
  Q 603.76 606.41 604.29 621.29
  L 605.27 639.97
  L 609.01 681.29
  Q 609.33 687.03 610.05 692.75
  Q 610.61 697.12 609.50 706.25
  Q 608.39 715.43 602.69 722.57
  L 587.49 713.76
  A 0.60 0.60 0.0 0 1 587.25 712.98
  Q 592.34 702.16 593.10 689.53
  Q 594.03 673.88 593.64 665.64
  C 592.55 642.94 591.92 623.12 589.04 600.90
  A 3.51 3.30 30.2 0 0 588.77 599.99
  Q 587.77 597.83 586.06 596.15
  Q 578.17 588.36 567.28 583.73
  Q 555.01 578.52 550.30 576.99
  Q 510.72 564.16 469.16 563.09
  C 457.75 562.80 447.05 563.73 435.65 565.68
  Q 431.21 566.43 425.06 568.81
  Q 416.18 572.26 408.75 580.16
  L 409.59 568.76
  A 3.96 3.95 78.3 0 1 411.70 565.54
  Q 418.44 562.00 425.94 560.40
  Q 433.93 558.69 442.71 557.60
  L 452.85 556.73
  A 0.22 0.21 85.8 0 0 453.04 556.50
  L 453.04 556.49
  A 0.22 0.21 85.8 0 0 452.82 556.29
  L 437.17 557.06
  Q 426.51 557.89 421.52 558.99
  C 415.72 560.26 406.78 562.99 403.19 568.13
  Q 402.38 569.29 401.50 575.51
  Q 400.87 580.02 399.55 584.17
  Q 385.69 580.15 373.48 574.24
  C 363.86 569.59 350.37 559.12 368.14 551.14
  C 379.83 545.89 392.80 543.01 405.75 541.73
  Q 444.23 537.94 479.77 540.27
  Q 481.73 540.40 496.12 541.27
  Q 537.53 543.77 581.54 555.01
  Q 604.22 560.80 620.72 567.62
  Q 635.45 573.71 643.13 578.47
  C 651.31 583.54 667.13 594.80 649.46 602.71
  Q 644.32 605.02 638.16 606.27
  Q 625.62 608.81 612.19 609.20
  Z"
/>
<path fill="#99481c" d="
  M 669.87 551.33
  L 668.33 553.99
  A 2.13 2.12 22.0 0 1 665.97 554.99
  L 663.71 554.41
  A 1.19 1.19 0.0 0 1 662.97 552.66
  L 665.36 548.54
  A 1.39 1.38 29.9 0 1 667.26 548.03
  L 669.29 549.20
  A 1.57 1.56 29.9 0 1 669.87 551.33
  Z"
/>
<path fill="#dd8e48" d="
  M 442.71 557.60
  Q 440.41 556.81 437.17 557.06
  L 452.82 556.29
  A 0.22 0.21 85.8 0 1 453.04 556.49
  L 453.04 556.50
  A 0.22 0.21 85.8 0 1 452.85 556.73
  L 442.71 557.60
  Z"
/>
<path fill="#99481c" d="
  M 437.17 557.06
  Q 440.41 556.81 442.71 557.60
  Q 433.93 558.69 425.94 560.40
  Q 418.44 562.00 411.70 565.54
  A 3.96 3.95 78.3 0 0 409.59 568.76
  L 408.75 580.16
  Q 406.74 589.44 404.58 600.87
  Q 403.37 607.22 401.46 613.50
  Q 399.24 608.64 394.22 607.67
  Q 395.88 601.76 396.41 598.74
  Q 396.59 597.74 395.45 597.36
  L 396.35 597.29
  A 0.81 0.81 0.0 0 0 397.05 596.76
  Q 399.37 590.65 399.55 584.17
  Q 400.87 580.02 401.50 575.51
  Q 402.38 569.29 403.19 568.13
  C 406.78 562.99 415.72 560.26 421.52 558.99
  Q 426.51 557.89 437.17 557.06
  Z"
/>
<path fill="#fbd49c" d="
  M 602.69 722.57
  Q 593.47 732.65 578.96 737.71
  Q 561.49 743.80 547.09 745.66
  Q 527.92 748.14 514.50 748.26
  Q 497.21 748.41 472.52 746.16
  Q 454.55 744.53 437.48 740.30
  C 431.98 738.94 425.60 736.76 421.91 735.50
  Q 413.90 732.77 404.35 726.94
  C 388.52 717.29 380.13 704.55 382.98 685.22
  Q 383.82 679.59 384.46 677.00
  L 384.72 679.36
  A 1.47 1.45 21.6 0 0 385.08 680.17
  Q 385.89 681.07 386.30 682.26
  Q 389.14 690.48 395.29 696.23
  Q 406.54 706.74 421.48 711.25
  C 438.54 716.41 461.38 716.84 474.97 703.49
  Q 480.68 697.88 481.41 696.91
  Q 488.89 686.93 493.28 674.02
  Q 497.97 660.23 499.69 648.73
  Q 502.82 627.78 504.78 608.50
  Q 505.23 604.12 501.73 602.21
  C 494.01 598.00 485.02 594.70 476.04 593.02
  Q 471.23 592.13 466.56 590.20
  A 3.04 3.00 57.9 0 0 465.54 589.96
  Q 447.68 588.84 431.06 591.82
  C 421.77 593.48 412.73 597.67 408.01 606.49
  Q 404.19 613.64 399.93 620.95
  Q 400.42 618.84 400.16 618.69
  L 401.46 613.50
  Q 403.37 607.22 404.58 600.87
  Q 406.74 589.44 408.75 580.16
  Q 416.18 572.26 425.06 568.81
  Q 431.21 566.43 435.65 565.68
  C 447.05 563.73 457.75 562.80 469.16 563.09
  Q 510.72 564.16 550.30 576.99
  Q 555.01 578.52 567.28 583.73
  Q 578.17 588.36 586.06 596.15
  Q 587.77 597.83 588.77 599.99
  A 3.51 3.30 30.2 0 1 589.04 600.90
  C 591.92 623.12 592.55 642.94 593.64 665.64
  Q 594.03 673.88 593.10 689.53
  Q 592.34 702.16 587.25 712.98
  A 0.60 0.60 0.0 0 0 587.49 713.76
  L 602.69 722.57
  Z
  M 567.37 655.68
  C 564.59 661.51 565.86 671.86 566.53 678.98
  C 566.83 682.10 569.01 686.28 572.80 685.11
  C 576.57 683.95 577.65 679.23 577.68 675.27
  Q 577.79 664.23 572.40 657.26
  Q 570.41 654.68 568.32 654.98
  A 1.27 1.26 8.6 0 0 567.37 655.68
  Z
  M 542.79 692.68
  Q 546.49 689.78 547.99 685.28
  C 549.53 680.69 550.80 675.08 548.57 670.48
  A 1.84 1.62 69.7 0 0 546.68 669.46
  C 543.01 670.28 538.86 679.12 537.49 682.52
  C 536.09 685.99 534.89 689.55 536.77 692.11
  Q 538.23 694.10 542.02 693.06
  A 2.20 2.10 -69.9 0 0 542.79 692.68
  Z
  M 576.28 702.93
  L 578.61 705.26
  A 1.35 1.34 71.7 0 0 579.32 705.62
  Q 582.82 706.20 584.05 702.99
  Q 587.26 694.64 585.90 684.19
  C 585.64 682.14 585.59 680.39 584.17 678.85
  A 1.82 1.60 47.2 0 0 581.75 678.60
  Q 581.12 679.19 580.80 680.05
  C 577.95 687.70 574.48 694.15 575.58 701.54
  A 2.48 2.48 0.0 0 0 576.28 702.93
  Z
  M 573.74 702.76
  Q 573.16 703.00 572.62 703.58
  Q 563.77 712.98 560.09 724.51
  Q 558.57 729.28 561.30 733.39
  A 1.33 1.32 75.9 0 0 562.28 733.98
  C 566.55 734.37 570.15 730.69 572.39 727.22
  Q 574.42 724.10 574.99 719.45
  Q 576.04 710.98 575.08 703.53
  A 0.97 0.97 0.0 0 0 573.74 702.76
  Z"
/>
<path fill="#99481c" d="
  M 612.19 609.20
  L 606.02 611.05
  A 1.78 1.76 83.5 0 0 604.76 612.65
  L 604.29 621.29
  Q 603.76 606.41 603.92 591.49
  C 603.97 586.76 586.41 578.84 582.28 577.21
  Q 565.08 570.41 547.20 566.87
  A 0.23 0.23 0.0 0 1 547.04 566.55
  L 547.30 566.00
  A 0.06 0.05 -69.2 0 1 547.36 565.97
  Q 562.18 568.95 569.68 570.59
  C 578.93 572.60 586.25 575.29 595.76 578.86
  Q 603.29 581.70 608.95 587.11
  C 611.13 589.20 611.85 591.18 611.93 594.43
  Q 612.09 601.78 612.19 609.20
  Z"
/>
<path fill="#99481c" d="
  M 700.44 577.47
  A 1.27 1.27 0.0 0 1 698.02 576.93
  L 698.02 572.66
  A 1.82 1.82 0.0 0 1 699.84 570.84
  L 701.68 570.84
  A 1.19 1.19 0.0 0 1 702.76 572.53
  L 700.44 577.47
  Z"
/>
<path fill="#99481c" d="
  M 714.22 596.60
  C 709.99 596.31 709.49 591.68 711.10 588.58
  Q 714.43 582.20 720.41 578.96
  A 3.41 3.39 -38.0 0 1 724.32 579.43
  Q 726.74 581.64 725.80 585.37
  C 724.37 591.01 720.84 597.04 714.22 596.60
  Z"
/>
<path fill="#fef1d3" d="
  M 384.46 677.00
  L 399.93 620.95
  Q 404.19 613.64 408.01 606.49
  C 412.73 597.67 421.77 593.48 431.06 591.82
  Q 447.68 588.84 465.54 589.96
  A 3.04 3.00 57.9 0 1 466.56 590.20
  Q 471.23 592.13 476.04 593.02
  C 485.02 594.70 494.01 598.00 501.73 602.21
  Q 505.23 604.12 504.78 608.50
  Q 502.82 627.78 499.69 648.73
  Q 497.97 660.23 493.28 674.02
  Q 488.89 686.93 481.41 696.91
  Q 480.68 697.88 474.97 703.49
  C 461.38 716.84 438.54 716.41 421.48 711.25
  Q 406.54 706.74 395.29 696.23
  Q 389.14 690.48 386.30 682.26
  Q 385.89 681.07 385.08 680.17
  A 1.47 1.45 21.6 0 1 384.72 679.36
  L 384.46 677.00
  Z
  M 422.7226 617.4741
  A 7.94 3.89 -70.1 0 0 416.3623 623.6159
  A 7.94 3.89 -70.1 0 0 417.3174 632.4059
  A 7.94 3.89 -70.1 0 0 423.6777 626.2641
  A 7.94 3.89 -70.1 0 0 422.7226 617.4741
  Z
  M 436.8545 622.1919
  A 11.98 6.92 -67.5 0 0 425.8768 630.6118
  A 11.98 6.92 -67.5 0 0 427.6855 644.3281
  A 11.98 6.92 -67.5 0 0 438.6632 635.9082
  A 11.98 6.92 -67.5 0 0 436.8545 622.1919
  Z"
/>
<path fill="#b9612f" d="
  M 400.16 618.69
  Q 400.42 618.84 399.93 620.95
  L 384.46 677.00
  Q 383.82 679.59 382.98 685.22
  C 380.13 704.55 388.52 717.29 404.35 726.94
  Q 413.90 732.77 421.91 735.50
  C 425.60 736.76 431.98 738.94 437.48 740.30
  Q 454.55 744.53 472.52 746.16
  Q 497.21 748.41 514.50 748.26
  Q 527.92 748.14 547.09 745.66
  Q 561.49 743.80 578.96 737.71
  Q 593.47 732.65 602.69 722.57
  Q 608.39 715.43 609.50 706.25
  Q 610.61 697.12 610.05 692.75
  Q 609.33 687.03 609.01 681.29
  L 610.40 687.60
  A 0.33 0.33 0.0 0 0 610.91 687.80
  Q 616.56 683.92 616.49 676.83
  Q 616.44 671.90 616.62 666.92
  Q 618.02 678.51 619.20 690.06
  Q 619.91 697.01 619.42 703.95
  Q 618.73 722.40 605.56 734.72
  C 598.80 741.43 589.99 745.87 581.05 748.78
  Q 573.84 751.13 558.50 754.96
  Q 552.95 756.35 533.75 757.72
  Q 522.13 758.56 510.59 758.77
  C 502.61 758.91 493.69 758.29 485.21 757.96
  C 464.02 756.23 442.82 753.39 422.66 746.67
  C 417.96 745.10 411.10 742.16 406.52 739.98
  C 397.15 735.53 386.33 728.00 380.54 718.73
  Q 377.76 714.27 375.98 709.81
  C 373.33 703.12 373.05 696.32 373.36 688.98
  Q 373.60 683.25 376.06 673.68
  Q 382.06 650.30 386.64 634.38
  Q 388.78 626.97 390.76 618.19
  Q 396.46 619.68 400.16 618.69
  Z"
/>
<path fill="#99481c" d="
  M 614.39 640.33
  L 616.62 666.92
  Q 616.44 671.90 616.49 676.83
  Q 616.56 683.92 610.91 687.80
  A 0.33 0.33 0.0 0 1 610.40 687.60
  L 609.01 681.29
  L 605.27 639.97
  Q 609.94 639.35 614.39 640.33
  Z"
/>
<path fill="#e4b786" d="
  M 568.32 654.98
  Q 570.41 654.68 572.40 657.26
  Q 577.79 664.23 577.68 675.27
  C 577.65 679.23 576.57 683.95 572.80 685.11
  C 569.01 686.28 566.83 682.10 566.53 678.98
  C 565.86 671.86 564.59 661.51 567.37 655.68
  A 1.27 1.26 8.6 0 1 568.32 654.98
  Z"
/>
<path fill="#e4b786" d="
  M 542.02 693.06
  Q 538.23 694.10 536.77 692.11
  C 534.89 689.55 536.09 685.99 537.49 682.52
  C 538.86 679.12 543.01 670.28 546.68 669.46
  A 1.84 1.62 69.7 0 1 548.57 670.48
  C 550.80 675.08 549.53 680.69 547.99 685.28
  Q 546.49 689.78 542.79 692.68
  A 2.20 2.10 -69.9 0 1 542.02 693.06
  Z"
/>
<path fill="#fef1d3" d="
  M 576.28 702.93
  A 2.48 2.48 0.0 0 1 575.58 701.54
  C 574.48 694.15 577.95 687.70 580.80 680.05
  Q 581.12 679.19 581.75 678.60
  A 1.82 1.60 47.2 0 1 584.17 678.85
  C 585.59 680.39 585.64 682.14 585.90 684.19
  Q 587.26 694.64 584.05 702.99
  Q 582.82 706.20 579.32 705.62
  A 1.35 1.34 71.7 0 1 578.61 705.26
  L 576.28 702.93
  Z"
/>
<path fill="#e4b786" d="
  M 573.74 702.76
  A 0.97 0.97 0.0 0 1 575.08 703.53
  Q 576.04 710.98 574.99 719.45
  Q 574.42 724.10 572.39 727.22
  C 570.15 730.69 566.55 734.37 562.28 733.98
  A 1.33 1.32 75.9 0 1 561.30 733.39
  Q 558.57 729.28 560.09 724.51
  Q 563.77 712.98 572.62 703.58
  Q 573.16 703.00 573.74 702.76
  Z"
/>
<path fill="#efd7c7" d="
  M 375.98 709.81
  Q 377.76 714.27 380.54 718.73
  C 386.33 728.00 397.15 735.53 406.52 739.98
  C 411.10 742.16 417.96 745.10 422.66 746.67
  C 442.82 753.39 464.02 756.23 485.21 757.96
  Q 495.23 759.27 505.18 760.75
  Q 509.21 761.35 511.42 761.37
  C 516.76 761.41 521.73 762.16 527.11 762.16
  Q 551.58 762.16 557.13 761.49
  Q 566.86 760.33 572.31 759.01
  Q 590.91 754.50 613.80 749.58
  Q 617.70 748.74 622.38 746.05
  A 1.33 1.30 -7.1 0 0 622.97 745.31
  Q 623.57 743.31 622.71 742.28
  C 618.59 737.29 612.71 736.36 605.56 734.72
  Q 618.73 722.40 619.42 703.95
  Q 629.23 704.91 638.74 705.66
  Q 649.10 706.47 666.50 708.20
  Q 694.42 710.97 723.33 717.14
  Q 735.45 719.73 746.23 723.54
  C 751.88 725.54 756.63 727.62 760.68 731.18
  C 769.19 738.65 760.04 745.92 753.42 748.93
  Q 741.45 754.36 727.81 757.58
  Q 710.61 761.64 696.34 763.78
  Q 647.52 771.10 601.12 772.82
  Q 574.15 773.81 573.62 773.83
  Q 492.51 776.14 408.94 766.57
  Q 399.99 765.55 378.99 762.06
  Q 359.95 758.90 344.90 754.80
  C 334.08 751.86 325.41 748.94 317.34 743.23
  Q 314.59 741.29 313.19 739.12
  C 307.22 729.84 324.32 722.87 330.49 720.51
  Q 339.76 716.99 351.40 714.42
  Q 357.37 713.10 375.98 709.81
  Z"
/>
<path fill="#e4b786" d="
  M 485.21 757.96
  C 493.69 758.29 502.61 758.91 510.59 758.77
  Q 522.13 758.56 533.75 757.72
  Q 552.95 756.35 558.50 754.96
  Q 573.84 751.13 581.05 748.78
  C 589.99 745.87 598.80 741.43 605.56 734.72
  C 612.71 736.36 618.59 737.29 622.71 742.28
  Q 623.57 743.31 622.97 745.31
  A 1.33 1.30 -7.1 0 1 622.38 746.05
  Q 617.70 748.74 613.80 749.58
  Q 590.91 754.50 572.31 759.01
  Q 566.86 760.33 557.13 761.49
  Q 551.58 762.16 527.11 762.16
  C 521.73 762.16 516.76 761.41 511.42 761.37
  Q 509.21 761.35 505.18 760.75
  Q 495.23 759.27 485.21 757.96
  Z"
/>
</svg>
