<?xml version="1.0" encoding="UTF-8" standalone="no"?>
<!DOCTYPE svg PUBLIC "-//W3C//DTD SVG 1.1//EN" "http://www.w3.org/Graphics/SVG/1.1/DTD/svg11.dtd">
<svg xmlns="http://www.w3.org/2000/svg" version="1.1" viewBox="0.00 0.00 1024.00 1024.00">
<g stroke-width="2.00" fill="none" stroke-linecap="butt">
<path stroke="#581915" vector-effect="non-scaling-stroke" d="
  M 681.93 319.88
  Q 681.06 322.37 678.89 324.94
  C 676.40 327.89 672.66 327.75 668.69 327.32"
/>
<path stroke="#97372a" vector-effect="non-scaling-stroke" d="
  M 668.69 327.32
  L 662.63 326.09
  A 2.20 2.08 41.6 0 0 661.65 326.12
  Q 650.17 329.32 641.25 330.52
  Q 609.13 334.83 575.94 332.13
  A 0.26 0.26 0.0 0 0 575.73 332.57
  C 579.87 336.88 584.22 340.83 587.83 345.65
  Q 595.43 355.82 599.81 366.93
  C 603.83 377.11 605.56 394.30 591.33 398.28
  C 581.59 401.01 570.38 398.38 561.08 394.48
  Q 522.13 378.12 499.34 343.19
  Q 498.11 341.31 496.35 337.83
  A 0.61 0.60 -40.9 0 0 495.32 337.76
  C 486.21 350.51 475.54 361.27 461.70 371.18
  Q 450.98 378.86 435.70 386.18
  Q 421.03 393.20 403.94 392.20"
/>
<path stroke="#a6503c" vector-effect="non-scaling-stroke" d="
  M 403.94 392.20
  Q 397.70 390.82 394.23 385.85
  C 388.02 376.94 391.62 364.13 396.21 355.27"
/>
<path stroke="#97372a" vector-effect="non-scaling-stroke" d="
  M 396.21 355.27
  Q 406.09 338.08 420.86 324.95
  A 0.43 0.42 25.2 0 0 420.59 324.21
  Q 400.84 323.56 382.21 317.17
  A 4.18 4.15 -44.6 0 0 379.56 317.16
  L 367.81 321.07"
/>
<path stroke="#581915" vector-effect="non-scaling-stroke" d="
  M 367.81 321.07
  C 367.47 316.76 365.08 313.79 362.17 310.60"
/>
<path stroke="#f06a4f" vector-effect="non-scaling-stroke" d="
  M 396.21 355.27
  C 395.68 347.75 393.91 337.88 386.88 333.91
  C 379.26 329.60 369.12 329.92 359.01 329.92
  C 355.65 329.92 351.84 329.20 348.19 329.02"
/>
<path stroke="#f0644a" vector-effect="non-scaling-stroke" d="
  M 707.53 346.64
  L 681.78 344.22
  A 1.38 1.36 -69.2 0 0 680.55 344.78
  C 675.61 351.62 672.78 358.73 679.50 365.93
  A 1.10 1.07 -20.0 0 0 680.28 366.28
  Q 683.84 366.41 684.49 366.25
  Q 694.16 363.87 703.43 363.11
  A 2.68 2.66 53.3 0 1 704.63 363.29
  Q 713.67 366.96 717.98 371.41
  Q 720.84 374.36 735.52 388.72
  C 740.83 393.91 745.62 400.04 750.29 404.35
  C 757.04 410.59 759.08 406.14 757.66 399.21
  Q 756.34 392.77 754.78 386.12"
/>
<path stroke="#f0644a" vector-effect="non-scaling-stroke" d="
  M 230.22 616.73
  Q 233.04 618.88 234.88 621.89
  A 3.08 2.98 -86.3 0 0 235.49 622.61
  C 237.39 624.24 238.67 626.39 240.52 628.32
  Q 246.78 634.84 250.53 638.98
  Q 258.55 647.85 269.81 657.62
  Q 279.38 665.91 291.34 673.55
  Q 311.30 686.30 324.14 693.07
  Q 329.33 695.81 336.17 698.25
  Q 345.26 701.50 350.98 704.21
  Q 357.39 707.25 363.87 709.15
  Q 381.93 714.44 394.32 717.10
  Q 420.49 722.72 451.30 724.96
  Q 456.78 725.36 460.72 725.19
  C 468.61 724.84 477.09 725.00 484.25 724.52
  Q 520.96 722.04 557.00 712.38
  C 560.94 711.33 564.07 710.06 567.52 709.27
  Q 571.59 708.35 575.40 706.91
  Q 594.08 699.82 611.69 692.10
  C 616.62 689.94 621.08 687.06 626.18 684.65
  Q 630.09 682.81 636.78 678.62
  Q 649.81 670.45 660.93 662.73
  Q 665.58 659.50 670.25 655.40
  C 675.58 650.74 683.06 645.20 687.70 640.28
  Q 692.43 635.25 695.67 632.35
  Q 699.54 628.88 703.95 623.31
  C 706.66 619.88 712.12 614.11 715.41 608.87
  Q 717.03 606.30 718.97 603.89
  Q 725.32 596.06 729.96 586.46
  Q 732.51 581.18 734.04 578.44
  Q 737.41 572.38 738.20 570.47
  Q 742.35 560.47 744.68 553.45
  Q 748.06 543.25 750.67 528.90
  Q 755.04 504.86 750.83 480.57"
/>
<path stroke="#f06a4f" vector-effect="non-scaling-stroke" d="
  M 750.83 480.57
  Q 746.99 456.73 736.92 434.70
  Q 734.90 430.28 731.74 424.96
  C 726.68 416.44 722.07 408.94 716.25 402.50
  C 714.58 400.64 713.44 398.44 711.52 396.46
  Q 697.69 382.19 687.70 374.56
  Q 676.08 365.69 664.38 360.12
  Q 656.80 356.51 647.53 354.72"
/>
<path stroke="#f0644a" vector-effect="non-scaling-stroke" d="
  M 647.53 354.72
  L 636.91 354.43
  A 0.91 0.90 74.6 0 1 636.16 354.00
  Q 633.96 350.38 630.68 347.95
  A 1.58 1.53 -24.9 0 0 629.82 347.65
  C 623.34 347.42 615.64 347.72 609.89 350.60
  A 1.57 1.56 60.3 0 0 609.28 352.85
  Q 613.83 359.89 617.06 365.42
  Q 617.91 366.89 619.32 370.88"
/>
<path stroke="#f06a4f" vector-effect="non-scaling-stroke" d="
  M 619.32 370.88
  C 623.59 385.01 618.75 401.73 604.02 407.26
  Q 598.13 409.47 593.09 409.58
  Q 588.67 409.67 581.47 409.03
  C 572.72 408.26 564.09 404.91 556.60 400.92
  C 553.12 399.07 547.10 395.62 542.93 392.44
  Q 537.27 388.12 532.67 384.87
  C 522.29 377.55 506.13 370.28 493.64 373.70
  Q 490.62 374.53 483.73 379.49
  Q 475.88 385.14 472.24 387.24
  Q 454.90 397.27 434.74 400.88
  Q 423.25 402.94 413.28 400.21
  Q 405.99 398.21 403.94 392.20"
/>
<path stroke="#fe7d5c" vector-effect="non-scaling-stroke" d="
  M 619.32 370.88
  Q 622.38 361.56 631.29 357.26
  Q 639.03 353.53 647.53 354.72"
/>
<path stroke="#fe7d5c" vector-effect="non-scaling-stroke" d="
  M 750.83 480.57
  C 734.92 488.72 719.33 494.30 703.73 496.47
  C 686.10 498.92 675.22 500.30 660.92 505.50"
/>
<path stroke="#a6503c" vector-effect="non-scaling-stroke" d="
  M 660.92 505.50
  Q 658.49 492.33 649.85 484.14
  C 637.23 472.18 618.32 471.32 604.92 481.99
  Q 597.02 488.28 593.13 498.56"
/>
<path stroke="#fe7d5c" vector-effect="non-scaling-stroke" d="
  M 593.13 498.56
  C 573.19 491.61 556.78 502.40 544.03 517.22"
/>
<path stroke="#a6503c" vector-effect="non-scaling-stroke" d="
  M 544.03 517.22
  Q 541.93 516.95 540.46 517.92
  Q 528.36 525.97 514.29 527.99
  C 499.27 530.15 482.72 527.70 469.95 519.60
  Q 466.09 517.16 464.80 517.16
  Q 461.77 517.16 460.08 520.02
  A 3.13 2.90 -27.2 0 0 459.72 521.01
  Q 458.30 529.45 458.72 538.29"
/>
<path stroke="#fe7d5c" vector-effect="non-scaling-stroke" d="
  M 458.72 538.29
  C 455.24 527.94 450.89 517.65 441.31 511.51
  C 436.15 508.21 426.81 505.82 421.89 511.39
  Q 419.51 514.08 417.26 519.07"
/>
<path stroke="#a6503c" vector-effect="non-scaling-stroke" d="
  M 417.26 519.07
  Q 418.91 501.61 409.71 488.89
  C 398.07 472.81 374.25 469.53 359.23 483.27
  C 346.48 494.92 343.56 513.68 348.47 529.77"
/>
<path stroke="#fe7d5c" vector-effect="non-scaling-stroke" d="
  M 348.47 529.77
  Q 346.55 527.01 344.68 524.21
  C 338.03 514.22 328.41 510.22 316.93 508.10
  C 302.71 505.46 275.85 501.85 255.80 496.45
  C 247.31 494.17 239.56 490.81 231.47 487.82
  Q 224.97 485.41 218.04 486.24
  A 0.45 0.45 0.0 0 1 217.54 485.80
  L 217.49 484.04"
/>
<path stroke="#a6503c" vector-effect="non-scaling-stroke" d="
  M 259.83 396.58
  Q 271.37 382.09 285.07 369.77"
/>
<path stroke="#a23428" vector-effect="non-scaling-stroke" d="
  M 367.81 321.07
  Q 357.68 324.31 348.19 329.02"
/>
<path stroke="#b04d3a" vector-effect="non-scaling-stroke" d="
  M 348.19 329.02
  C 337.16 333.80 327.31 339.54 316.56 346.07
  Q 310.64 349.66 304.28 354.43
  C 295.70 360.87 291.42 363.94 285.07 369.77"
/>
<path stroke="#581915" vector-effect="non-scaling-stroke" d="
  M 285.07 369.77
  Q 282.18 370.70 279.78 372.57
  C 273.10 377.78 268.39 384.52 262.56 390.54
  Q 260.34 392.83 259.83 396.58"
/>
<path stroke="#b04d3a" vector-effect="non-scaling-stroke" d="
  M 259.83 396.58
  Q 251.36 407.63 247.30 413.78
  Q 237.82 428.15 229.77 446.48
  Q 221.79 464.66 217.49 484.04"
/>
<path stroke="#b04635" vector-effect="non-scaling-stroke" d="
  M 217.49 484.04
  Q 213.45 501.37 212.43 514.63
  Q 208.98 559.37 224.35 602.82
  C 226.00 607.47 228.13 612.14 230.22 616.73"
/>
<path stroke="#a23428" vector-effect="non-scaling-stroke" d="
  M 230.22 616.73
  Q 234.22 627.05 238.34 633.41
  C 243.64 641.60 248.48 649.87 253.98 656.88
  Q 265.10 671.06 276.57 682.20
  Q 286.93 692.27 295.69 698.32
  Q 300.13 701.39 303.48 704.05
  Q 308.18 707.78 311.10 709.56
  Q 329.87 721.00 338.58 724.90
  Q 354.97 732.24 362.13 734.83
  Q 389.55 744.74 416.30 749.92
  C 461.48 758.67 508.47 760.44 555.00 757.16
  Q 571.24 756.02 594.01 752.25
  C 601.01 751.09 611.38 748.74 620.01 746.97
  Q 630.55 744.80 646.39 739.83
  C 655.56 736.96 662.39 734.11 673.71 729.72
  Q 679.72 727.39 703.12 715.19
  C 706.99 713.18 710.09 710.79 713.97 708.58
  C 717.83 706.38 722.56 702.24 727.10 699.37
  Q 729.58 697.80 732.27 695.44
  Q 736.99 691.28 741.68 687.22
  Q 748.60 681.20 750.75 678.66
  C 754.08 674.71 760.42 668.68 764.74 662.75
  Q 766.50 660.32 769.85 656.35
  Q 775.98 649.06 781.40 640.15
  C 799.37 610.57 810.40 575.77 811.63 541.16
  C 812.70 511.22 807.90 481.47 796.78 453.47
  C 786.99 428.79 772.83 405.33 754.78 386.12"
/>
<path stroke="#b04635" vector-effect="non-scaling-stroke" d="
  M 754.78 386.12
  Q 734.10 363.08 707.53 346.64"
/>
<path stroke="#a23428" vector-effect="non-scaling-stroke" d="
  M 707.53 346.64
  Q 689.34 334.59 668.69 327.32"
/>
<path stroke="#aa7871" vector-effect="non-scaling-stroke" d="
  M 671.26 743.92
  Q 646.84 752.54 630.07 756.85
  C 602.59 763.90 574.37 767.46 546.39 769.52
  C 521.93 771.32 499.62 770.75 471.75 768.77
  Q 427.36 765.61 391.54 756.40
  C 379.08 753.20 365.26 748.62 354.31 744.43
  Q 342.15 739.79 327.43 732.38"
/>
<path stroke="#581915" vector-effect="non-scaling-stroke" d="
  M 229.87 420.21
  L 230.06 420.46
  A 0.29 0.29 0.0 0 0 230.53 420.45
  L 249.90 391.56
  A 0.28 0.27 23.2 0 0 249.73 391.14
  Q 249.70 391.13 249.42 391.03"
/>
<path stroke="#a64937" vector-effect="non-scaling-stroke" d="
  M 458.72 538.29
  C 459.81 554.12 466.47 570.61 479.60 579.29
  C 496.81 590.67 521.39 588.87 535.58 572.81
  C 547.61 559.20 551.08 539.34 548.14 521.84
  C 547.72 519.38 546.40 517.79 544.03 517.22"
/>
<path stroke="#a64937" vector-effect="non-scaling-stroke" d="
  M 417.26 519.07
  Q 416.52 529.60 410.67 538.72
  C 398.20 558.20 371.22 560.44 355.97 543.05
  Q 351.32 537.75 348.47 529.77"
/>
<path stroke="#a64937" vector-effect="non-scaling-stroke" d="
  M 660.92 505.50
  C 663.97 522.11 658.81 539.57 644.92 549.17
  C 632.40 557.81 615.54 556.54 604.16 546.99
  C 590.25 535.31 587.30 515.06 593.13 498.56"
/>
<path stroke="#5e581f" vector-effect="non-scaling-stroke" d="
  M 347.30 281.89
  Q 343.04 284.96 350.93 290.59
  Q 359.45 296.66 363.66 298.60
  Q 386.11 309.00 410.26 311.70
  Q 419.62 312.74 437.09 313.39
  A 2.56 2.47 -53.8 0 0 438.12 313.21
  C 443.53 311.04 448.01 308.08 454.44 307.48"
/>
<path stroke="#6b6623" vector-effect="non-scaling-stroke" d="
  M 454.44 307.48
  Q 456.51 307.81 457.44 309.23
  C 459.61 312.56 452.66 315.78 449.30 317.81
  Q 436.58 325.50 425.73 335.61
  Q 420.61 340.38 416.50 345.58
  C 411.17 352.32 406.17 359.53 403.59 367.67"
/>
<path stroke="#5e581f" vector-effect="non-scaling-stroke" d="
  M 403.59 367.67
  C 402.37 371.07 400.33 380.86 406.29 381.11
  C 417.66 381.59 427.99 377.21 437.92 372.50
  Q 442.98 370.10 449.72 365.34
  Q 462.00 356.68 470.74 348.60
  C 473.89 345.68 476.52 342.52 480.15 338.66
  Q 484.60 333.93 490.27 324.52
  Q 492.15 321.41 492.89 318.07
  Q 493.32 316.15 495.45 315.48
  C 499.04 314.34 499.79 318.44 500.63 320.87
  Q 501.58 323.62 501.85 324.19
  C 507.84 336.91 516.18 348.83 526.75 358.47
  Q 535.20 366.17 536.39 367.11
  Q 550.35 378.15 567.63 384.91
  C 573.21 387.09 584.03 391.05 589.20 387.45
  C 592.71 385.02 591.19 377.56 590.04 374.21
  Q 585.91 362.14 578.78 352.43"
/>
<path stroke="#6b6623" vector-effect="non-scaling-stroke" d="
  M 578.78 352.43
  C 566.49 337.04 551.81 324.75 535.01 314.44
  A 2.91 2.90 -64.0 0 1 533.81 310.94
  C 534.48 309.14 537.18 308.48 539.60 307.64
  A 7.03 6.91 18.9 0 0 541.02 306.96
  C 545.59 304.08 551.14 301.29 555.40 298.02
  C 563.70 291.68 569.53 286.41 575.34 278.58
  C 582.73 268.64 589.39 258.41 589.72 246.26
  C 589.80 243.33 589.42 238.34 586.06 237.65
  Q 583.98 237.23 581.24 237.70
  C 570.70 239.50 561.08 244.08 551.66 249.82
  C 546.93 252.70 543.95 255.24 539.19 258.95
  Q 526.16 269.13 515.30 284.29
  Q 511.53 289.55 508.85 295.35
  C 507.39 298.50 504.16 298.11 503.83 294.66
  Q 502.72 283.23 498.43 271.03
  Q 492.95 255.43 480.38 238.64
  Q 477.82 235.22 473.02 232.01
  Q 468.21 228.79 466.20 233.43
  Q 461.76 243.64 461.72 254.52
  Q 461.69 263.19 463.77 274.50
  C 464.95 280.93 468.41 288.75 471.20 295.30
  Q 471.81 296.73 471.04 297.91
  A 1.85 1.79 34.1 0 1 468.47 298.36
  Q 464.60 295.67 459.23 291.65
  C 454.90 288.40 451.40 286.79 446.38 284.63
  Q 417.23 272.11 385.70 272.72
  C 379.35 272.84 371.94 273.89 366.01 275.04
  Q 356.99 276.79 347.30 281.89"
/>
<path stroke="#7ca22b" vector-effect="non-scaling-stroke" d="
  M 578.78 352.43
  C 574.03 358.91 571.13 362.25 563.73 364.56
  A 1.48 1.48 0.0 0 1 562.73 364.50
  C 546.05 357.24 529.04 345.89 517.17 331.78
  Q 510.21 323.49 506.02 316.67
  A 1.26 1.25 -8.1 0 0 505.28 316.12
  Q 500.79 314.94 496.59 315.25
  C 490.09 315.74 483.91 312.76 479.88 319.39
  C 476.81 324.44 474.41 328.26 470.45 332.36
  Q 462.63 340.47 460.40 342.40
  Q 457.04 345.32 446.01 353.49
  C 443.15 355.61 439.57 357.00 437.13 358.43
  Q 421.96 367.31 404.53 369.36
  A 0.77 0.75 73.3 0 1 403.75 368.93
  Q 403.58 368.58 403.59 367.67"
/>
<path stroke="#7ca22b" vector-effect="non-scaling-stroke" d="
  M 454.44 307.48
  Q 454.12 301.75 450.07 297.19
  A 0.97 0.95 -24.7 0 0 449.18 296.87
  Q 417.66 302.21 386.56 296.46
  Q 378.52 294.98 368.28 290.95
  C 364.54 289.48 360.11 284.90 356.78 284.22
  Q 352.44 283.33 347.30 281.89"
/>
<path stroke="#5e581f" vector-effect="non-scaling-stroke" d="
  M 542.06 311.18
  Q 542.17 311.74 542.80 311.97
  C 548.60 314.06 554.59 317.73 561.22 318.73
  C 579.75 321.54 597.74 321.92 616.99 321.19
  Q 631.58 320.64 655.23 316.45
  Q 663.18 315.05 673.12 311.36
  C 678.64 309.32 683.58 307.44 686.57 303.88
  A 0.87 0.86 -51.1 0 0 686.44 302.64
  Q 685.27 301.73 683.70 301.04
  Q 676.97 298.09 669.31 296.45
  C 663.78 295.26 657.94 293.94 652.17 293.48
  Q 617.47 290.70 583.56 297.36
  C 570.05 300.02 559.81 303.72 546.54 309.29
  A 6.25 5.92 -60.6 0 1 545.37 309.65
  Q 543.22 310.07 542.60 310.28
  Q 541.92 310.50 542.06 311.18"
/>
<path stroke="#ff9271" vector-effect="non-scaling-stroke" d="
  M 358.11 555.79
  Q 357.78 555.18 357.06 554.67
  C 346.28 547.04 330.86 543.93 318.08 545.34
  C 305.04 546.77 294.36 557.60 300.21 571.04
  Q 304.53 580.95 314.11 585.67
  C 324.17 590.62 334.31 593.23 346.19 592.36
  C 354.70 591.74 364.95 587.88 368.75 579.47
  C 372.31 571.58 366.55 563.34 360.66 557.39
  Q 360.30 557.04 359.67 556.79
  Q 358.64 556.37 358.48 556.24
  A 1.54 1.50 6.3 0 1 358.11 555.79"
/>
<path stroke="#ff9271" vector-effect="non-scaling-stroke" d="
  M 637.83 578.08
  C 640.37 587.98 653.61 591.99 662.45 592.36
  Q 682.41 593.20 698.33 582.17
  C 705.62 577.12 710.89 568.73 708.63 559.92
  C 706.37 551.12 697.72 546.30 688.90 545.38
  Q 669.63 543.37 652.54 553.70
  C 644.97 558.28 635.29 568.17 637.83 578.08"
/>
<path stroke="#97372a" vector-effect="non-scaling-stroke" d="
  M 503.99 553.06
  Q 502.25 553.14 500.52 553.27
  Q 485.57 554.46 476.57 565.75
  A 1.77 1.77 0.0 0 0 476.72 568.11
  C 484.31 575.55 494.28 579.59 505.09 579.14
  C 515.89 578.68 525.49 573.82 532.43 565.77
  A 1.77 1.77 0.0 0 0 532.38 563.40
  Q 522.46 552.91 507.46 552.98
  Q 505.73 552.99 503.99 553.06"
/>
</g>
<path fill="#4d1c17" d="
  M 681.93 319.88
  Q 681.06 322.37 678.89 324.94
  C 676.40 327.89 672.66 327.75 668.69 327.32
  L 662.63 326.09
  A 2.20 2.08 41.6 0 0 661.65 326.12
  Q 650.17 329.32 641.25 330.52
  Q 609.13 334.83 575.94 332.13
  A 0.26 0.26 0.0 0 0 575.73 332.57
  C 579.87 336.88 584.22 340.83 587.83 345.65
  Q 595.43 355.82 599.81 366.93
  C 603.83 377.11 605.56 394.30 591.33 398.28
  C 581.59 401.01 570.38 398.38 561.08 394.48
  Q 522.13 378.12 499.34 343.19
  Q 498.11 341.31 496.35 337.83
  A 0.61 0.60 -40.9 0 0 495.32 337.76
  C 486.21 350.51 475.54 361.27 461.70 371.18
  Q 450.98 378.86 435.70 386.18
  Q 421.03 393.20 403.94 392.20
  Q 397.70 390.82 394.23 385.85
  C 388.02 376.94 391.62 364.13 396.21 355.27
  Q 406.09 338.08 420.86 324.95
  A 0.43 0.42 25.2 0 0 420.59 324.21
  Q 400.84 323.56 382.21 317.17
  A 4.18 4.15 -44.6 0 0 379.56 317.16
  L 367.81 321.07
  C 367.47 316.76 365.08 313.79 362.17 310.60
  Q 362.73 310.39 362.82 310.10
  Q 363.00 309.58 362.46 309.44
  C 355.91 307.74 350.28 304.11 344.28 299.74
  C 336.59 294.13 329.26 285.15 336.68 275.94
  Q 340.52 271.18 347.96 268.17
  C 374.44 257.48 406.18 259.25 433.33 267.30
  C 439.50 269.14 445.48 271.01 450.80 274.15
  A 0.50 0.50 0.0 0 0 451.54 273.63
  Q 448.12 254.95 452.11 237.41
  C 453.52 231.21 457.61 222.19 464.16 220.23
  C 481.32 215.07 495.79 238.14 502.13 250.87
  C 506.03 258.71 508.60 264.08 510.09 271.68
  A 0.34 0.34 0.0 0 0 510.71 271.80
  C 513.88 266.63 518.23 262.33 522.42 257.99
  C 528.31 251.87 534.14 247.56 541.86 242.08
  Q 551.44 235.29 563.40 230.43
  C 569.82 227.82 576.90 225.99 583.72 226.09
  C 597.33 226.29 602.71 235.89 601.56 248.59
  C 600.46 260.76 594.19 273.03 586.74 282.51
  Q 585.28 284.36 583.82 285.64
  A 0.41 0.40 -72.3 0 0 584.18 286.34
  Q 611.46 279.76 638.86 280.67
  Q 658.03 281.30 673.52 284.98
  C 682.37 287.09 702.04 293.58 698.63 306.18
  C 696.98 312.27 687.63 317.54 681.93 319.88
  Z
  M 347.30 281.89
  Q 343.04 284.96 350.93 290.59
  Q 359.45 296.66 363.66 298.60
  Q 386.11 309.00 410.26 311.70
  Q 419.62 312.74 437.09 313.39
  A 2.56 2.47 -53.8 0 0 438.12 313.21
  C 443.53 311.04 448.01 308.08 454.44 307.48
  Q 456.51 307.81 457.44 309.23
  C 459.61 312.56 452.66 315.78 449.30 317.81
  Q 436.58 325.50 425.73 335.61
  Q 420.61 340.38 416.50 345.58
  C 411.17 352.32 406.17 359.53 403.59 367.67
  C 402.37 371.07 400.33 380.86 406.29 381.11
  C 417.66 381.59 427.99 377.21 437.92 372.50
  Q 442.98 370.10 449.72 365.34
  Q 462.00 356.68 470.74 348.60
  C 473.89 345.68 476.52 342.52 480.15 338.66
  Q 484.60 333.93 490.27 324.52
  Q 492.15 321.41 492.89 318.07
  Q 493.32 316.15 495.45 315.48
  C 499.04 314.34 499.79 318.44 500.63 320.87
  Q 501.58 323.62 501.85 324.19
  C 507.84 336.91 516.18 348.83 526.75 358.47
  Q 535.20 366.17 536.39 367.11
  Q 550.35 378.15 567.63 384.91
  C 573.21 387.09 584.03 391.05 589.20 387.45
  C 592.71 385.02 591.19 377.56 590.04 374.21
  Q 585.91 362.14 578.78 352.43
  C 566.49 337.04 551.81 324.75 535.01 314.44
  A 2.91 2.90 -64.0 0 1 533.81 310.94
  C 534.48 309.14 537.18 308.48 539.60 307.64
  A 7.03 6.91 18.9 0 0 541.02 306.96
  C 545.59 304.08 551.14 301.29 555.40 298.02
  C 563.70 291.68 569.53 286.41 575.34 278.58
  C 582.73 268.64 589.39 258.41 589.72 246.26
  C 589.80 243.33 589.42 238.34 586.06 237.65
  Q 583.98 237.23 581.24 237.70
  C 570.70 239.50 561.08 244.08 551.66 249.82
  C 546.93 252.70 543.95 255.24 539.19 258.95
  Q 526.16 269.13 515.30 284.29
  Q 511.53 289.55 508.85 295.35
  C 507.39 298.50 504.16 298.11 503.83 294.66
  Q 502.72 283.23 498.43 271.03
  Q 492.95 255.43 480.38 238.64
  Q 477.82 235.22 473.02 232.01
  Q 468.21 228.79 466.20 233.43
  Q 461.76 243.64 461.72 254.52
  Q 461.69 263.19 463.77 274.50
  C 464.95 280.93 468.41 288.75 471.20 295.30
  Q 471.81 296.73 471.04 297.91
  A 1.85 1.79 34.1 0 1 468.47 298.36
  Q 464.60 295.67 459.23 291.65
  C 454.90 288.40 451.40 286.79 446.38 284.63
  Q 417.23 272.11 385.70 272.72
  C 379.35 272.84 371.94 273.89 366.01 275.04
  Q 356.99 276.79 347.30 281.89
  Z
  M 542.06 311.18
  Q 542.17 311.74 542.80 311.97
  C 548.60 314.06 554.59 317.73 561.22 318.73
  C 579.75 321.54 597.74 321.92 616.99 321.19
  Q 631.58 320.64 655.23 316.45
  Q 663.18 315.05 673.12 311.36
  C 678.64 309.32 683.58 307.44 686.57 303.88
  A 0.87 0.86 -51.1 0 0 686.44 302.64
  Q 685.27 301.73 683.70 301.04
  Q 676.97 298.09 669.31 296.45
  C 663.78 295.26 657.94 293.94 652.17 293.48
  Q 617.47 290.70 583.56 297.36
  C 570.05 300.02 559.81 303.72 546.54 309.29
  A 6.25 5.92 -60.6 0 1 545.37 309.65
  Q 543.22 310.07 542.60 310.28
  Q 541.92 310.50 542.06 311.18
  Z"
/>
<path fill="#88b02f" d="
  M 578.78 352.43
  C 574.03 358.91 571.13 362.25 563.73 364.56
  A 1.48 1.48 0.0 0 1 562.73 364.50
  C 546.05 357.24 529.04 345.89 517.17 331.78
  Q 510.21 323.49 506.02 316.67
  A 1.26 1.25 -8.1 0 0 505.28 316.12
  Q 500.79 314.94 496.59 315.25
  C 490.09 315.74 483.91 312.76 479.88 319.39
  C 476.81 324.44 474.41 328.26 470.45 332.36
  Q 462.63 340.47 460.40 342.40
  Q 457.04 345.32 446.01 353.49
  C 443.15 355.61 439.57 357.00 437.13 358.43
  Q 421.96 367.31 404.53 369.36
  A 0.77 0.75 73.3 0 1 403.75 368.93
  Q 403.58 368.58 403.59 367.67
  C 406.17 359.53 411.17 352.32 416.50 345.58
  Q 420.61 340.38 425.73 335.61
  Q 436.58 325.50 449.30 317.81
  C 452.66 315.78 459.61 312.56 457.44 309.23
  Q 456.51 307.81 454.44 307.48
  Q 454.12 301.75 450.07 297.19
  A 0.97 0.95 -24.7 0 0 449.18 296.87
  Q 417.66 302.21 386.56 296.46
  Q 378.52 294.98 368.28 290.95
  C 364.54 289.48 360.11 284.90 356.78 284.22
  Q 352.44 283.33 347.30 281.89
  Q 356.99 276.79 366.01 275.04
  C 371.94 273.89 379.35 272.84 385.70 272.72
  Q 417.23 272.11 446.38 284.63
  C 451.40 286.79 454.90 288.40 459.23 291.65
  Q 464.60 295.67 468.47 298.36
  A 1.85 1.79 34.1 0 0 471.04 297.91
  Q 471.81 296.73 471.20 295.30
  C 468.41 288.75 464.95 280.93 463.77 274.50
  Q 461.69 263.19 461.72 254.52
  Q 461.76 243.64 466.20 233.43
  Q 468.21 228.79 473.02 232.01
  Q 477.82 235.22 480.38 238.64
  Q 492.95 255.43 498.43 271.03
  Q 502.72 283.23 503.83 294.66
  C 504.16 298.11 507.39 298.50 508.85 295.35
  Q 511.53 289.55 515.30 284.29
  Q 526.16 269.13 539.19 258.95
  C 543.95 255.24 546.93 252.70 551.66 249.82
  C 561.08 244.08 570.70 239.50 581.24 237.70
  Q 583.98 237.23 586.06 237.65
  C 589.42 238.34 589.80 243.33 589.72 246.26
  C 589.39 258.41 582.73 268.64 575.34 278.58
  C 569.53 286.41 563.70 291.68 555.40 298.02
  C 551.14 301.29 545.59 304.08 541.02 306.96
  A 7.03 6.91 18.9 0 1 539.60 307.64
  C 537.18 308.48 534.48 309.14 533.81 310.94
  A 2.91 2.90 -64.0 0 0 535.01 314.44
  C 551.81 324.75 566.49 337.04 578.78 352.43
  Z"
/>
<path fill="#6f9426" d="
  M 347.30 281.89
  Q 352.44 283.33 356.78 284.22
  C 360.11 284.90 364.54 289.48 368.28 290.95
  Q 378.52 294.98 386.56 296.46
  Q 417.66 302.21 449.18 296.87
  A 0.97 0.95 -24.7 0 1 450.07 297.19
  Q 454.12 301.75 454.44 307.48
  C 448.01 308.08 443.53 311.04 438.12 313.21
  A 2.56 2.47 -53.8 0 1 437.09 313.39
  Q 419.62 312.74 410.26 311.70
  Q 386.11 309.00 363.66 298.60
  Q 359.45 296.66 350.93 290.59
  Q 343.04 284.96 347.30 281.89
  Z"
/>
<path fill="#6f9426" d="
  M 542.06 311.18
  Q 541.92 310.50 542.60 310.28
  Q 543.22 310.07 545.37 309.65
  A 6.25 5.92 -60.6 0 0 546.54 309.29
  C 559.81 303.72 570.05 300.02 583.56 297.36
  Q 617.47 290.70 652.17 293.48
  C 657.94 293.94 663.78 295.26 669.31 296.45
  Q 676.97 298.09 683.70 301.04
  Q 685.27 301.73 686.44 302.64
  A 0.87 0.86 -51.1 0 1 686.57 303.88
  C 683.58 307.44 678.64 309.32 673.12 311.36
  Q 663.18 315.05 655.23 316.45
  Q 631.58 320.64 616.99 321.19
  C 597.74 321.92 579.75 321.54 561.22 318.73
  C 554.59 317.73 548.60 314.06 542.80 311.97
  Q 542.17 311.74 542.06 311.18
  Z"
/>
<path fill="#621613" d="
  M 362.17 310.60
  C 365.08 313.79 367.47 316.76 367.81 321.07
  Q 357.68 324.31 348.19 329.02
  C 337.16 333.80 327.31 339.54 316.56 346.07
  Q 310.64 349.66 304.28 354.43
  C 295.70 360.87 291.42 363.94 285.07 369.77
  Q 282.18 370.70 279.78 372.57
  C 273.10 377.78 268.39 384.52 262.56 390.54
  Q 260.34 392.83 259.83 396.58
  Q 251.36 407.63 247.30 413.78
  Q 237.82 428.15 229.77 446.48
  Q 221.79 464.66 217.49 484.04
  Q 213.45 501.37 212.43 514.63
  Q 208.98 559.37 224.35 602.82
  C 226.00 607.47 228.13 612.14 230.22 616.73
  Q 234.22 627.05 238.34 633.41
  C 243.64 641.60 248.48 649.87 253.98 656.88
  Q 265.10 671.06 276.57 682.20
  Q 286.93 692.27 295.69 698.32
  Q 300.13 701.39 303.48 704.05
  Q 308.18 707.78 311.10 709.56
  Q 329.87 721.00 338.58 724.90
  Q 354.97 732.24 362.13 734.83
  Q 389.55 744.74 416.30 749.92
  C 461.48 758.67 508.47 760.44 555.00 757.16
  Q 571.24 756.02 594.01 752.25
  C 601.01 751.09 611.38 748.74 620.01 746.97
  Q 630.55 744.80 646.39 739.83
  C 655.56 736.96 662.39 734.11 673.71 729.72
  Q 679.72 727.39 703.12 715.19
  C 706.99 713.18 710.09 710.79 713.97 708.58
  C 717.83 706.38 722.56 702.24 727.10 699.37
  Q 729.58 697.80 732.27 695.44
  Q 736.99 691.28 741.68 687.22
  Q 748.60 681.20 750.75 678.66
  C 754.08 674.71 760.42 668.68 764.74 662.75
  Q 766.50 660.32 769.85 656.35
  Q 775.98 649.06 781.40 640.15
  C 799.37 610.57 810.40 575.77 811.63 541.16
  C 812.70 511.22 807.90 481.47 796.78 453.47
  C 786.99 428.79 772.83 405.33 754.78 386.12
  Q 734.10 363.08 707.53 346.64
  Q 689.34 334.59 668.69 327.32
  C 672.66 327.75 676.40 327.89 678.89 324.94
  Q 681.06 322.37 681.93 319.88
  Q 686.88 322.26 691.70 324.43
  Q 697.97 327.26 701.40 329.14
  C 747.09 354.19 783.51 393.40 804.57 441.16
  C 809.45 452.23 812.75 462.66 816.02 474.97
  C 829.65 526.29 824.56 580.85 801.21 628.25
  Q 786.70 657.69 763.71 681.95
  Q 746.42 700.19 728.45 712.68
  Q 711.24 724.64 700.73 730.23
  Q 691.33 735.24 671.26 743.92
  Q 646.84 752.54 630.07 756.85
  C 602.59 763.90 574.37 767.46 546.39 769.52
  C 521.93 771.32 499.62 770.75 471.75 768.77
  Q 427.36 765.61 391.54 756.40
  C 379.08 753.20 365.26 748.62 354.31 744.43
  Q 342.15 739.79 327.43 732.38
  Q 316.39 726.53 306.61 720.40
  C 237.98 677.46 196.20 602.46 200.44 520.70
  C 202.23 486.17 212.35 450.25 229.87 420.21
  L 230.06 420.46
  A 0.29 0.29 0.0 0 0 230.53 420.45
  L 249.90 391.56
  A 0.28 0.27 23.2 0 0 249.73 391.14
  Q 249.70 391.13 249.42 391.03
  C 256.25 381.86 264.44 373.30 272.41 365.42
  Q 276.74 361.13 290.94 349.71
  Q 311.96 332.80 340.23 319.50
  Q 352.26 313.84 362.17 310.60
  Z"
/>
<path fill="#6f9426" d="
  M 578.78 352.43
  Q 585.91 362.14 590.04 374.21
  C 591.19 377.56 592.71 385.02 589.20 387.45
  C 584.03 391.05 573.21 387.09 567.63 384.91
  Q 550.35 378.15 536.39 367.11
  Q 535.20 366.17 526.75 358.47
  C 516.18 348.83 507.84 336.91 501.85 324.19
  Q 501.58 323.62 500.63 320.87
  C 499.79 318.44 499.04 314.34 495.45 315.48
  Q 493.32 316.15 492.89 318.07
  Q 492.15 321.41 490.27 324.52
  Q 484.60 333.93 480.15 338.66
  C 476.52 342.52 473.89 345.68 470.74 348.60
  Q 462.00 356.68 449.72 365.34
  Q 442.98 370.10 437.92 372.50
  C 427.99 377.21 417.66 381.59 406.29 381.11
  C 400.33 380.86 402.37 371.07 403.59 367.67
  Q 403.58 368.58 403.75 368.93
  A 0.77 0.75 73.3 0 0 404.53 369.36
  Q 421.96 367.31 437.13 358.43
  C 439.57 357.00 443.15 355.61 446.01 353.49
  Q 457.04 345.32 460.40 342.40
  Q 462.63 340.47 470.45 332.36
  C 474.41 328.26 476.81 324.44 479.88 319.39
  C 483.91 312.76 490.09 315.74 496.59 315.25
  Q 500.79 314.94 505.28 316.12
  A 1.26 1.25 -8.1 0 1 506.02 316.67
  Q 510.21 323.49 517.17 331.78
  C 529.04 345.89 546.05 357.24 562.73 364.50
  A 1.48 1.48 0.0 0 0 563.73 364.56
  C 571.13 362.25 574.03 358.91 578.78 352.43
  Z"
/>
<path fill="#e1513d" d="
  M 396.21 355.27
  C 395.68 347.75 393.91 337.88 386.88 333.91
  C 379.26 329.60 369.12 329.92 359.01 329.92
  C 355.65 329.92 351.84 329.20 348.19 329.02
  Q 357.68 324.31 367.81 321.07
  L 379.56 317.16
  A 4.18 4.15 -44.6 0 1 382.21 317.17
  Q 400.84 323.56 420.59 324.21
  A 0.43 0.42 25.2 0 1 420.86 324.95
  Q 406.09 338.08 396.21 355.27
  Z"
/>
<path fill="#e1513d" d="
  M 668.69 327.32
  Q 689.34 334.59 707.53 346.64
  L 681.78 344.22
  A 1.38 1.36 -69.2 0 0 680.55 344.78
  C 675.61 351.62 672.78 358.73 679.50 365.93
  A 1.10 1.07 -20.0 0 0 680.28 366.28
  Q 683.84 366.41 684.49 366.25
  Q 694.16 363.87 703.43 363.11
  A 2.68 2.66 53.3 0 1 704.63 363.29
  Q 713.67 366.96 717.98 371.41
  Q 720.84 374.36 735.52 388.72
  C 740.83 393.91 745.62 400.04 750.29 404.35
  C 757.04 410.59 759.08 406.14 757.66 399.21
  Q 756.34 392.77 754.78 386.12
  C 772.83 405.33 786.99 428.79 796.78 453.47
  C 807.90 481.47 812.70 511.22 811.63 541.16
  C 810.40 575.77 799.37 610.57 781.40 640.15
  Q 775.98 649.06 769.85 656.35
  Q 766.50 660.32 764.74 662.75
  C 760.42 668.68 754.08 674.71 750.75 678.66
  Q 748.60 681.20 741.68 687.22
  Q 736.99 691.28 732.27 695.44
  Q 729.58 697.80 727.10 699.37
  C 722.56 702.24 717.83 706.38 713.97 708.58
  C 710.09 710.79 706.99 713.18 703.12 715.19
  Q 679.72 727.39 673.71 729.72
  C 662.39 734.11 655.56 736.96 646.39 739.83
  Q 630.55 744.80 620.01 746.97
  C 611.38 748.74 601.01 751.09 594.01 752.25
  Q 571.24 756.02 555.00 757.16
  C 508.47 760.44 461.48 758.67 416.30 749.92
  Q 389.55 744.74 362.13 734.83
  Q 354.97 732.24 338.58 724.90
  Q 329.87 721.00 311.10 709.56
  Q 308.18 707.78 303.48 704.05
  Q 300.13 701.39 295.69 698.32
  Q 286.93 692.27 276.57 682.20
  Q 265.10 671.06 253.98 656.88
  C 248.48 649.87 243.64 641.60 238.34 633.41
  Q 234.22 627.05 230.22 616.73
  Q 233.04 618.88 234.88 621.89
  A 3.08 2.98 -86.3 0 0 235.49 622.61
  C 237.39 624.24 238.67 626.39 240.52 628.32
  Q 246.78 634.84 250.53 638.98
  Q 258.55 647.85 269.81 657.62
  Q 279.38 665.91 291.34 673.55
  Q 311.30 686.30 324.14 693.07
  Q 329.33 695.81 336.17 698.25
  Q 345.26 701.50 350.98 704.21
  Q 357.39 707.25 363.87 709.15
  Q 381.93 714.44 394.32 717.10
  Q 420.49 722.72 451.30 724.96
  Q 456.78 725.36 460.72 725.19
  C 468.61 724.84 477.09 725.00 484.25 724.52
  Q 520.96 722.04 557.00 712.38
  C 560.94 711.33 564.07 710.06 567.52 709.27
  Q 571.59 708.35 575.40 706.91
  Q 594.08 699.82 611.69 692.10
  C 616.62 689.94 621.08 687.06 626.18 684.65
  Q 630.09 682.81 636.78 678.62
  Q 649.81 670.45 660.93 662.73
  Q 665.58 659.50 670.25 655.40
  C 675.58 650.74 683.06 645.20 687.70 640.28
  Q 692.43 635.25 695.67 632.35
  Q 699.54 628.88 703.95 623.31
  C 706.66 619.88 712.12 614.11 715.41 608.87
  Q 717.03 606.30 718.97 603.89
  Q 725.32 596.06 729.96 586.46
  Q 732.51 581.18 734.04 578.44
  Q 737.41 572.38 738.20 570.47
  Q 742.35 560.47 744.68 553.45
  Q 748.06 543.25 750.67 528.90
  Q 755.04 504.86 750.83 480.57
  Q 746.99 456.73 736.92 434.70
  Q 734.90 430.28 731.74 424.96
  C 726.68 416.44 722.07 408.94 716.25 402.50
  C 714.58 400.64 713.44 398.44 711.52 396.46
  Q 697.69 382.19 687.70 374.56
  Q 676.08 365.69 664.38 360.12
  Q 656.80 356.51 647.53 354.72
  L 636.91 354.43
  A 0.91 0.90 74.6 0 1 636.16 354.00
  Q 633.96 350.38 630.68 347.95
  A 1.58 1.53 -24.9 0 0 629.82 347.65
  C 623.34 347.42 615.64 347.72 609.89 350.60
  A 1.57 1.56 60.3 0 0 609.28 352.85
  Q 613.83 359.89 617.06 365.42
  Q 617.91 366.89 619.32 370.88
  C 623.59 385.01 618.75 401.73 604.02 407.26
  Q 598.13 409.47 593.09 409.58
  Q 588.67 409.67 581.47 409.03
  C 572.72 408.26 564.09 404.91 556.60 400.92
  C 553.12 399.07 547.10 395.62 542.93 392.44
  Q 537.27 388.12 532.67 384.87
  C 522.29 377.55 506.13 370.28 493.64 373.70
  Q 490.62 374.53 483.73 379.49
  Q 475.88 385.14 472.24 387.24
  Q 454.90 397.27 434.74 400.88
  Q 423.25 402.94 413.28 400.21
  Q 405.99 398.21 403.94 392.20
  Q 421.03 393.20 435.70 386.18
  Q 450.98 378.86 461.70 371.18
  C 475.54 361.27 486.21 350.51 495.32 337.76
  A 0.61 0.60 -40.9 0 1 496.35 337.83
  Q 498.11 341.31 499.34 343.19
  Q 522.13 378.12 561.08 394.48
  C 570.38 398.38 581.59 401.01 591.33 398.28
  C 605.56 394.30 603.83 377.11 599.81 366.93
  Q 595.43 355.82 587.83 345.65
  C 584.22 340.83 579.87 336.88 575.73 332.57
  A 0.26 0.26 0.0 0 1 575.94 332.13
  Q 609.13 334.83 641.25 330.52
  Q 650.17 329.32 661.65 326.12
  A 2.20 2.08 41.6 0 1 662.63 326.09
  L 668.69 327.32
  Z"
/>
<path fill="#fe8361" d="
  M 348.19 329.02
  C 351.84 329.20 355.65 329.92 359.01 329.92
  C 369.12 329.92 379.26 329.60 386.88 333.91
  C 393.91 337.88 395.68 347.75 396.21 355.27
  C 391.62 364.13 388.02 376.94 394.23 385.85
  Q 397.70 390.82 403.94 392.20
  Q 405.99 398.21 413.28 400.21
  Q 423.25 402.94 434.74 400.88
  Q 454.90 397.27 472.24 387.24
  Q 475.88 385.14 483.73 379.49
  Q 490.62 374.53 493.64 373.70
  C 506.13 370.28 522.29 377.55 532.67 384.87
  Q 537.27 388.12 542.93 392.44
  C 547.10 395.62 553.12 399.07 556.60 400.92
  C 564.09 404.91 572.72 408.26 581.47 409.03
  Q 588.67 409.67 593.09 409.58
  Q 598.13 409.47 604.02 407.26
  C 618.75 401.73 623.59 385.01 619.32 370.88
  Q 622.38 361.56 631.29 357.26
  Q 639.03 353.53 647.53 354.72
  Q 656.80 356.51 664.38 360.12
  Q 676.08 365.69 687.70 374.56
  Q 697.69 382.19 711.52 396.46
  C 713.44 398.44 714.58 400.64 716.25 402.50
  C 722.07 408.94 726.68 416.44 731.74 424.96
  Q 734.90 430.28 736.92 434.70
  Q 746.99 456.73 750.83 480.57
  C 734.92 488.72 719.33 494.30 703.73 496.47
  C 686.10 498.92 675.22 500.30 660.92 505.50
  Q 658.49 492.33 649.85 484.14
  C 637.23 472.18 618.32 471.32 604.92 481.99
  Q 597.02 488.28 593.13 498.56
  C 573.19 491.61 556.78 502.40 544.03 517.22
  Q 541.93 516.95 540.46 517.92
  Q 528.36 525.97 514.29 527.99
  C 499.27 530.15 482.72 527.70 469.95 519.60
  Q 466.09 517.16 464.80 517.16
  Q 461.77 517.16 460.08 520.02
  A 3.13 2.90 -27.2 0 0 459.72 521.01
  Q 458.30 529.45 458.72 538.29
  C 455.24 527.94 450.89 517.65 441.31 511.51
  C 436.15 508.21 426.81 505.82 421.89 511.39
  Q 419.51 514.08 417.26 519.07
  Q 418.91 501.61 409.71 488.89
  C 398.07 472.81 374.25 469.53 359.23 483.27
  C 346.48 494.92 343.56 513.68 348.47 529.77
  Q 346.55 527.01 344.68 524.21
  C 338.03 514.22 328.41 510.22 316.93 508.10
  C 302.71 505.46 275.85 501.85 255.80 496.45
  C 247.31 494.17 239.56 490.81 231.47 487.82
  Q 224.97 485.41 218.04 486.24
  A 0.45 0.45 0.0 0 1 217.54 485.80
  L 217.49 484.04
  Q 221.79 464.66 229.77 446.48
  Q 237.82 428.15 247.30 413.78
  Q 251.36 407.63 259.83 396.58
  Q 271.37 382.09 285.07 369.77
  C 291.42 363.94 295.70 360.87 304.28 354.43
  Q 310.64 349.66 316.56 346.07
  C 327.31 339.54 337.16 333.80 348.19 329.02
  Z
  M 356.7540 359.8598
  A 40.92 18.57 -37.2 0 0 312.9326 369.8084
  A 40.92 18.57 -37.2 0 0 291.5660 409.3402
  A 40.92 18.57 -37.2 0 0 335.3874 399.3916
  A 40.92 18.57 -37.2 0 0 356.7540 359.8598
  Z
  M 271.73 449.83
  C 275.38 452.03 281.20 449.89 284.14 447.14
  Q 287.29 444.21 289.26 440.90
  C 292.31 435.78 292.80 427.90 287.03 424.43
  C 281.25 420.95 274.52 425.07 271.42 430.16
  Q 269.42 433.45 268.30 437.60
  C 267.25 441.49 268.08 447.63 271.73 449.83
  Z"
/>
<path fill="#fe7657" d="
  M 707.53 346.64
  Q 734.10 363.08 754.78 386.12
  Q 756.34 392.77 757.66 399.21
  C 759.08 406.14 757.04 410.59 750.29 404.35
  C 745.62 400.04 740.83 393.91 735.52 388.72
  Q 720.84 374.36 717.98 371.41
  Q 713.67 366.96 704.63 363.29
  A 2.68 2.66 53.3 0 0 703.43 363.11
  Q 694.16 363.87 684.49 366.25
  Q 683.84 366.41 680.28 366.28
  A 1.10 1.07 -20.0 0 1 679.50 365.93
  C 672.78 358.73 675.61 351.62 680.55 344.78
  A 1.38 1.36 -69.2 0 1 681.78 344.22
  L 707.53 346.64
  Z"
/>
<path fill="#fe7657" d="
  M 647.53 354.72
  Q 639.03 353.53 631.29 357.26
  Q 622.38 361.56 619.32 370.88
  Q 617.91 366.89 617.06 365.42
  Q 613.83 359.89 609.28 352.85
  A 1.57 1.56 60.3 0 1 609.89 350.60
  C 615.64 347.72 623.34 347.42 629.82 347.65
  A 1.58 1.53 -24.9 0 1 630.68 347.95
  Q 633.96 350.38 636.16 354.00
  A 0.91 0.90 74.6 0 0 636.91 354.43
  L 647.53 354.72
  Z"
/>
<path fill="#4d1c17" d="
  M 285.07 369.77
  Q 271.37 382.09 259.83 396.58
  Q 260.34 392.83 262.56 390.54
  C 268.39 384.52 273.10 377.78 279.78 372.57
  Q 282.18 370.70 285.07 369.77
  Z"
/>
<path fill="#4d1c17" d="
  M 249.42 391.03
  Q 249.70 391.13 249.73 391.14
  A 0.28 0.27 23.2 0 1 249.90 391.56
  L 230.53 420.45
  A 0.29 0.29 0.0 0 1 230.06 420.46
  L 229.87 420.21
  Q 238.50 404.86 249.42 391.03
  Z"
/>
<path fill="#4d1c17" d="
  M 417.26 519.07
  Q 416.52 529.60 410.67 538.72
  C 398.20 558.20 371.22 560.44 355.97 543.05
  Q 351.32 537.75 348.47 529.77
  C 343.56 513.68 346.48 494.92 359.23 483.27
  C 374.25 469.53 398.07 472.81 409.71 488.89
  Q 418.91 501.61 417.26 519.07
  Z
  M 384.3655 489.7057
  A 11.37 10.88 -43.0 0 0 368.6299 489.5029
  A 11.37 10.88 -43.0 0 0 367.7345 505.2143
  A 11.37 10.88 -43.0 0 0 383.4701 505.4171
  A 11.37 10.88 -43.0 0 0 384.3655 489.7057
  Z
  M 363.79 509.52
  L 360.45 506.26
  A 1.32 1.32 0.0 0 0 358.59 506.28
  L 357.95 506.94
  A 3.67 3.52 -45.7 0 0 357.91 512.02
  L 358.09 512.20
  A 3.67 3.52 -45.7 0 0 363.18 512.03
  L 363.81 511.38
  A 1.32 1.32 0.0 0 0 363.79 509.52
  Z"
/>
<path fill="#4d1c17" d="
  M 660.92 505.50
  C 663.97 522.11 658.81 539.57 644.92 549.17
  C 632.40 557.81 615.54 556.54 604.16 546.99
  C 590.25 535.31 587.30 515.06 593.13 498.56
  Q 597.02 488.28 604.92 481.99
  C 618.32 471.32 637.23 472.18 649.85 484.14
  Q 658.49 492.33 660.92 505.50
  Z
  M 628.2805 489.6951
  A 11.34 10.85 -42.8 0 0 612.5881 489.4390
  A 11.34 10.85 -42.8 0 0 611.6395 505.1049
  A 11.34 10.85 -42.8 0 0 627.3319 505.3610
  A 11.34 10.85 -42.8 0 0 628.2805 489.6951
  Z
  M 611.2082 510.4958
  A 2.20 2.20 0.0 0 0 609.3315 508.0143
  L 604.8345 507.3903
  A 2.20 2.20 0.0 0 0 602.3530 509.2670
  L 602.3118 509.5642
  A 2.20 2.20 0.0 0 0 604.1885 512.0457
  L 608.6855 512.6697
  A 2.20 2.20 0.0 0 0 611.1670 510.7930
  L 611.2082 510.4958
  Z"
/>
<path fill="#fe7657" d="
  M 348.47 529.77
  Q 351.32 537.75 355.97 543.05
  C 371.22 560.44 398.20 558.20 410.67 538.72
  Q 416.52 529.60 417.26 519.07
  Q 419.51 514.08 421.89 511.39
  C 426.81 505.82 436.15 508.21 441.31 511.51
  C 450.89 517.65 455.24 527.94 458.72 538.29
  C 459.81 554.12 466.47 570.61 479.60 579.29
  C 496.81 590.67 521.39 588.87 535.58 572.81
  C 547.61 559.20 551.08 539.34 548.14 521.84
  C 547.72 519.38 546.40 517.79 544.03 517.22
  C 556.78 502.40 573.19 491.61 593.13 498.56
  C 587.30 515.06 590.25 535.31 604.16 546.99
  C 615.54 556.54 632.40 557.81 644.92 549.17
  C 658.81 539.57 663.97 522.11 660.92 505.50
  C 675.22 500.30 686.10 498.92 703.73 496.47
  C 719.33 494.30 734.92 488.72 750.83 480.57
  Q 755.04 504.86 750.67 528.90
  Q 748.06 543.25 744.68 553.45
  Q 742.35 560.47 738.20 570.47
  Q 737.41 572.38 734.04 578.44
  Q 732.51 581.18 729.96 586.46
  Q 725.32 596.06 718.97 603.89
  Q 717.03 606.30 715.41 608.87
  C 712.12 614.11 706.66 619.88 703.95 623.31
  Q 699.54 628.88 695.67 632.35
  Q 692.43 635.25 687.70 640.28
  C 683.06 645.20 675.58 650.74 670.25 655.40
  Q 665.58 659.50 660.93 662.73
  Q 649.81 670.45 636.78 678.62
  Q 630.09 682.81 626.18 684.65
  C 621.08 687.06 616.62 689.94 611.69 692.10
  Q 594.08 699.82 575.40 706.91
  Q 571.59 708.35 567.52 709.27
  C 564.07 710.06 560.94 711.33 557.00 712.38
  Q 520.96 722.04 484.25 724.52
  C 477.09 725.00 468.61 724.84 460.72 725.19
  Q 456.78 725.36 451.30 724.96
  Q 420.49 722.72 394.32 717.10
  Q 381.93 714.44 363.87 709.15
  Q 357.39 707.25 350.98 704.21
  Q 345.26 701.50 336.17 698.25
  Q 329.33 695.81 324.14 693.07
  Q 311.30 686.30 291.34 673.55
  Q 279.38 665.91 269.81 657.62
  Q 258.55 647.85 250.53 638.98
  Q 246.78 634.84 240.52 628.32
  C 238.67 626.39 237.39 624.24 235.49 622.61
  A 3.08 2.98 -86.3 0 1 234.88 621.89
  Q 233.04 618.88 230.22 616.73
  C 228.13 612.14 226.00 607.47 224.35 602.82
  Q 208.98 559.37 212.43 514.63
  Q 213.45 501.37 217.49 484.04
  L 217.54 485.80
  A 0.45 0.45 0.0 0 0 218.04 486.24
  Q 224.97 485.41 231.47 487.82
  C 239.56 490.81 247.31 494.17 255.80 496.45
  C 275.85 501.85 302.71 505.46 316.93 508.10
  C 328.41 510.22 338.03 514.22 344.68 524.21
  Q 346.55 527.01 348.47 529.77
  Z
  M 358.11 555.79
  Q 357.78 555.18 357.06 554.67
  C 346.28 547.04 330.86 543.93 318.08 545.34
  C 305.04 546.77 294.36 557.60 300.21 571.04
  Q 304.53 580.95 314.11 585.67
  C 324.17 590.62 334.31 593.23 346.19 592.36
  C 354.70 591.74 364.95 587.88 368.75 579.47
  C 372.31 571.58 366.55 563.34 360.66 557.39
  Q 360.30 557.04 359.67 556.79
  Q 358.64 556.37 358.48 556.24
  A 1.54 1.50 6.3 0 1 358.11 555.79
  Z
  M 637.83 578.08
  C 640.37 587.98 653.61 591.99 662.45 592.36
  Q 682.41 593.20 698.33 582.17
  C 705.62 577.12 710.89 568.73 708.63 559.92
  C 706.37 551.12 697.72 546.30 688.90 545.38
  Q 669.63 543.37 652.54 553.70
  C 644.97 558.28 635.29 568.17 637.83 578.08
  Z"
/>
<path fill="#4d1c17" d="
  M 544.03 517.22
  C 546.40 517.79 547.72 519.38 548.14 521.84
  C 551.08 539.34 547.61 559.20 535.58 572.81
  C 521.39 588.87 496.81 590.67 479.60 579.29
  C 466.47 570.61 459.81 554.12 458.72 538.29
  Q 458.30 529.45 459.72 521.01
  A 3.13 2.90 -27.2 0 1 460.08 520.02
  Q 461.77 517.16 464.80 517.16
  Q 466.09 517.16 469.95 519.60
  C 482.72 527.70 499.27 530.15 514.29 527.99
  Q 528.36 525.97 540.46 517.92
  Q 541.93 516.95 544.03 517.22
  Z
  M 503.99 553.06
  Q 502.25 553.14 500.52 553.27
  Q 485.57 554.46 476.57 565.75
  A 1.77 1.77 0.0 0 0 476.72 568.11
  C 484.31 575.55 494.28 579.59 505.09 579.14
  C 515.89 578.68 525.49 573.82 532.43 565.77
  A 1.77 1.77 0.0 0 0 532.38 563.40
  Q 522.46 552.91 507.46 552.98
  Q 505.73 552.99 503.99 553.06
  Z"
/>
<path fill="#ffad8b" d="
  M 358.48 556.24
  Q 358.64 556.37 359.67 556.79
  Q 360.30 557.04 360.66 557.39
  C 366.55 563.34 372.31 571.58 368.75 579.47
  C 364.95 587.88 354.70 591.74 346.19 592.36
  C 334.31 593.23 324.17 590.62 314.11 585.67
  Q 304.53 580.95 300.21 571.04
  C 294.36 557.60 305.04 546.77 318.08 545.34
  C 330.86 543.93 346.28 547.04 357.06 554.67
  Q 357.78 555.18 358.11 555.79
  A 1.54 1.50 6.3 0 0 358.48 556.24
  Z"
/>
<path fill="#ffad8b" d="
  M 708.63 559.92
  C 710.89 568.73 705.62 577.12 698.33 582.17
  Q 682.41 593.20 662.45 592.36
  C 653.61 591.99 640.37 587.98 637.83 578.08
  C 635.29 568.17 644.97 558.28 652.54 553.70
  Q 669.63 543.37 688.90 545.38
  C 697.72 546.30 706.37 551.12 708.63 559.92
  Z"
/>
<path fill="#e1513d" d="
  M 505.09 579.14
  C 494.28 579.59 484.31 575.55 476.72 568.11
  A 1.77 1.77 0.0 0 1 476.57 565.75
  Q 485.57 554.46 500.52 553.27
  Q 502.25 553.14 503.99 553.06
  Q 505.73 552.99 507.46 552.98
  Q 522.46 552.91 532.38 563.40
  A 1.77 1.77 0.0 0 1 532.43 565.77
  C 525.49 573.82 515.89 578.68 505.09 579.14
  Z"
/>
<path fill="#f1dace" d="
  M 327.43 732.38
  Q 342.15 739.79 354.31 744.43
  C 365.26 748.62 379.08 753.20 391.54 756.40
  Q 427.36 765.61 471.75 768.77
  C 499.62 770.75 521.93 771.32 546.39 769.52
  C 574.37 767.46 602.59 763.90 630.07 756.85
  Q 646.84 752.54 671.26 743.92
  Q 686.16 740.37 700.05 732.99
  C 701.75 732.09 703.70 730.33 704.90 729.90
  A 1.38 1.35 7.8 0 0 705.52 729.44
  C 706.48 728.22 707.84 728.16 709.10 727.17
  Q 712.06 724.86 715.68 725.41
  C 736.85 728.58 758.57 732.89 778.06 741.68
  Q 781.41 743.19 785.32 746.38
  C 791.05 751.08 791.63 757.83 785.87 762.67
  Q 779.41 768.11 767.85 772.11
  C 751.41 777.79 735.45 781.04 717.88 784.08
  Q 694.79 788.08 666.49 790.95
  Q 625.39 795.13 581.25 796.16
  Q 549.88 796.89 514.25 796.47
  C 465.83 795.89 419.98 792.76 373.00 785.77
  Q 351.87 782.63 330.65 777.54
  Q 322.63 775.62 313.41 772.57
  C 305.91 770.09 296.58 766.20 291.70 760.16
  C 284.78 751.60 295.36 744.30 301.96 741.22
  Q 306.82 738.95 317.99 735.13
  Q 319.34 734.67 322.73 733.83
  Q 325.07 733.25 327.43 732.38
  Z"
/>
</svg>
