<?xml version="1.0" encoding="UTF-8" standalone="no"?>
<!DOCTYPE svg PUBLIC "-//W3C//DTD SVG 1.1//EN" "http://www.w3.org/Graphics/SVG/1.1/DTD/svg11.dtd">
<svg xmlns="http://www.w3.org/2000/svg" version="1.1" viewBox="0.00 0.00 1024.00 1024.00">
<g stroke-width="2.00" fill="none" stroke-linecap="butt">
<path stroke="#c39e87" vector-effect="non-scaling-stroke" d="
  M 879.35 521.47
  C 879.29 538.54 875.84 554.56 867.89 569.90
  Q 863.75 577.89 857.13 585.65
  C 853.08 590.40 851.03 593.09 847.27 596.45
  Q 832.41 609.74 820.06 616.53
  Q 804.62 625.02 800.10 626.85
  Q 765.33 640.93 726.99 646.48
  C 703.61 649.86 685.46 651.78 663.96 655.70
  Q 644.63 659.22 625.63 668.29
  Q 618.98 671.48 608.38 678.48
  C 591.46 689.67 573.39 699.41 554.42 706.34
  C 501.85 725.54 443.89 728.74 390.12 713.58
  C 370.22 707.96 352.73 700.23 336.53 688.70
  Q 315.80 673.96 304.32 651.19
  C 296.10 634.89 292.11 623.75 279.61 614.92
  Q 272.26 609.73 265.95 607.06
  Q 254.47 602.20 237.98 596.28
  Q 222.29 590.64 212.54 585.79
  C 188.95 574.07 169.28 557.84 155.44 534.15"
/>
<path stroke="#c39e87" vector-effect="non-scaling-stroke" d="
  M 155.85 481.49
  C 154.64 496.41 155.89 511.43 162.32 524.95
  Q 169.49 540.01 180.55 551.22
  Q 191.78 562.61 205.32 570.66
  Q 219.65 579.17 235.08 584.91
  Q 251.85 591.15 265.69 596.37
  Q 272.76 599.04 280.83 603.72
  C 293.04 610.80 301.74 622.44 307.53 634.72
  Q 312.01 644.21 315.82 651.19
  C 324.89 667.85 339.69 680.73 356.17 689.55
  Q 380.58 702.61 409.38 708.11
  Q 453.52 716.53 498.37 710.36
  C 504.57 709.50 513.62 707.58 522.29 705.55
  Q 552.76 698.41 582.15 682.60
  C 600.10 672.94 616.51 659.53 635.22 652.95
  Q 654.27 646.24 677.52 643.14
  Q 692.45 641.14 720.42 637.34
  Q 746.09 633.85 769.71 626.74
  C 783.82 622.49 795.09 617.77 808.17 611.13
  Q 828.12 601.00 842.63 586.13
  C 850.24 578.33 857.29 569.03 861.76 558.99
  Q 867.14 546.89 868.40 533.76
  Q 871.35 503.00 854.37 477.34
  Q 848.51 468.48 842.18 461.31
  Q 831.15 448.78 816.15 437.61
  Q 804.82 429.16 782.13 413.88
  Q 771.24 406.54 761.02 394.83
  C 755.20 388.16 751.38 380.25 747.95 372.05
  Q 746.30 368.10 744.06 363.86
  Q 727.03 331.69 695.12 313.13
  Q 687.14 308.50 678.75 304.54"
/>
<path stroke="#c7aa99" vector-effect="non-scaling-stroke" d="
  M 678.75 304.54
  Q 665.92 298.61 652.15 294.91
  C 636.87 290.80 621.21 287.85 605.50 287.15
  Q 585.03 286.24 564.47 288.43
  Q 558.93 289.02 547.56 291.31
  Q 534.05 294.02 530.76 294.75
  Q 522.64 296.55 502.99 303.49
  Q 499.05 304.89 481.92 312.13
  C 468.34 317.87 455.87 324.83 440.62 332.11
  Q 422.27 340.88 404.62 344.85
  Q 389.48 348.25 373.98 350.37
  C 348.57 353.85 336.06 355.26 315.03 358.11
  C 286.63 361.96 258.63 370.30 233.76 382.55
  Q 212.25 393.15 192.34 411.14
  C 189.11 414.06 186.00 418.11 182.88 421.36
  Q 178.07 426.38 170.43 438.70
  C 162.64 451.27 156.76 466.69 155.85 481.49"
/>
<path stroke="#faecda" vector-effect="non-scaling-stroke" d="
  M 678.75 304.54
  Q 679.59 306.49 680.11 306.90
  Q 694.31 318.18 703.52 331.71
  Q 716.23 350.40 719.95 375.97
  Q 721.93 389.64 731.26 401.90
  C 736.74 409.11 745.96 417.27 754.02 422.00
  C 781.56 438.16 812.73 455.79 826.83 485.73
  Q 835.65 504.46 831.06 524.20
  C 828.34 535.89 822.98 546.10 814.74 554.54
  C 811.30 558.07 808.32 561.50 804.51 564.59
  Q 787.03 578.74 765.89 587.14
  Q 752.16 592.59 744.55 594.78
  Q 724.89 600.43 701.78 604.03
  Q 696.98 604.78 678.51 607.16
  C 668.57 608.43 661.35 609.85 652.65 611.42
  Q 641.60 613.41 626.18 620.26
  C 620.04 622.98 615.72 626.04 610.51 628.83
  Q 606.48 630.98 599.34 636.18
  C 584.43 647.02 570.97 656.60 556.37 663.99
  Q 508.46 688.24 454.22 689.74
  C 432.58 690.34 409.99 687.55 390.02 681.19
  Q 376.86 677.00 370.89 673.83
  C 365.27 670.85 358.39 667.11 352.47 662.83
  Q 340.45 654.13 331.33 642.21
  Q 325.00 633.94 319.14 620.67
  Q 315.94 613.41 314.67 610.94
  Q 310.73 603.28 309.43 601.61
  Q 297.88 586.78 283.26 581.00
  Q 271.86 576.49 241.36 567.14
  Q 229.77 563.58 215.29 557.01
  C 209.30 554.29 202.56 549.93 197.76 546.75
  Q 169.90 528.24 159.06 496.47
  Q 156.55 489.11 155.85 481.49"
/>
<path stroke="#faecda" vector-effect="non-scaling-stroke" d="
  M 484.22 548.11
  Q 494.06 551.36 502.03 552.70
  Q 519.19 555.61 537.75 554.77
  Q 553.97 554.03 559.50 553.45
  Q 568.12 552.55 577.70 550.31
  Q 589.28 547.60 595.56 545.62
  Q 614.57 539.63 628.34 531.10
  Q 637.68 525.32 647.41 515.81
  C 652.19 511.14 656.66 504.03 659.39 497.94
  Q 664.94 485.55 664.23 471.77
  Q 663.16 450.89 651.26 433.24
  Q 645.30 424.40 638.85 419.01"
/>
<path stroke="#d3ac8b" vector-effect="non-scaling-stroke" d="
  M 638.85 419.01
  Q 627.53 393.86 605.18 376.29
  Q 589.18 363.71 569.95 355.82
  Q 541.79 344.27 512.05 342.53
  Q 465.21 339.78 424.07 358.62
  Q 412.04 364.13 401.99 371.36
  C 381.90 385.81 364.64 404.52 357.49 428.76
  C 353.55 442.11 353.27 455.48 357.54 469.34
  Q 364.14 490.74 380.72 506.78
  Q 399.44 524.90 424.48 534.50
  Q 453.38 545.58 484.22 548.11"
/>
<path stroke="#cea079" vector-effect="non-scaling-stroke" d="
  M 638.85 419.01
  C 645.39 436.68 647.57 453.79 641.72 471.75
  C 637.69 484.10 630.96 495.27 621.70 504.61
  Q 614.90 511.45 611.72 513.96
  C 596.65 525.84 578.82 533.96 560.21 539.44
  Q 530.71 548.12 498.76 548.10
  Q 491.47 548.10 484.22 548.11"
/>
<path stroke="#d28333" vector-effect="non-scaling-stroke" d="
  M 609.44 389.50
  Q 602.59 382.72 594.47 377.46"
/>
<path stroke="#d39438" vector-effect="non-scaling-stroke" d="
  M 594.47 377.46
  Q 593.03 376.27 589.25 374.02
  Q 575.83 366.00 564.58 361.28
  C 556.77 358.01 551.78 357.24 542.91 354.68
  Q 534.56 352.27 526.32 351.12
  Q 477.18 344.20 431.52 363.06
  Q 426.31 365.22 420.60 368.32
  Q 412.42 372.78 410.07 374.32
  C 390.77 387.01 374.18 403.80 366.10 424.77
  Q 357.50 447.10 365.07 470.34
  Q 366.96 476.16 370.76 482.38
  Q 375.16 489.59 378.16 493.63
  C 381.02 497.48 384.46 499.89 387.81 503.34
  C 391.50 507.13 395.82 510.39 400.79 514.42
  Q 402.99 516.21 406.54 518.16
  C 412.77 521.60 417.20 523.40 427.70 527.91
  C 437.52 532.13 446.81 535.26 455.77 536.93
  C 472.74 540.09 489.92 542.06 507.00 541.22
  Q 526.53 540.25 544.54 536.53
  Q 559.06 533.53 579.63 524.94
  C 587.80 521.52 596.31 516.24 603.27 511.29
  C 619.25 499.92 634.15 481.60 637.10 461.98
  Q 639.23 447.84 636.44 435.05
  C 632.65 417.71 622.54 401.51 609.44 389.50"
/>
<path stroke="#fdb741" vector-effect="non-scaling-stroke" d="
  M 594.47 377.46
  Q 594.73 380.81 596.23 383.73
  Q 610.10 410.78 597.89 437.43
  Q 595.79 442.00 592.95 445.64
  C 587.80 452.24 584.30 455.71 577.68 461.93
  Q 573.02 466.30 567.76 469.88
  Q 548.19 483.22 526.46 488.85
  Q 505.62 494.26 490.62 495.53
  Q 473.30 497.01 452.89 494.85
  Q 434.50 492.91 413.00 484.42
  C 408.04 482.46 404.51 480.05 400.47 478.28
  Q 396.24 476.44 391.68 472.82
  Q 381.80 464.97 374.54 456.22
  Q 371.06 452.01 368.92 447.29
  A 0.13 0.13 0.0 0 0 368.67 447.35
  C 368.97 454.57 370.45 460.80 372.51 468.26
  C 376.63 483.12 385.46 497.25 398.62 505.43
  Q 407.08 510.69 419.27 517.01
  Q 431.34 523.25 443.50 526.01
  C 456.61 528.99 469.64 532.18 482.44 533.05
  C 491.20 533.64 500.27 533.20 512.54 532.92
  Q 519.82 532.75 528.17 531.21
  Q 540.68 528.90 556.79 523.81
  C 566.36 520.79 573.64 516.55 582.91 511.84
  C 592.30 507.07 599.21 499.98 606.11 492.34
  C 616.11 481.26 623.74 468.55 625.73 453.78
  Q 627.15 443.32 626.88 436.86
  C 626.36 423.91 621.51 410.28 615.71 398.52
  Q 614.29 395.64 609.44 389.50"
/>
</g>
<path fill="#905c46" d="
  M 879.35 521.47
  C 879.29 538.54 875.84 554.56 867.89 569.90
  Q 863.75 577.89 857.13 585.65
  C 853.08 590.40 851.03 593.09 847.27 596.45
  Q 832.41 609.74 820.06 616.53
  Q 804.62 625.02 800.10 626.85
  Q 765.33 640.93 726.99 646.48
  C 703.61 649.86 685.46 651.78 663.96 655.70
  Q 644.63 659.22 625.63 668.29
  Q 618.98 671.48 608.38 678.48
  C 591.46 689.67 573.39 699.41 554.42 706.34
  C 501.85 725.54 443.89 728.74 390.12 713.58
  C 370.22 707.96 352.73 700.23 336.53 688.70
  Q 315.80 673.96 304.32 651.19
  C 296.10 634.89 292.11 623.75 279.61 614.92
  Q 272.26 609.73 265.95 607.06
  Q 254.47 602.20 237.98 596.28
  Q 222.29 590.64 212.54 585.79
  C 188.95 574.07 169.28 557.84 155.44 534.15
  C 142.48 509.83 142.20 480.18 151.79 454.76
  Q 160.41 431.88 176.89 413.88
  C 192.30 397.03 209.62 384.50 229.86 374.41
  Q 252.92 362.91 278.69 356.51
  Q 307.70 349.30 335.32 346.41
  Q 360.15 343.80 375.25 341.53
  Q 399.43 337.90 423.11 329.56
  Q 432.45 326.27 448.29 318.42
  Q 468.79 308.25 484.32 301.60
  C 497.40 296.00 513.55 290.19 527.31 286.78
  Q 573.19 275.43 620.35 280.32
  C 642.81 282.65 661.75 287.75 681.68 296.37
  C 690.92 300.36 698.92 304.98 707.76 310.79
  Q 740.20 332.11 757.05 367.42
  C 760.27 374.16 762.05 378.55 765.06 382.95
  C 774.48 396.67 788.07 406.94 802.00 416.10
  Q 809.36 420.95 822.30 430.69
  Q 833.19 438.89 840.65 445.84
  Q 856.27 460.40 866.73 478.24
  Q 877.94 497.39 879.35 521.47
  Z
  M 155.85 481.49
  C 154.64 496.41 155.89 511.43 162.32 524.95
  Q 169.49 540.01 180.55 551.22
  Q 191.78 562.61 205.32 570.66
  Q 219.65 579.17 235.08 584.91
  Q 251.85 591.15 265.69 596.37
  Q 272.76 599.04 280.83 603.72
  C 293.04 610.80 301.74 622.44 307.53 634.72
  Q 312.01 644.21 315.82 651.19
  C 324.89 667.85 339.69 680.73 356.17 689.55
  Q 380.58 702.61 409.38 708.11
  Q 453.52 716.53 498.37 710.36
  C 504.57 709.50 513.62 707.58 522.29 705.55
  Q 552.76 698.41 582.15 682.60
  C 600.10 672.94 616.51 659.53 635.22 652.95
  Q 654.27 646.24 677.52 643.14
  Q 692.45 641.14 720.42 637.34
  Q 746.09 633.85 769.71 626.74
  C 783.82 622.49 795.09 617.77 808.17 611.13
  Q 828.12 601.00 842.63 586.13
  C 850.24 578.33 857.29 569.03 861.76 558.99
  Q 867.14 546.89 868.40 533.76
  Q 871.35 503.00 854.37 477.34
  Q 848.51 468.48 842.18 461.31
  Q 831.15 448.78 816.15 437.61
  Q 804.82 429.16 782.13 413.88
  Q 771.24 406.54 761.02 394.83
  C 755.20 388.16 751.38 380.25 747.95 372.05
  Q 746.30 368.10 744.06 363.86
  Q 727.03 331.69 695.12 313.13
  Q 687.14 308.50 678.75 304.54
  Q 665.92 298.61 652.15 294.91
  C 636.87 290.80 621.21 287.85 605.50 287.15
  Q 585.03 286.24 564.47 288.43
  Q 558.93 289.02 547.56 291.31
  Q 534.05 294.02 530.76 294.75
  Q 522.64 296.55 502.99 303.49
  Q 499.05 304.89 481.92 312.13
  C 468.34 317.87 455.87 324.83 440.62 332.11
  Q 422.27 340.88 404.62 344.85
  Q 389.48 348.25 373.98 350.37
  C 348.57 353.85 336.06 355.26 315.03 358.11
  C 286.63 361.96 258.63 370.30 233.76 382.55
  Q 212.25 393.15 192.34 411.14
  C 189.11 414.06 186.00 418.11 182.88 421.36
  Q 178.07 426.38 170.43 438.70
  C 162.64 451.27 156.76 466.69 155.85 481.49
  Z"
/>
<path fill="#fef7eb" d="
  M 678.75 304.54
  Q 679.59 306.49 680.11 306.90
  Q 694.31 318.18 703.52 331.71
  Q 716.23 350.40 719.95 375.97
  Q 721.93 389.64 731.26 401.90
  C 736.74 409.11 745.96 417.27 754.02 422.00
  C 781.56 438.16 812.73 455.79 826.83 485.73
  Q 835.65 504.46 831.06 524.20
  C 828.34 535.89 822.98 546.10 814.74 554.54
  C 811.30 558.07 808.32 561.50 804.51 564.59
  Q 787.03 578.74 765.89 587.14
  Q 752.16 592.59 744.55 594.78
  Q 724.89 600.43 701.78 604.03
  Q 696.98 604.78 678.51 607.16
  C 668.57 608.43 661.35 609.85 652.65 611.42
  Q 641.60 613.41 626.18 620.26
  C 620.04 622.98 615.72 626.04 610.51 628.83
  Q 606.48 630.98 599.34 636.18
  C 584.43 647.02 570.97 656.60 556.37 663.99
  Q 508.46 688.24 454.22 689.74
  C 432.58 690.34 409.99 687.55 390.02 681.19
  Q 376.86 677.00 370.89 673.83
  C 365.27 670.85 358.39 667.11 352.47 662.83
  Q 340.45 654.13 331.33 642.21
  Q 325.00 633.94 319.14 620.67
  Q 315.94 613.41 314.67 610.94
  Q 310.73 603.28 309.43 601.61
  Q 297.88 586.78 283.26 581.00
  Q 271.86 576.49 241.36 567.14
  Q 229.77 563.58 215.29 557.01
  C 209.30 554.29 202.56 549.93 197.76 546.75
  Q 169.90 528.24 159.06 496.47
  Q 156.55 489.11 155.85 481.49
  C 156.76 466.69 162.64 451.27 170.43 438.70
  Q 178.07 426.38 182.88 421.36
  C 186.00 418.11 189.11 414.06 192.34 411.14
  Q 212.25 393.15 233.76 382.55
  C 258.63 370.30 286.63 361.96 315.03 358.11
  C 336.06 355.26 348.57 353.85 373.98 350.37
  Q 389.48 348.25 404.62 344.85
  Q 422.27 340.88 440.62 332.11
  C 455.87 324.83 468.34 317.87 481.92 312.13
  Q 499.05 304.89 502.99 303.49
  Q 522.64 296.55 530.76 294.75
  Q 534.05 294.02 547.56 291.31
  Q 558.93 289.02 564.47 288.43
  Q 585.03 286.24 605.50 287.15
  C 621.21 287.85 636.87 290.80 652.15 294.91
  Q 665.92 298.61 678.75 304.54
  Z
  M 484.22 548.11
  Q 494.06 551.36 502.03 552.70
  Q 519.19 555.61 537.75 554.77
  Q 553.97 554.03 559.50 553.45
  Q 568.12 552.55 577.70 550.31
  Q 589.28 547.60 595.56 545.62
  Q 614.57 539.63 628.34 531.10
  Q 637.68 525.32 647.41 515.81
  C 652.19 511.14 656.66 504.03 659.39 497.94
  Q 664.94 485.55 664.23 471.77
  Q 663.16 450.89 651.26 433.24
  Q 645.30 424.40 638.85 419.01
  Q 627.53 393.86 605.18 376.29
  Q 589.18 363.71 569.95 355.82
  Q 541.79 344.27 512.05 342.53
  Q 465.21 339.78 424.07 358.62
  Q 412.04 364.13 401.99 371.36
  C 381.90 385.81 364.64 404.52 357.49 428.76
  C 353.55 442.11 353.27 455.48 357.54 469.34
  Q 364.14 490.74 380.72 506.78
  Q 399.44 524.90 424.48 534.50
  Q 453.38 545.58 484.22 548.11
  Z
  M 295.72 373.71
  L 294.96 377.82
  A 2.33 2.33 0.0 0 0 297.13 380.56
  Q 305.52 380.99 311.35 374.18
  A 1.70 1.68 64.7 0 0 311.74 373.07
  Q 311.72 371.30 310.13 369.73
  A 1.17 1.16 65.2 0 0 309.25 369.40
  Q 302.72 369.86 296.25 373.00
  A 1.00 0.98 82.2 0 0 295.72 373.71
  Z
  M 275.76 399.90
  C 275.36 387.88 258.99 390.94 252.06 393.50
  Q 233.76 400.28 220.35 414.73
  C 217.85 417.42 215.45 421.13 214.24 424.69
  C 211.32 433.31 215.90 440.23 225.09 440.30
  C 236.32 440.38 248.98 433.30 257.76 426.71
  C 265.54 420.87 276.10 410.36 275.76 399.90
  Z
  M 206.8019 441.4497
  A 10.86 7.55 -54.4 0 0 194.3411 445.8850
  A 10.86 7.55 -54.4 0 0 194.1581 459.1103
  A 10.86 7.55 -54.4 0 0 206.6189 454.6750
  A 10.86 7.55 -54.4 0 0 206.8019 441.4497
  Z
  M 358.65 625.85
  Q 359.38 634.02 364.24 640.85
  Q 374.46 655.18 389.46 662.00
  C 399.44 666.53 411.15 669.71 422.63 669.32
  C 431.34 669.03 441.29 665.24 437.38 654.68
  C 436.43 652.15 433.90 649.42 431.70 647.77
  C 423.07 641.30 414.72 638.68 403.07 635.04
  Q 389.11 630.68 368.77 625.76
  Q 364.88 624.82 360.09 624.40
  A 1.34 1.33 90.0 0 0 358.65 625.85
  Z
  M 447.9825 662.0687
  A 11.52 7.10 -178.8 0 0 459.3513 669.4084
  A 11.52 7.10 -178.8 0 0 471.0175 662.5513
  A 11.52 7.10 -178.8 0 0 459.6487 655.2116
  A 11.52 7.10 -178.8 0 0 447.9825 662.0687
  Z"
/>
<path fill="#f5e0c8" d="
  M 155.85 481.49
  Q 156.55 489.11 159.06 496.47
  Q 169.90 528.24 197.76 546.75
  C 202.56 549.93 209.30 554.29 215.29 557.01
  Q 229.77 563.58 241.36 567.14
  Q 271.86 576.49 283.26 581.00
  Q 297.88 586.78 309.43 601.61
  Q 310.73 603.28 314.67 610.94
  Q 315.94 613.41 319.14 620.67
  Q 325.00 633.94 331.33 642.21
  Q 340.45 654.13 352.47 662.83
  C 358.39 667.11 365.27 670.85 370.89 673.83
  Q 376.86 677.00 390.02 681.19
  C 409.99 687.55 432.58 690.34 454.22 689.74
  Q 508.46 688.24 556.37 663.99
  C 570.97 656.60 584.43 647.02 599.34 636.18
  Q 606.48 630.98 610.51 628.83
  C 615.72 626.04 620.04 622.98 626.18 620.26
  Q 641.60 613.41 652.65 611.42
  C 661.35 609.85 668.57 608.43 678.51 607.16
  Q 696.98 604.78 701.78 604.03
  Q 724.89 600.43 744.55 594.78
  Q 752.16 592.59 765.89 587.14
  Q 787.03 578.74 804.51 564.59
  C 808.32 561.50 811.30 558.07 814.74 554.54
  C 822.98 546.10 828.34 535.89 831.06 524.20
  Q 835.65 504.46 826.83 485.73
  C 812.73 455.79 781.56 438.16 754.02 422.00
  C 745.96 417.27 736.74 409.11 731.26 401.90
  Q 721.93 389.64 719.95 375.97
  Q 716.23 350.40 703.52 331.71
  Q 694.31 318.18 680.11 306.90
  Q 679.59 306.49 678.75 304.54
  Q 687.14 308.50 695.12 313.13
  Q 727.03 331.69 744.06 363.86
  Q 746.30 368.10 747.95 372.05
  C 751.38 380.25 755.20 388.16 761.02 394.83
  Q 771.24 406.54 782.13 413.88
  Q 804.82 429.16 816.15 437.61
  Q 831.15 448.78 842.18 461.31
  Q 848.51 468.48 854.37 477.34
  Q 871.35 503.00 868.40 533.76
  Q 867.14 546.89 861.76 558.99
  C 857.29 569.03 850.24 578.33 842.63 586.13
  Q 828.12 601.00 808.17 611.13
  C 795.09 617.77 783.82 622.49 769.71 626.74
  Q 746.09 633.85 720.42 637.34
  Q 692.45 641.14 677.52 643.14
  Q 654.27 646.24 635.22 652.95
  C 616.51 659.53 600.10 672.94 582.15 682.60
  Q 552.76 698.41 522.29 705.55
  C 513.62 707.58 504.57 709.50 498.37 710.36
  Q 453.52 716.53 409.38 708.11
  Q 380.58 702.61 356.17 689.55
  C 339.69 680.73 324.89 667.85 315.82 651.19
  Q 312.01 644.21 307.53 634.72
  C 301.74 622.44 293.04 610.80 280.83 603.72
  Q 272.76 599.04 265.69 596.37
  Q 251.85 591.15 235.08 584.91
  Q 219.65 579.17 205.32 570.66
  Q 191.78 562.61 180.55 551.22
  Q 169.49 540.01 162.32 524.95
  C 155.89 511.43 154.64 496.41 155.85 481.49
  Z"
/>
<path fill="#a7602a" d="
  M 638.85 419.01
  C 645.39 436.68 647.57 453.79 641.72 471.75
  C 637.69 484.10 630.96 495.27 621.70 504.61
  Q 614.90 511.45 611.72 513.96
  C 596.65 525.84 578.82 533.96 560.21 539.44
  Q 530.71 548.12 498.76 548.10
  Q 491.47 548.10 484.22 548.11
  Q 453.38 545.58 424.48 534.50
  Q 399.44 524.90 380.72 506.78
  Q 364.14 490.74 357.54 469.34
  C 353.27 455.48 353.55 442.11 357.49 428.76
  C 364.64 404.52 381.90 385.81 401.99 371.36
  Q 412.04 364.13 424.07 358.62
  Q 465.21 339.78 512.05 342.53
  Q 541.79 344.27 569.95 355.82
  Q 589.18 363.71 605.18 376.29
  Q 627.53 393.86 638.85 419.01
  Z
  M 609.44 389.50
  Q 602.59 382.72 594.47 377.46
  Q 593.03 376.27 589.25 374.02
  Q 575.83 366.00 564.58 361.28
  C 556.77 358.01 551.78 357.24 542.91 354.68
  Q 534.56 352.27 526.32 351.12
  Q 477.18 344.20 431.52 363.06
  Q 426.31 365.22 420.60 368.32
  Q 412.42 372.78 410.07 374.32
  C 390.77 387.01 374.18 403.80 366.10 424.77
  Q 357.50 447.10 365.07 470.34
  Q 366.96 476.16 370.76 482.38
  Q 375.16 489.59 378.16 493.63
  C 381.02 497.48 384.46 499.89 387.81 503.34
  C 391.50 507.13 395.82 510.39 400.79 514.42
  Q 402.99 516.21 406.54 518.16
  C 412.77 521.60 417.20 523.40 427.70 527.91
  C 437.52 532.13 446.81 535.26 455.77 536.93
  C 472.74 540.09 489.92 542.06 507.00 541.22
  Q 526.53 540.25 544.54 536.53
  Q 559.06 533.53 579.63 524.94
  C 587.80 521.52 596.31 516.24 603.27 511.29
  C 619.25 499.92 634.15 481.60 637.10 461.98
  Q 639.23 447.84 636.44 435.05
  C 632.65 417.71 622.54 401.51 609.44 389.50
  Z"
/>
<path fill="#fec746" d="
  M 594.47 377.46
  Q 594.73 380.81 596.23 383.73
  Q 610.10 410.78 597.89 437.43
  Q 595.79 442.00 592.95 445.64
  C 587.80 452.24 584.30 455.71 577.68 461.93
  Q 573.02 466.30 567.76 469.88
  Q 548.19 483.22 526.46 488.85
  Q 505.62 494.26 490.62 495.53
  Q 473.30 497.01 452.89 494.85
  Q 434.50 492.91 413.00 484.42
  C 408.04 482.46 404.51 480.05 400.47 478.28
  Q 396.24 476.44 391.68 472.82
  Q 381.80 464.97 374.54 456.22
  Q 371.06 452.01 368.92 447.29
  A 0.13 0.13 0.0 0 0 368.67 447.35
  C 368.97 454.57 370.45 460.80 372.51 468.26
  C 376.63 483.12 385.46 497.25 398.62 505.43
  Q 407.08 510.69 419.27 517.01
  Q 431.34 523.25 443.50 526.01
  C 456.61 528.99 469.64 532.18 482.44 533.05
  C 491.20 533.64 500.27 533.20 512.54 532.92
  Q 519.82 532.75 528.17 531.21
  Q 540.68 528.90 556.79 523.81
  C 566.36 520.79 573.64 516.55 582.91 511.84
  C 592.30 507.07 599.21 499.98 606.11 492.34
  C 616.11 481.26 623.74 468.55 625.73 453.78
  Q 627.15 443.32 626.88 436.86
  C 626.36 423.91 621.51 410.28 615.71 398.52
  Q 614.29 395.64 609.44 389.50
  C 622.54 401.51 632.65 417.71 636.44 435.05
  Q 639.23 447.84 637.10 461.98
  C 634.15 481.60 619.25 499.92 603.27 511.29
  C 596.31 516.24 587.80 521.52 579.63 524.94
  Q 559.06 533.53 544.54 536.53
  Q 526.53 540.25 507.00 541.22
  C 489.92 542.06 472.74 540.09 455.77 536.93
  C 446.81 535.26 437.52 532.13 427.70 527.91
  C 417.20 523.40 412.77 521.60 406.54 518.16
  Q 402.99 516.21 400.79 514.42
  C 395.82 510.39 391.50 507.13 387.81 503.34
  C 384.46 499.89 381.02 497.48 378.16 493.63
  Q 375.16 489.59 370.76 482.38
  Q 366.96 476.16 365.07 470.34
  Q 357.50 447.10 366.10 424.77
  C 374.18 403.80 390.77 387.01 410.07 374.32
  Q 412.42 372.78 420.60 368.32
  Q 426.31 365.22 431.52 363.06
  Q 477.18 344.20 526.32 351.12
  Q 534.56 352.27 542.91 354.68
  C 551.78 357.24 556.77 358.01 564.58 361.28
  Q 575.83 366.00 589.25 374.02
  Q 593.03 376.27 594.47 377.46
  Z
  M 473.39 367.27
  Q 469.16 368.49 466.58 372.20
  A 3.89 3.69 73.2 0 0 466.09 373.18
  C 463.69 380.33 472.12 380.28 476.75 378.94
  C 481.38 377.61 488.54 373.18 482.71 368.40
  A 3.89 3.69 74.7 0 0 481.77 367.83
  Q 477.61 366.05 473.39 367.27
  Z
  M 456.92 381.07
  C 455.77 379.04 452.22 376.77 450.25 376.48
  C 441.02 375.10 431.77 378.52 424.70 384.18
  C 419.14 388.64 414.28 393.40 412.02 399.90
  C 409.83 406.18 410.14 412.18 415.72 416.04
  C 420.19 419.13 428.53 418.11 433.27 416.53
  Q 442.17 413.56 449.10 407.63
  C 456.38 401.40 462.09 390.18 456.92 381.07
  Z"
/>
<path fill="#fca63b" d="
  M 609.44 389.50
  Q 614.29 395.64 615.71 398.52
  C 621.51 410.28 626.36 423.91 626.88 436.86
  Q 627.15 443.32 625.73 453.78
  C 623.74 468.55 616.11 481.26 606.11 492.34
  C 599.21 499.98 592.30 507.07 582.91 511.84
  C 573.64 516.55 566.36 520.79 556.79 523.81
  Q 540.68 528.90 528.17 531.21
  Q 519.82 532.75 512.54 532.92
  C 500.27 533.20 491.20 533.64 482.44 533.05
  C 469.64 532.18 456.61 528.99 443.50 526.01
  Q 431.34 523.25 419.27 517.01
  Q 407.08 510.69 398.62 505.43
  C 385.46 497.25 376.63 483.12 372.51 468.26
  C 370.45 460.80 368.97 454.57 368.67 447.35
  A 0.13 0.13 0.0 0 1 368.92 447.29
  Q 371.06 452.01 374.54 456.22
  Q 381.80 464.97 391.68 472.82
  Q 396.24 476.44 400.47 478.28
  C 404.51 480.05 408.04 482.46 413.00 484.42
  Q 434.50 492.91 452.89 494.85
  Q 473.30 497.01 490.62 495.53
  Q 505.62 494.26 526.46 488.85
  Q 548.19 483.22 567.76 469.88
  Q 573.02 466.30 577.68 461.93
  C 584.30 455.71 587.80 452.24 592.95 445.64
  Q 595.79 442.00 597.89 437.43
  Q 610.10 410.78 596.23 383.73
  Q 594.73 380.81 594.47 377.46
  Q 602.59 382.72 609.44 389.50
  Z"
/>
<path fill="#f5e0c8" d="
  M 484.22 548.11
  Q 491.47 548.10 498.76 548.10
  Q 530.71 548.12 560.21 539.44
  C 578.82 533.96 596.65 525.84 611.72 513.96
  Q 614.90 511.45 621.70 504.61
  C 630.96 495.27 637.69 484.10 641.72 471.75
  C 647.57 453.79 645.39 436.68 638.85 419.01
  Q 645.30 424.40 651.26 433.24
  Q 663.16 450.89 664.23 471.77
  Q 664.94 485.55 659.39 497.94
  C 656.66 504.03 652.19 511.14 647.41 515.81
  Q 637.68 525.32 628.34 531.10
  Q 614.57 539.63 595.56 545.62
  Q 589.28 547.60 577.70 550.31
  Q 568.12 552.55 559.50 553.45
  Q 553.97 554.03 537.75 554.77
  Q 519.19 555.61 502.03 552.70
  Q 494.06 551.36 484.22 548.11
  Z"
/>
<path fill="#f5e0c8" d="
  M 155.44 534.15
  C 169.28 557.84 188.95 574.07 212.54 585.79
  Q 222.29 590.64 237.98 596.28
  Q 254.47 602.20 265.95 607.06
  Q 272.26 609.73 279.61 614.92
  C 292.11 623.75 296.10 634.89 304.32 651.19
  Q 315.80 673.96 336.53 688.70
  C 352.73 700.23 370.22 707.96 390.12 713.58
  C 443.89 728.74 501.85 725.54 554.42 706.34
  C 573.39 699.41 591.46 689.67 608.38 678.48
  Q 618.98 671.48 625.63 668.29
  Q 644.63 659.22 663.96 655.70
  C 685.46 651.78 703.61 649.86 726.99 646.48
  Q 765.33 640.93 800.10 626.85
  Q 804.62 625.02 820.06 616.53
  Q 832.41 609.74 847.27 596.45
  C 851.03 593.09 853.08 590.40 857.13 585.65
  Q 863.75 577.89 867.89 569.90
  C 875.84 554.56 879.29 538.54 879.35 521.47
  L 881.01 522.77
  A 1.38 1.33 -79.6 0 1 881.50 523.51
  Q 884.28 533.63 885.20 539.77
  C 888.95 564.92 879.34 591.18 862.64 610.10
  Q 843.68 631.57 815.83 646.31
  Q 788.04 661.02 755.07 670.08
  Q 731.08 676.67 714.84 679.82
  C 682.60 686.07 662.89 689.11 637.94 699.08
  C 629.40 702.50 618.37 709.52 611.06 713.31
  Q 588.13 725.21 563.05 731.77
  C 513.86 744.65 462.74 747.24 413.29 736.93
  Q 387.23 731.50 366.57 722.63
  C 339.05 710.81 313.69 691.58 300.69 663.83
  Q 297.31 656.63 295.62 653.38
  Q 291.87 646.22 284.14 638.84
  C 274.20 629.35 262.52 623.32 248.23 617.45
  Q 230.34 610.11 221.96 605.79
  C 194.80 591.80 171.59 572.28 158.33 545.67
  Q 155.88 540.75 155.44 534.15
  Z"
/>
</svg>
