<?xml version="1.0" encoding="UTF-8" standalone="no"?>
<!DOCTYPE svg PUBLIC "-//W3C//DTD SVG 1.1//EN" "http://www.w3.org/Graphics/SVG/1.1/DTD/svg11.dtd">
<svg xmlns="http://www.w3.org/2000/svg" version="1.1" viewBox="0.00 0.00 1024.00 1024.00">
<g stroke-width="2.00" fill="none" stroke-linecap="butt">
<path stroke="#fe6319" vector-effect="non-scaling-stroke" d="
  M 712.28 251.40
  Q 705.32 255.03 697.69 256.05"
/>
<path stroke="#fe7420" vector-effect="non-scaling-stroke" d="
  M 697.69 256.05
  L 693.58 251.52
  A 0.29 0.29 0.0 0 0 693.10 251.82
  Q 696.37 259.88 699.34 268.17
  Q 699.88 269.69 700.69 274.28"
/>
<path stroke="#fe6319" vector-effect="non-scaling-stroke" d="
  M 700.69 274.28
  Q 700.27 276.15 699.06 277.61
  A 0.45 0.44 -43.9 0 1 698.36 277.60
  Q 689.77 266.32 680.56 256.64
  C 675.49 251.32 672.39 245.97 669.17 239.34
  Q 667.09 235.07 666.46 229.98
  Q 665.23 220.22 665.56 213.24
  A 0.46 0.45 72.0 0 0 664.82 212.86
  L 655.63 220.24
  A 2.50 2.49 82.9 0 0 654.90 221.18
  Q 651.33 229.23 648.48 247.56
  Q 646.67 259.21 637.93 270.22"
/>
<path stroke="#fe8e29" vector-effect="non-scaling-stroke" d="
  M 700.69 274.28
  Q 705.05 280.77 706.24 288.59
  A 0.20 0.20 0.0 0 1 705.91 288.78
  Q 687.09 273.46 666.88 262.70
  A 2.22 2.19 -45.8 0 0 664.73 262.74
  L 650.77 270.80
  A 0.79 0.79 0.0 0 0 650.39 271.60
  Q 650.95 275.30 653.43 288.51
  Q 655.63 300.20 652.34 310.55
  Q 651.25 313.96 647.70 320.68
  C 645.73 324.40 642.96 331.43 638.91 335.40
  Q 631.58 342.59 622.11 347.45
  Q 615.70 350.74 612.41 352.99
  Q 599.51 361.87 594.96 365.30
  A 1.09 1.09 0.0 0 1 593.40 365.04
  C 589.86 359.81 585.66 354.92 579.11 354.71
  C 574.95 354.58 571.16 354.51 567.88 356.69
  A 1.66 1.62 84.3 0 0 567.25 357.48
  Q 560.77 374.83 560.87 393.77
  A 1.68 1.62 62.5 0 1 560.60 394.68
  L 551.77 408.27"
/>
<path stroke="#fe8e29" vector-effect="non-scaling-stroke" d="
  M 697.69 256.05
  Q 710.70 270.14 718.58 281.16
  Q 723.87 288.57 728.45 300.12
  C 730.46 305.19 731.76 311.61 732.81 316.47
  A 1.98 1.95 17.1 0 0 733.30 317.38
  C 736.60 320.79 740.85 323.26 745.10 319.69"
/>
<path stroke="#fd9d40" vector-effect="non-scaling-stroke" d="
  M 704.72 406.33
  Q 704.74 401.71 707.18 397.71
  Q 711.68 390.34 716.29 383.03
  Q 719.53 377.88 717.33 372.58"
/>
<path stroke="#fec550" vector-effect="non-scaling-stroke" d="
  M 717.33 372.58
  Q 721.80 359.17 721.96 344.99
  Q 722.08 333.95 720.79 325.83
  Q 719.91 320.25 718.33 314.17
  Q 716.50 307.12 713.81 302.11
  A 0.46 0.46 0.0 0 0 713.06 302.02
  Q 712.62 302.50 712.55 303.24
  C 711.52 314.15 709.91 324.46 705.35 334.03
  A 0.16 0.16 0.0 0 1 705.04 333.95
  L 705.67 327.24
  A 1.98 1.97 -49.2 0 0 705.62 326.53
  L 701.17 307.71
  A 1.72 1.72 0.0 0 0 698.13 307.06
  L 697.16 308.33
  A 1.32 1.31 37.1 0 1 695.32 308.58
  Q 693.07 306.89 690.73 304.01
  Q 687.38 299.89 681.01 292.25
  Q 670.69 279.88 665.34 265.22
  A 0.26 0.26 0.0 0 0 664.83 265.30
  Q 664.81 267.91 665.63 272.44
  C 666.73 278.51 668.39 284.14 668.62 290.22
  Q 669.49 312.78 660.57 331.39
  Q 654.07 344.94 640.30 356.70
  Q 640.25 356.75 640.20 356.80
  Q 637.58 359.60 635.13 359.63
  A 0.45 0.44 -78.0 0 1 634.72 358.99
  L 640.48 346.94
  A 0.66 0.66 0.0 0 0 639.38 346.23
  C 635.65 350.52 631.06 354.52 625.45 357.65
  C 621.30 359.97 613.55 364.46 608.46 368.39
  Q 601.67 373.63 600.63 374.65
  Q 597.54 377.70 590.64 386.97
  A 2.76 2.56 75.3 0 0 590.25 387.70
  L 589.49 389.83
  A 0.38 0.38 0.0 0 1 588.78 389.83
  Q 584.57 378.95 581.82 370.16
  Q 581.71 369.79 581.46 369.66
  A 0.45 0.44 -68.5 0 0 580.81 369.95
  C 579.35 375.99 578.93 382.34 577.92 388.30
  C 575.23 404.12 573.66 417.20 577.18 431.41
  Q 578.31 435.93 580.25 443.53
  Q 581.31 447.66 584.25 452.49
  Q 588.70 459.83 594.77 464.70
  Q 596.41 466.02 599.75 466.98"
/>
<path stroke="#fdc360" vector-effect="non-scaling-stroke" d="
  M 717.33 372.58
  C 715.77 376.80 714.27 380.90 712.31 385.00
  Q 706.41 397.31 699.92 409.87"
/>
<path stroke="#fef4ae" vector-effect="non-scaling-stroke" d="
  M 662.48 365.27
  L 658.34 370.20
  A 3.27 3.14 -85.4 0 1 657.63 370.83
  Q 654.83 372.68 651.81 375.56
  Q 650.74 376.58 646.08 379.81
  Q 641.33 383.10 636.76 385.84
  C 626.68 391.91 618.97 400.58 614.95 411.45
  Q 614.13 413.65 614.16 415.03
  A 0.72 0.71 31.7 0 1 612.80 415.35
  C 611.29 412.27 610.66 406.81 610.86 402.81
  Q 611.35 392.62 611.54 388.86
  A 0.53 0.53 0.0 0 0 610.58 388.52
  L 606.69 393.99"
/>
<path stroke="#fae19c" vector-effect="non-scaling-stroke" d="
  M 606.69 393.99
  Q 601.56 399.22 597.98 405.66"
/>
<path stroke="#fef4ae" vector-effect="non-scaling-stroke" d="
  M 597.98 405.66
  L 596.31 402.70"
/>
<path stroke="#faeadb" vector-effect="non-scaling-stroke" d="
  M 597.98 405.66
  L 599.97 409.52
  A 0.42 0.42 0.0 0 0 600.76 409.37
  C 601.16 405.96 601.82 403.41 603.61 400.03
  Q 605.20 397.02 606.69 393.99"
/>
<path stroke="#3c4e0d" vector-effect="non-scaling-stroke" d="
  M 837.76 509.11
  Q 836.58 514.33 837.33 518.93
  A 1.52 1.52 0.0 0 1 834.46 519.84
  Q 832.37 515.55 832.15 511.23"
/>
<path stroke="#5c8017" vector-effect="non-scaling-stroke" d="
  M 832.15 511.23
  Q 831.52 503.88 829.19 497.31
  C 826.52 489.74 822.51 484.28 816.92 477.35
  Q 815.36 475.41 815.15 473.93
  Q 814.20 467.30 814.40 460.38
  Q 814.49 457.42 817.71 450.54"
/>
<path stroke="#496e13" vector-effect="non-scaling-stroke" d="
  M 817.71 450.54
  Q 821.93 443.23 826.29 438.28
  Q 834.84 428.57 835.68 427.52
  C 836.91 425.97 838.09 423.69 839.26 422.70
  C 842.83 419.70 844.12 417.16 847.61 411.73
  A 7.06 6.63 74.2 0 0 848.19 410.61
  Q 850.14 405.74 851.51 403.97
  C 853.89 400.88 858.21 395.45 860.04 390.77
  Q 864.53 379.29 867.42 370.30
  C 869.56 363.63 870.29 355.40 871.42 348.15
  C 872.19 343.18 871.55 338.14 871.29 332.51
  Q 871.19 330.37 868.88 323.60"
/>
<path stroke="#5c8017" vector-effect="non-scaling-stroke" d="
  M 868.88 323.60
  Q 866.02 313.59 862.77 308.46
  Q 859.84 303.86 855.09 299.15
  Q 849.87 294.00 843.42 291.58"
/>
<path stroke="#759520" vector-effect="non-scaling-stroke" d="
  M 843.42 291.58
  C 832.33 286.91 821.44 289.28 810.55 293.57
  Q 809.14 294.12 804.51 297.02"
/>
<path stroke="#496e13" vector-effect="non-scaling-stroke" d="
  M 804.51 297.02
  L 796.48 302.01
  A 1.26 1.24 81.1 0 0 795.93 302.78
  Q 794.38 309.24 799.55 313.38
  A 0.85 0.80 -23.1 0 0 800.04 313.56
  L 802.71 313.73
  A 1.09 1.05 65.4 0 1 803.32 313.97
  Q 805.65 315.81 807.28 314.31
  Q 812.99 309.06 814.33 308.14
  Q 824.93 300.85 837.09 305.10
  C 846.04 308.23 849.85 313.72 854.54 321.25"
/>
<path stroke="#759520" vector-effect="non-scaling-stroke" d="
  M 854.54 321.25
  Q 859.43 332.61 858.80 345.26
  Q 858.40 353.27 856.99 359.31
  Q 856.95 359.44 853.34 370.72
  C 852.12 374.54 850.02 377.76 848.35 381.89
  A 5.94 5.94 0.0 0 1 847.89 382.81
  Q 842.66 391.07 842.13 392.14
  C 840.84 394.75 838.87 396.55 837.13 399.30
  Q 835.64 401.66 833.03 404.43
  Q 825.74 412.16 821.47 416.30
  Q 819.21 418.49 817.21 419.86
  C 812.92 422.79 810.32 425.28 805.72 427.63
  C 797.70 431.71 789.05 436.15 779.49 436.43
  Q 772.57 436.63 771.15 436.67
  A 1.74 1.72 59.8 0 1 770.22 436.42
  Q 755.59 427.23 737.26 425.34
  Q 728.43 424.43 721.66 424.83"
/>
<path stroke="#3c4e0d" vector-effect="non-scaling-stroke" d="
  M 721.66 424.83
  Q 716.80 425.11 712.01 423.37
  A 0.40 0.39 24.6 0 1 711.80 422.81
  Q 712.10 422.26 711.71 421.50"
/>
<path stroke="#7ea425" vector-effect="non-scaling-stroke" d="
  M 858.14 323.48
  Q 856.73 321.65 854.54 321.25"
/>
<path stroke="#7ea425" vector-effect="non-scaling-stroke" d="
  M 731.93 444.91
  L 716.92 447.25"
/>
<path stroke="#72841f" vector-effect="non-scaling-stroke" d="
  M 716.92 447.25
  L 714.01 447.00
  A 0.40 0.39 -50.5 0 1 713.94 446.23
  Q 717.44 445.18 721.21 443.41
  A 15.33 14.74 -42.6 0 1 723.22 442.63
  Q 725.08 442.07 727.48 441.52
  C 730.08 440.92 734.65 438.29 737.27 438.06
  Q 742.34 437.61 744.21 436.98"
/>
<path stroke="#91b729" vector-effect="non-scaling-stroke" d="
  M 744.21 436.98
  Q 744.90 435.03 742.42 433.34
  Q 734.16 427.71 724.22 426.27"
/>
<path stroke="#72841f" vector-effect="non-scaling-stroke" d="
  M 724.22 426.27
  Q 722.88 425.87 721.66 424.83"
/>
<path stroke="#597015" vector-effect="non-scaling-stroke" d="
  M 724.22 426.27
  L 734.75 433.81
  A 1.75 1.64 70.1 0 0 735.20 434.04
  L 744.21 436.98"
/>
<path stroke="#465d12" vector-effect="non-scaling-stroke" d="
  M 716.92 447.25
  L 720.76 447.42
  A 2.24 2.20 57.6 0 1 721.53 447.60
  Q 724.89 449.07 729.43 449.87
  Q 739.00 451.56 746.35 458.07"
/>
<path stroke="#465d12" vector-effect="non-scaling-stroke" d="
  M 744.91 481.87
  Q 750.62 481.39 755.52 480.52
  Q 756.22 480.39 763.44 480.78
  Q 767.60 481.00 771.19 482.22
  C 780.08 485.23 786.83 488.00 792.98 493.88
  Q 793.54 494.42 798.35 499.75
  Q 802.00 503.80 803.21 506.05
  Q 807.05 513.15 808.99 516.12
  A 4.40 4.37 -68.6 0 1 809.60 517.53
  L 810.11 519.68
  A 0.38 0.37 -40.1 0 0 810.82 519.74
  L 813.28 513.96"
/>
<path stroke="#597015" vector-effect="non-scaling-stroke" d="
  M 813.28 513.96
  Q 815.99 506.76 815.95 499.01
  A 0.90 0.90 0.0 0 1 817.32 498.23
  L 823.80 502.10
  A 1.63 1.38 79.5 0 1 824.18 502.41
  L 832.15 511.23"
/>
<path stroke="#732411" vector-effect="non-scaling-stroke" d="
  M 839.55 516.81
  Q 838.40 518.12 838.18 520.67
  A 1.34 1.32 -18.7 0 1 837.73 521.57
  Q 835.90 523.17 834.40 521.33
  Q 828.97 514.65 827.07 512.92"
/>
<path stroke="#8a3023" vector-effect="non-scaling-stroke" d="
  M 827.07 512.92
  Q 824.42 509.34 820.47 506.92
  A 0.93 0.93 0.0 0 0 819.07 507.57
  L 817.36 518.62"
/>
<path stroke="#7d2414" vector-effect="non-scaling-stroke" d="
  M 817.36 518.62
  L 808.70 530.92
  A 1.08 1.06 -47.6 0 1 807.02 531.01
  Q 806.75 530.69 806.64 530.18
  Q 805.90 526.64 804.30 522.76
  Q 803.57 520.96 802.04 517.14
  Q 799.94 511.90 797.28 507.24
  C 794.50 502.40 789.79 498.57 785.66 494.83
  Q 782.11 491.61 778.94 490.23
  Q 773.43 487.83 771.23 487.51
  Q 761.91 486.15 759.50 485.74
  A 8.99 8.74 -42.6 0 0 757.02 485.67
  C 754.31 485.96 750.31 485.78 746.58 486.35
  Q 742.41 486.99 738.15 487.62"
/>
<path stroke="#9a3314" vector-effect="non-scaling-stroke" d="
  M 738.15 487.62
  Q 737.82 487.77 737.55 487.36
  A 0.79 0.79 0.0 0 1 737.98 486.16
  Q 738.69 485.95 738.91 484.98
  Q 739.70 481.54 740.54 478.39"
/>
<path stroke="#903116" vector-effect="non-scaling-stroke" d="
  M 740.54 478.39
  L 744.56 467.99
  A 1.61 1.56 -32.8 0 0 744.65 467.60
  Q 744.91 464.12 742.90 462.78
  C 738.72 460.00 735.81 457.94 731.59 456.34
  Q 718.55 451.41 703.94 450.86"
/>
<path stroke="#9b430e" vector-effect="non-scaling-stroke" d="
  M 703.94 450.86
  Q 706.89 445.90 711.25 443.96
  Q 718.00 440.95 724.94 438.53"
/>
<path stroke="#903116" vector-effect="non-scaling-stroke" d="
  M 724.94 438.53
  Q 727.18 438.29 729.22 437.60
  A 0.62 0.62 0.0 0 0 728.95 436.40
  Q 728.64 436.43 728.20 436.05
  Q 726.41 434.48 724.25 433.45"
/>
<path stroke="#732411" vector-effect="non-scaling-stroke" d="
  M 724.25 433.45
  Q 719.83 427.82 712.77 425.48
  Q 711.37 425.02 709.50 422.99"
/>
<path stroke="#91b729" vector-effect="non-scaling-stroke" d="
  M 843.42 291.58
  Q 845.30 293.77 847.48 295.01
  A 1.43 1.42 16.8 0 1 848.19 296.32
  L 848.16 296.77
  A 0.57 0.57 0.0 0 1 847.37 297.26
  Q 832.00 290.70 817.09 295.41
  Q 812.93 296.73 809.00 299.07
  Q 804.63 301.67 801.14 303.27
  Q 799.52 304.02 798.16 303.72
  Q 797.41 303.55 797.43 302.44"
/>
<path stroke="#7ea425" vector-effect="non-scaling-stroke" d="
  M 797.43 302.44
  L 804.51 297.02"
/>
<path stroke="#65901c" vector-effect="non-scaling-stroke" d="
  M 868.88 323.60
  C 866.84 331.81 867.93 339.76 866.86 347.53
  Q 864.84 362.24 861.62 371.90
  Q 859.06 379.63 854.13 388.60
  Q 852.63 391.34 851.75 393.19
  C 849.46 397.99 846.47 401.81 842.84 407.16
  C 838.54 413.53 832.94 419.19 827.39 425.89
  Q 826.44 427.04 821.59 430.77
  Q 817.75 433.72 815.75 435.60
  Q 809.23 441.74 803.07 446.05
  A 8.18 8.08 1.6 0 0 801.38 447.63
  Q 796.97 453.13 794.75 459.59
  A 0.57 0.57 0.0 0 1 794.04 459.95
  L 790.26 458.75"
/>
<path stroke="#5c8017" vector-effect="non-scaling-stroke" d="
  M 790.26 458.75
  L 782.57 452.25
  A 0.69 0.67 -39.3 0 0 781.79 452.18
  L 781.46 452.37
  A 0.51 0.50 -34.8 0 0 781.32 453.12
  L 786.07 459.11"
/>
<path stroke="#65901c" vector-effect="non-scaling-stroke" d="
  M 786.07 459.11
  Q 789.36 464.49 783.35 472.19
  A 1.21 1.21 0.0 0 1 782.52 472.64
  Q 774.70 473.41 766.81 472.72
  Q 761.33 472.24 757.86 473.82
  Q 754.55 475.32 744.91 481.87"
/>
<path stroke="#597015" vector-effect="non-scaling-stroke" d="
  M 744.91 481.87
  Q 745.03 477.44 746.61 475.13
  Q 750.06 470.05 750.91 467.70
  C 752.65 462.89 749.63 460.71 746.35 458.07"
/>
<path stroke="#65901c" vector-effect="non-scaling-stroke" d="
  M 746.35 458.07
  Q 749.88 457.65 753.43 458.69
  A 0.92 0.92 0.0 0 0 754.43 457.27
  Q 753.84 456.46 753.63 456.28
  Q 749.43 452.79 746.99 450.44
  C 742.63 446.24 737.85 444.82 731.93 444.91"
/>
<path stroke="#91b729" vector-effect="non-scaling-stroke" d="
  M 731.93 444.91
  Q 741.44 444.54 754.05 446.19
  Q 758.76 446.81 768.55 446.61
  A 0.64 0.64 0.0 0 0 769.17 446.06
  Q 769.27 445.35 769.11 444.45
  A 0.49 0.49 0.0 0 1 769.60 443.87
  Q 778.60 444.08 787.86 441.74
  C 794.06 440.17 799.20 436.96 805.60 433.51
  C 808.99 431.68 811.62 429.09 814.62 427.63
  Q 817.79 426.10 821.18 423.03
  Q 828.28 416.62 833.65 410.58
  C 835.57 408.42 836.68 405.83 838.55 403.90
  C 841.64 400.68 843.77 395.27 846.55 392.40
  A 4.49 4.32 -12.9 0 0 847.42 391.07
  Q 849.18 386.83 851.29 384.00
  Q 853.46 381.10 854.88 377.46
  Q 860.69 362.53 862.28 349.83
  Q 863.94 336.66 858.14 323.48"
/>
<path stroke="#65901c" vector-effect="non-scaling-stroke" d="
  M 858.14 323.48
  L 860.38 325.63
  A 0.38 0.38 0.0 0 0 861.01 325.44
  Q 861.50 322.94 859.88 320.54
  Q 855.51 314.11 852.93 309.90
  A 3.69 3.30 -86.8 0 0 852.45 309.30
  Q 843.32 300.35 832.60 299.21
  Q 823.11 298.20 812.73 302.77
  A 1.51 0.93 -58.3 0 0 812.53 302.87
  L 805.55 307.49
  A 1.58 1.58 0.0 0 1 803.31 306.96
  L 802.46 305.50
  A 2.38 2.38 0.0 0 0 800.56 304.30
  Q 796.04 303.96 797.43 302.44"
/>
<path stroke="#65901c" vector-effect="non-scaling-stroke" d="
  M 813.28 513.96
  Q 812.22 514.72 811.62 513.91
  A 0.81 0.80 24.7 0 1 811.47 513.51
  Q 810.82 504.92 808.43 496.18
  C 808.17 495.24 808.10 493.93 807.92 492.60
  A 1.06 1.05 -0.8 0 1 809.08 491.41
  Q 816.34 492.20 821.27 497.96
  A 0.58 0.58 0.0 0 0 822.25 497.36
  Q 818.87 489.06 814.02 481.25
  Q 812.55 478.89 809.30 477.37
  A 1.16 1.13 1.7 0 1 808.72 476.77
  L 807.77 474.50"
/>
<path stroke="#5c8017" vector-effect="non-scaling-stroke" d="
  M 807.77 474.50
  Q 809.81 473.90 811.82 474.16
  A 0.69 0.69 0.0 0 0 812.35 472.95
  Q 810.23 471.16 808.91 468.57"
/>
<path stroke="#65901c" vector-effect="non-scaling-stroke" d="
  M 817.71 450.54
  Q 817.70 449.50 817.30 448.94
  Q 816.82 448.30 815.82 448.61
  Q 814.22 449.11 813.40 450.87
  Q 809.40 459.47 808.91 468.57"
/>
<path stroke="#496e13" vector-effect="non-scaling-stroke" d="
  M 808.91 468.57
  Q 798.50 465.61 790.26 458.75"
/>
<path stroke="#f23718" vector-effect="non-scaling-stroke" d="
  M 716.22 431.11
  Q 719.36 433.00 721.46 436.07
  A 1.12 1.11 74.7 0 0 722.33 436.57
  L 723.59 436.65
  A 0.67 0.67 0.0 0 1 724.21 437.27
  Q 724.26 438.08 724.94 438.53"
/>
<path stroke="#f23718" vector-effect="non-scaling-stroke" d="
  M 703.94 450.86
  Q 703.91 453.49 707.59 454.55
  Q 710.65 455.44 713.77 456.26
  C 719.68 457.81 725.31 460.62 730.80 463.22"
/>
<path stroke="#fc3817" vector-effect="non-scaling-stroke" d="
  M 730.80 463.22
  C 721.90 476.09 712.09 488.20 702.54 500.57
  Q 700.93 502.66 696.69 506.53"
/>
<path stroke="#fe6319" vector-effect="non-scaling-stroke" d="
  M 696.69 506.53
  C 698.63 500.98 698.86 494.85 691.62 494.06
  Q 687.84 493.65 684.88 494.18
  A 2.33 2.17 20.5 0 0 684.01 494.54
  C 680.26 497.14 676.52 502.06 678.25 506.52
  A 1.86 1.86 0.0 0 0 678.83 507.32
  Q 684.48 511.86 691.68 510.98"
/>
<path stroke="#fc3817" vector-effect="non-scaling-stroke" d="
  M 691.68 510.98
  Q 676.79 528.15 662.11 545.61
  C 647.92 562.50 624.24 585.03 604.71 603.78
  C 593.74 614.31 582.97 626.20 573.35 636.18
  Q 556.60 653.58 536.07 668.17
  C 515.91 682.51 496.41 695.66 475.30 704.63
  Q 447.15 716.57 432.14 723.04
  A 3.38 3.35 -60.2 0 1 431.16 723.31
  Q 423.54 724.30 416.51 724.69
  Q 387.19 726.32 359.48 723.21
  Q 341.90 721.24 334.60 720.09
  Q 314.59 716.93 283.14 708.26
  Q 277.46 706.70 267.96 702.90
  C 256.45 698.29 245.06 694.43 234.93 689.09
  Q 219.08 680.72 201.49 668.40"
/>
<path stroke="#f23718" vector-effect="non-scaling-stroke" d="
  M 201.49 668.40
  L 198.79 666.13"
/>
<path stroke="#fc3817" vector-effect="non-scaling-stroke" d="
  M 198.79 666.13
  L 189.08 656.27"
/>
<path stroke="#f13d0d" vector-effect="non-scaling-stroke" d="
  M 189.08 656.27
  C 194.38 652.40 200.41 652.47 206.41 654.56
  C 214.34 657.33 222.27 660.89 230.63 662.67
  Q 233.46 663.28 250.57 667.21
  C 262.90 670.05 274.08 670.45 284.79 671.48
  Q 294.70 672.44 302.36 672.23
  C 313.69 671.92 323.08 672.47 333.22 671.26
  Q 349.38 669.33 354.36 668.31
  Q 363.37 666.46 376.56 663.83
  C 382.78 662.59 390.36 659.36 397.66 656.93
  Q 415.46 651.01 421.22 648.68
  Q 433.20 643.81 456.25 631.72
  C 463.63 627.85 470.94 622.50 479.33 617.78
  Q 486.21 613.92 494.55 607.92
  Q 507.16 598.85 509.14 597.10
  Q 523.23 584.67 529.10 579.59
  C 535.06 574.44 540.90 568.22 546.33 562.08
  C 551.07 556.73 558.18 550.98 562.49 545.73
  Q 572.00 534.14 579.68 525.21
  Q 582.37 522.09 592.50 507.51
  Q 595.21 503.62 604.83 492.34
  C 606.16 490.79 607.23 488.46 608.66 486.76
  Q 619.38 474.03 628.88 464.14
  Q 630.68 462.27 633.09 460.37
  Q 635.60 458.39 637.53 456.81
  Q 649.94 446.65 664.50 439.73"
/>
<path stroke="#de191d" vector-effect="non-scaling-stroke" d="
  M 738.15 487.62
  Q 740.62 489.22 743.38 489.50
  Q 747.98 489.97 752.45 491.05"
/>
<path stroke="#f1271f" vector-effect="non-scaling-stroke" d="
  M 752.45 491.05
  L 754.05 492.13
  A 1.00 0.99 -74.1 0 1 754.48 492.91
  Q 755.04 513.11 746.34 531.33
  Q 740.32 543.93 732.79 555.87
  C 718.35 578.78 699.30 599.40 679.04 616.65
  Q 674.64 620.39 671.73 623.16
  Q 667.23 627.43 664.40 629.64
  Q 635.43 652.30 604.79 669.77
  Q 592.63 676.71 581.58 681.76
  Q 562.78 690.35 557.75 692.48
  Q 547.34 696.87 520.57 705.51
  C 496.95 713.13 471.48 717.97 445.47 721.89
  A 1.18 1.14 -75.3 0 0 444.71 722.35
  L 436.69 732.97"
/>
<path stroke="#de191d" vector-effect="non-scaling-stroke" d="
  M 436.69 732.97
  Q 409.33 735.96 383.24 734.25
  Q 369.33 733.33 350.52 731.18"
/>
<path stroke="#f1271f" vector-effect="non-scaling-stroke" d="
  M 350.52 731.18
  Q 340.79 729.42 330.97 728.27
  Q 327.68 727.88 310.67 723.50
  Q 305.44 722.15 301.67 721.33
  C 292.37 719.31 283.92 716.31 274.08 713.07
  Q 268.87 711.36 264.67 709.54
  C 257.56 706.47 252.24 704.93 246.31 701.89
  Q 244.90 701.16 237.50 697.48
  Q 233.06 695.27 227.34 691.09
  Q 222.07 687.25 217.43 684.37
  Q 212.92 681.57 204.40 674.72
  Q 203.15 673.72 201.77 671.93
  A 1.41 1.41 0.0 0 1 201.51 670.79
  Q 201.76 669.59 201.49 668.40"
/>
<path stroke="#fd5320" vector-effect="non-scaling-stroke" d="
  M 691.68 510.98
  Q 694.66 509.21 696.69 506.53"
/>
<path stroke="#ca181c" vector-effect="non-scaling-stroke" d="
  M 724.25 433.45
  L 716.22 431.11"
/>
<path stroke="#d52a14" vector-effect="non-scaling-stroke" d="
  M 716.22 431.11
  L 707.04 429.81"
/>
<path stroke="#c41729" vector-effect="non-scaling-stroke" d="
  M 827.07 512.92
  L 827.51 514.77"
/>
<path stroke="#de3054" vector-effect="non-scaling-stroke" d="
  M 827.51 514.77
  L 826.08 513.82
  A 0.39 0.38 -68.4 0 0 825.49 514.08
  C 824.70 518.55 824.86 522.94 824.20 527.28
  Q 821.23 546.77 819.58 554.62
  Q 817.31 565.44 813.31 573.35
  Q 806.19 587.44 796.89 602.05
  Q 790.03 612.83 780.71 623.31
  Q 768.08 637.53 754.26 651.32
  C 750.59 654.98 745.59 659.04 742.03 662.79
  Q 740.08 664.84 734.56 668.33
  Q 730.74 670.73 724.86 676.45
  A 9.90 9.76 5.6 0 1 723.50 677.55
  Q 717.88 681.42 713.97 684.62
  C 707.70 689.76 700.50 693.11 693.98 697.54
  C 689.16 700.82 683.40 703.94 679.13 706.96
  C 675.61 709.45 672.23 710.59 669.44 712.71
  Q 667.42 714.24 661.89 716.45
  Q 658.76 717.70 651.54 721.78
  Q 648.16 723.69 632.95 730.89
  C 626.87 733.77 620.75 734.87 615.14 737.78
  Q 610.24 740.32 603.94 742.51
  Q 582.94 749.79 562.72 754.46
  C 551.42 757.07 547.73 758.34 536.80 760.99
  Q 525.06 763.84 520.67 764.42
  Q 489.95 768.47 457.19 770.83
  Q 456.29 770.89 445.05 771.26
  C 438.82 771.46 433.61 770.83 426.88 770.88
  A 6.62 6.06 47.6 0 1 425.76 770.78
  C 415.24 768.80 404.57 768.93 396.03 768.03"
/>
<path stroke="#e1242d" vector-effect="non-scaling-stroke" d="
  M 396.03 768.03
  Q 408.89 767.99 416.26 767.08
  C 427.13 765.75 436.05 762.31 446.20 757.26"
/>
<path stroke="#d17170" vector-effect="non-scaling-stroke" d="
  M 684.01 729.75
  Q 664.69 739.63 643.51 748.26"
/>
<path stroke="#c96563" vector-effect="non-scaling-stroke" d="
  M 643.51 748.26
  Q 628.43 754.70 616.46 758.70
  Q 588.27 768.12 556.61 774.82
  Q 538.48 778.66 509.23 781.79"
/>
<path stroke="#ac0b17" vector-effect="non-scaling-stroke" d="
  M 509.23 781.79
  C 513.28 777.33 508.67 775.55 504.84 774.86"
/>
<path stroke="#c72443" vector-effect="non-scaling-stroke" d="
  M 504.84 774.86
  Q 514.44 773.32 523.98 772.18
  Q 536.61 770.68 543.08 769.35
  Q 558.21 766.23 563.67 765.26
  Q 573.58 763.49 582.80 760.69
  Q 598.64 755.87 601.69 755.15
  C 609.71 753.24 617.94 749.77 626.92 746.83
  C 633.29 744.75 639.53 741.50 646.19 739.01
  C 650.74 737.31 653.75 735.39 657.76 733.99
  Q 660.74 732.95 666.31 729.92
  Q 673.43 726.03 693.56 715.88
  C 698.80 713.24 703.59 709.39 708.12 706.61
  Q 725.51 695.91 734.85 688.33
  C 738.88 685.06 743.07 682.27 746.15 679.64
  Q 750.52 675.90 759.96 667.88
  C 763.36 664.99 766.21 661.53 769.97 658.23
  Q 774.60 654.18 779.91 648.17
  C 787.05 640.08 790.25 636.74 795.63 629.60
  Q 800.29 623.41 806.81 614.32
  C 811.56 607.70 815.32 599.71 819.54 591.91
  C 822.55 586.36 824.01 581.16 826.71 573.49
  Q 830.85 561.71 832.54 547.80
  Q 833.78 537.60 832.04 526.69
  Q 831.55 523.66 830.21 520.58
  Q 828.93 517.62 827.51 514.77"
/>
<path stroke="#f1271f" vector-effect="non-scaling-stroke" d="
  M 740.54 478.39
  C 741.42 470.65 736.90 466.47 730.80 463.22"
/>
<path stroke="#ce162c" vector-effect="non-scaling-stroke" d="
  M 817.36 518.62
  Q 817.11 528.25 814.74 536.53
  Q 810.39 551.72 804.23 565.81
  C 801.24 572.67 795.26 580.71 792.64 584.84
  Q 787.90 592.28 784.09 597.00
  Q 772.49 611.36 760.87 622.55
  C 758.26 625.06 756.48 627.41 753.79 629.71
  C 751.42 631.73 749.86 634.17 747.48 636.25
  Q 727.96 653.35 724.24 656.67
  C 718.97 661.38 712.52 665.21 707.07 669.30
  A 2.75 2.61 -73.1 0 1 706.47 669.64
  Q 705.20 670.15 702.96 671.70
  Q 689.56 680.99 688.93 681.38
  Q 678.39 688.05 676.89 689.07
  Q 673.18 691.57 664.59 696.28
  Q 652.43 702.95 642.52 707.98
  Q 629.95 714.36 606.21 724.13
  Q 584.17 733.20 551.46 741.83
  Q 549.19 742.43 530.97 746.98
  Q 529.71 747.29 515.36 749.73
  Q 515.34 749.73 503.37 751.76
  Q 497.57 752.74 489.26 753.55
  Q 457.61 756.61 446.20 757.26"
/>
<path stroke="#d4181f" vector-effect="non-scaling-stroke" d="
  M 446.20 757.26
  Q 420.67 757.58 401.28 756.44
  Q 380.50 755.22 366.76 752.71
  Q 347.19 749.12 338.54 747.18
  Q 336.36 746.69 334.65 746.17
  A 0.43 0.43 0.0 0 1 334.38 745.57
  C 338.00 738.21 343.24 734.55 350.52 731.18"
/>
<path stroke="#d4181f" vector-effect="non-scaling-stroke" d="
  M 436.69 732.97
  C 455.31 731.88 472.44 728.43 491.23 724.54
  Q 509.58 720.75 523.62 716.65
  Q 569.55 703.26 611.48 680.73
  C 616.59 677.99 620.46 676.57 624.35 673.64
  Q 626.47 672.03 633.77 667.60
  Q 652.48 656.23 668.27 643.49
  Q 684.80 630.14 696.94 618.68
  Q 709.73 606.61 723.47 590.93
  C 732.66 580.44 740.73 569.26 746.18 559.43
  C 749.97 552.59 753.07 547.89 755.25 542.35
  Q 760.85 528.10 763.07 514.76
  C 763.99 509.26 764.00 503.69 763.39 498.74
  C 762.61 492.37 757.82 491.19 752.45 491.05"
/>
<path stroke="#496e13" vector-effect="non-scaling-stroke" d="
  M 807.77 474.50
  C 807.98 480.18 808.71 485.83 807.64 491.40
  A 0.28 0.28 0.0 0 1 807.09 491.37
  C 806.56 484.52 804.57 476.99 800.62 471.37
  Q 799.26 469.43 795.10 466.46
  Q 790.04 462.84 786.07 459.11"
/>
<path stroke="#f02d13" vector-effect="non-scaling-stroke" d="
  M 189.08 656.27
  L 187.74 657.82"
/>
<path stroke="#d31e13" vector-effect="non-scaling-stroke" d="
  M 187.74 657.82
  L 183.12 650.91"
/>
<path stroke="#f1271f" vector-effect="non-scaling-stroke" d="
  M 198.79 666.13
  Q 197.57 671.11 198.52 676.02
  A 0.38 0.37 86.4 0 1 198.13 676.47
  Q 192.37 676.07 187.57 672.80"
/>
<path stroke="#b60b1a" vector-effect="non-scaling-stroke" d="
  M 707.12 422.73
  Q 709.44 424.72 708.36 426.47
  Q 707.48 427.93 707.04 429.81"
/>
<path stroke="#df2917" vector-effect="non-scaling-stroke" d="
  M 707.04 429.81
  C 700.68 430.00 694.75 430.24 688.43 431.81
  Q 682.20 433.36 675.99 434.93
  Q 671.87 435.97 664.50 439.73"
/>
<path stroke="#d31e13" vector-effect="non-scaling-stroke" d="
  M 664.50 439.73
  Q 660.31 438.15 657.67 434.65"
/>
<path stroke="#c72443" vector-effect="non-scaling-stroke" d="
  M 504.84 774.86
  Q 498.88 775.39 492.78 775.86
  Q 487.13 776.31 480.71 776.41
  Q 476.59 776.48 455.50 776.82
  Q 443.60 777.01 419.94 775.92
  Q 398.85 774.94 391.63 773.54
  Q 382.29 771.73 377.90 771.32
  C 368.10 770.40 359.70 768.12 349.42 766.25
  C 342.79 765.05 335.27 762.82 328.20 761.06"
/>
<path stroke="#e43147" vector-effect="non-scaling-stroke" d="
  M 328.20 761.06
  L 321.84 758.44
  A 1.01 0.96 -58.9 0 1 321.50 756.90
  Q 321.84 756.47 322.83 756.04
  A 1.34 1.28 40.4 0 1 323.68 755.99
  Q 326.09 756.66 339.73 759.78
  C 344.77 760.92 351.02 761.43 356.36 762.66
  Q 357.61 762.95 368.78 765.09
  C 377.59 766.79 386.92 767.36 396.03 768.03"
/>
<path stroke="#ca181c" vector-effect="non-scaling-stroke" d="
  M 199.95 691.04
  Q 210.32 702.93 214.43 706.33
  Q 219.71 710.71 240.81 724.50
  Q 248.57 729.57 255.09 732.48
  C 260.68 734.98 265.94 739.15 271.67 741.11
  C 276.31 742.70 280.20 745.10 285.14 746.92
  C 293.22 749.89 299.04 752.61 305.98 755.07
  Q 309.37 756.27 314.21 757.52
  Q 321.20 759.32 328.20 761.06"
/>
<path stroke="#c96563" vector-effect="non-scaling-stroke" d="
  M 509.23 781.79
  Q 474.67 785.63 439.75 784.33
  Q 419.50 783.58 413.89 783.27
  C 406.66 782.86 400.38 781.80 393.42 781.28
  Q 387.33 780.82 378.13 779.28
  Q 365.76 777.22 353.61 775.28"
/>
<path stroke="#d17170" vector-effect="non-scaling-stroke" d="
  M 353.61 775.28
  Q 312.96 766.87 275.74 750.99"
/>
<path stroke="#eecbbb" vector-effect="non-scaling-stroke" d="
  M 353.61 775.28
  Q 348.68 775.99 343.69 774.59
  Q 337.30 772.81 337.19 772.78
  Q 330.24 771.22 323.49 769.09
  C 322.08 768.65 319.98 768.43 318.79 768.63
  A 1.49 1.49 0.0 0 0 317.76 770.85
  Q 319.17 773.26 322.30 774.47
  C 331.56 778.09 339.36 779.52 350.76 781.86
  C 360.75 783.91 369.51 783.92 380.14 785.49
  Q 385.83 786.32 396.45 787.13
  Q 398.73 787.30 429.39 789.89
  Q 434.37 790.32 466.34 791.77
  Q 468.36 791.86 471.16 791.78
  C 485.54 791.37 497.62 792.18 501.75 792.14
  Q 522.90 791.96 543.50 791.88
  C 556.96 791.84 576.47 790.00 592.36 789.00
  C 606.33 788.11 614.28 787.03 627.09 785.77
  Q 642.35 784.28 659.30 780.50
  C 663.35 779.60 697.60 772.76 687.94 763.32
  Q 684.69 760.14 680.60 758.65
  Q 670.25 754.90 660.50 752.27
  Q 656.02 751.07 642.69 749.90
  A 0.49 0.49 0.0 0 1 642.31 749.17
  Q 642.59 748.69 643.51 748.26"
/>
<path stroke="#de191d" vector-effect="non-scaling-stroke" d="
  M 187.74 657.82
  Q 183.65 664.79 187.57 672.80"
/>
<path stroke="#d4181f" vector-effect="non-scaling-stroke" d="
  M 187.57 672.80
  Q 192.00 682.89 199.95 691.04"
/>
<path stroke="#b60b1a" vector-effect="non-scaling-stroke" d="
  M 199.95 691.04
  Q 192.16 684.34 189.67 680.29
  Q 185.40 673.31 180.60 666.65
  A 0.14 0.14 0.0 0 0 180.35 666.74
  Q 180.57 670.04 179.47 673.36"
/>
<path stroke="#fd7230" vector-effect="non-scaling-stroke" d="
  M 685.90 437.71
  C 677.29 439.24 668.70 443.28 661.81 446.83
  Q 650.43 452.70 641.06 461.57
  Q 631.14 470.96 624.61 478.61
  Q 618.00 486.36 608.49 498.46
  Q 605.15 502.71 594.60 517.09
  Q 585.38 529.67 580.67 535.69
  Q 574.29 543.85 559.65 559.77
  Q 555.63 564.14 553.84 565.75
  Q 549.59 569.58 547.80 571.49
  C 541.34 578.39 534.99 583.52 527.12 590.93
  C 524.39 593.51 521.41 595.69 518.51 598.08
  Q 515.53 600.53 511.84 603.21
  C 497.95 613.30 491.12 618.61 478.95 625.89
  A 4.79 4.47 6.4 0 0 478.21 626.44
  Q 476.55 628.01 475.12 628.41
  A 4.44 4.40 19.9 0 0 473.89 628.98
  C 470.81 630.99 469.19 632.18 466.42 633.59
  Q 459.19 637.27 454.60 639.94
  C 449.19 643.11 444.39 644.62 438.49 647.88
  C 435.00 649.81 430.66 651.08 427.40 652.47
  C 423.06 654.31 418.15 656.84 412.40 658.85
  Q 405.72 661.19 392.40 665.41
  Q 382.69 668.50 375.49 670.06
  Q 367.04 671.89 358.35 673.94
  C 353.78 675.01 349.88 674.99 345.31 675.85
  Q 342.20 676.42 335.51 677.14
  Q 317.93 679.02 295.83 678.64
  Q 290.90 678.56 287.04 678.24
  Q 280.15 677.66 278.27 677.80
  Q 277.65 677.85 277.43 677.94
  A 0.51 0.50 47.6 0 0 277.39 678.85
  Q 280.12 680.32 283.69 680.91
  Q 302.93 684.08 311.55 684.91
  C 329.21 686.61 346.05 685.89 364.47 684.26
  Q 381.30 682.76 398.96 679.45
  C 405.01 678.31 410.05 676.71 417.04 674.92
  Q 422.05 673.64 430.35 670.70
  Q 443.92 665.88 449.49 663.91
  Q 460.65 659.95 466.44 657.24
  Q 477.47 652.07 482.90 649.37
  Q 491.92 644.88 514.51 632.23
  Q 519.33 629.53 528.93 622.79
  C 532.50 620.27 535.81 618.74 538.81 616.28
  Q 540.52 614.88 546.03 611.13
  Q 560.30 601.39 571.99 590.58
  C 574.64 588.13 577.85 586.27 580.34 583.63
  C 582.56 581.27 584.87 579.85 587.20 577.39
  Q 588.77 575.75 592.27 572.62
  C 602.47 563.50 611.33 553.90 620.75 545.01
  Q 623.18 542.70 628.45 535.77
  Q 630.37 533.24 632.95 531.14
  C 635.33 529.20 637.17 526.62 639.55 524.56
  C 642.85 521.71 645.76 518.25 649.58 514.54
  Q 652.32 511.88 657.92 508.09
  Q 671.67 498.77 679.13 490.62
  Q 685.28 483.91 686.88 472.51"
/>
<path stroke="#fe6319" vector-effect="non-scaling-stroke" d="
  M 686.88 472.51
  L 689.66 467.34
  A 2.20 2.04 83.6 0 1 690.03 466.84
  Q 695.16 461.60 695.39 453.42
  C 695.54 448.24 700.59 443.64 704.14 440.34
  A 1.66 1.66 0.0 0 0 703.65 437.60
  C 699.01 435.64 693.34 436.43 685.90 437.71"
/>
<path stroke="#fd8c39" vector-effect="non-scaling-stroke" d="
  M 686.88 472.51
  Q 687.46 468.80 686.57 464.91
  C 684.95 457.81 679.02 455.85 671.89 455.88
  Q 667.38 455.91 660.47 456.46
  A 0.17 0.17 0.0 0 1 660.36 456.15
  Q 664.19 453.19 668.34 451.10
  Q 680.50 444.99 686.37 442.36
  Q 688.22 441.53 689.14 439.92
  A 0.88 0.88 0.0 0 0 689.12 439.03
  Q 688.22 437.56 685.90 437.71"
/>
<path stroke="#fd7230" vector-effect="non-scaling-stroke" d="
  M 220.17 668.51
  Q 220.17 668.21 219.97 667.99
  C 215.60 663.10 205.81 655.84 198.41 657.12
  C 195.25 657.67 195.05 660.85 197.38 662.26
  C 200.52 664.17 203.18 665.92 206.61 666.98
  Q 207.99 667.40 213.01 667.86
  Q 215.81 668.11 219.30 669.16
  A 0.68 0.67 -81.4 0 0 220.17 668.51"
/>
<path stroke="#d12446" vector-effect="non-scaling-stroke" d="
  M 783.27 574.26
  L 788.76 576.42
  A 2.78 2.78 0.0 0 0 792.36 574.86
  L 793.80 571.20
  A 8.17 4.90 -68.5 0 0 792.24 561.80
  L 790.69 561.19
  A 8.17 4.90 -68.5 0 0 783.14 567.00
  L 781.70 570.66
  A 2.78 2.78 0.0 0 0 783.27 574.26"
/>
</g>
<path fill="#fd4810" d="
  M 712.28 251.40
  Q 705.32 255.03 697.69 256.05
  L 693.58 251.52
  A 0.29 0.29 0.0 0 0 693.10 251.82
  Q 696.37 259.88 699.34 268.17
  Q 699.88 269.69 700.69 274.28
  Q 700.27 276.15 699.06 277.61
  A 0.45 0.44 -43.9 0 1 698.36 277.60
  Q 689.77 266.32 680.56 256.64
  C 675.49 251.32 672.39 245.97 669.17 239.34
  Q 667.09 235.07 666.46 229.98
  Q 665.23 220.22 665.56 213.24
  A 0.46 0.45 72.0 0 0 664.82 212.86
  L 655.63 220.24
  A 2.50 2.49 82.9 0 0 654.90 221.18
  Q 651.33 229.23 648.48 247.56
  Q 646.67 259.21 637.93 270.22
  C 634.76 254.65 634.74 236.38 640.06 221.26
  Q 648.39 197.53 668.68 181.64
  Q 678.45 173.98 691.67 169.40
  Q 695.39 168.11 699.00 167.61
  A 0.49 0.49 0.0 0 1 699.35 168.49
  C 684.75 178.80 676.69 196.66 682.61 214.14
  Q 686.68 226.16 696.39 235.60
  Q 700.70 239.79 712.28 251.40
  Z"
/>
<path fill="#fe7d22" d="
  M 700.69 274.28
  Q 705.05 280.77 706.24 288.59
  A 0.20 0.20 0.0 0 1 705.91 288.78
  Q 687.09 273.46 666.88 262.70
  A 2.22 2.19 -45.8 0 0 664.73 262.74
  L 650.77 270.80
  A 0.79 0.79 0.0 0 0 650.39 271.60
  Q 650.95 275.30 653.43 288.51
  Q 655.63 300.20 652.34 310.55
  Q 651.25 313.96 647.70 320.68
  C 645.73 324.40 642.96 331.43 638.91 335.40
  Q 631.58 342.59 622.11 347.45
  Q 615.70 350.74 612.41 352.99
  Q 599.51 361.87 594.96 365.30
  A 1.09 1.09 0.0 0 1 593.40 365.04
  C 589.86 359.81 585.66 354.92 579.11 354.71
  C 574.95 354.58 571.16 354.51 567.88 356.69
  A 1.66 1.62 84.3 0 0 567.25 357.48
  Q 560.77 374.83 560.87 393.77
  A 1.68 1.62 62.5 0 1 560.60 394.68
  L 551.77 408.27
  C 547.61 388.64 549.31 365.89 558.93 347.88
  Q 567.61 331.66 581.21 320.21
  Q 587.89 314.60 596.43 307.43
  C 604.41 300.72 612.58 290.16 612.24 279.41
  A 0.66 0.66 0.0 0 1 613.40 278.95
  Q 618.73 285.12 620.45 293.00
  Q 624.34 310.73 613.42 322.86
  C 606.22 330.87 599.61 339.93 600.61 351.14
  A 3.07 3.06 56.8 0 1 600.25 352.87
  Q 599.20 354.83 599.27 355.25
  A 0.38 0.38 0.0 0 0 599.98 355.36
  L 600.20 354.95
  A 1.86 1.83 -89.3 0 1 601.03 354.13
  Q 602.96 353.18 606.23 349.49
  Q 611.71 343.30 620.67 336.24
  Q 628.94 329.72 631.90 326.26
  Q 645.06 310.83 641.77 289.26
  Q 640.92 283.69 637.93 270.22
  Q 646.67 259.21 648.48 247.56
  Q 651.33 229.23 654.90 221.18
  A 2.50 2.49 82.9 0 1 655.63 220.24
  L 664.82 212.86
  A 0.46 0.45 72.0 0 1 665.56 213.24
  Q 665.23 220.22 666.46 229.98
  Q 667.09 235.07 669.17 239.34
  C 672.39 245.97 675.49 251.32 680.56 256.64
  Q 689.77 266.32 698.36 277.60
  A 0.45 0.44 -43.9 0 0 699.06 277.61
  Q 700.27 276.15 700.69 274.28
  Z"
/>
<path fill="#fe9f30" d="
  M 606.17 246.61
  C 604.26 245.63 601.68 242.27 600.58 240.79
  C 593.62 231.53 599.34 219.30 610.57 217.44
  A 0.72 0.71 86.1 0 1 611.40 218.17
  Q 611.25 222.86 609.17 226.86
  C 605.33 234.21 605.51 238.46 607.21 245.80
  A 0.73 0.73 0.0 0 1 606.17 246.61
  Z"
/>
<path fill="#fe9f30" d="
  M 755.33 269.26
  Q 754.66 261.80 753.87 258.71
  Q 752.65 253.94 753.52 251.85
  Q 755.06 248.17 758.09 246.84
  Q 763.32 244.55 770.44 245.29
  A 0.86 0.84 1.6 0 1 771.20 246.08
  C 771.58 251.90 770.31 254.44 765.50 258.03
  Q 759.79 262.29 756.88 269.49
  A 0.81 0.80 -36.5 0 1 755.33 269.26
  Z"
/>
<path fill="#fe9f30" d="
  M 697.69 256.05
  Q 710.70 270.14 718.58 281.16
  Q 723.87 288.57 728.45 300.12
  C 730.46 305.19 731.76 311.61 732.81 316.47
  A 1.98 1.95 17.1 0 0 733.30 317.38
  C 736.60 320.79 740.85 323.26 745.10 319.69
  Q 745.43 323.79 745.17 327.74
  C 744.28 341.41 741.43 354.97 735.69 367.30
  Q 725.03 390.22 704.72 406.33
  Q 704.74 401.71 707.18 397.71
  Q 711.68 390.34 716.29 383.03
  Q 719.53 377.88 717.33 372.58
  Q 721.80 359.17 721.96 344.99
  Q 722.08 333.95 720.79 325.83
  Q 719.91 320.25 718.33 314.17
  Q 716.50 307.12 713.81 302.11
  A 0.46 0.46 0.0 0 0 713.06 302.02
  Q 712.62 302.50 712.55 303.24
  C 711.52 314.15 709.91 324.46 705.35 334.03
  A 0.16 0.16 0.0 0 1 705.04 333.95
  L 705.67 327.24
  A 1.98 1.97 -49.2 0 0 705.62 326.53
  L 701.17 307.71
  A 1.72 1.72 0.0 0 0 698.13 307.06
  L 697.16 308.33
  A 1.32 1.31 37.1 0 1 695.32 308.58
  Q 693.07 306.89 690.73 304.01
  Q 687.38 299.89 681.01 292.25
  Q 670.69 279.88 665.34 265.22
  A 0.26 0.26 0.0 0 0 664.83 265.30
  Q 664.81 267.91 665.63 272.44
  C 666.73 278.51 668.39 284.14 668.62 290.22
  Q 669.49 312.78 660.57 331.39
  Q 654.07 344.94 640.30 356.70
  Q 640.25 356.75 640.20 356.80
  Q 637.58 359.60 635.13 359.63
  A 0.45 0.44 -78.0 0 1 634.72 358.99
  L 640.48 346.94
  A 0.66 0.66 0.0 0 0 639.38 346.23
  C 635.65 350.52 631.06 354.52 625.45 357.65
  C 621.30 359.97 613.55 364.46 608.46 368.39
  Q 601.67 373.63 600.63 374.65
  Q 597.54 377.70 590.64 386.97
  A 2.76 2.56 75.3 0 0 590.25 387.70
  L 589.49 389.83
  A 0.38 0.38 0.0 0 1 588.78 389.83
  Q 584.57 378.95 581.82 370.16
  Q 581.71 369.79 581.46 369.66
  A 0.45 0.44 -68.5 0 0 580.81 369.95
  C 579.35 375.99 578.93 382.34 577.92 388.30
  C 575.23 404.12 573.66 417.20 577.18 431.41
  Q 578.31 435.93 580.25 443.53
  Q 581.31 447.66 584.25 452.49
  Q 588.70 459.83 594.77 464.70
  Q 596.41 466.02 599.75 466.98
  Q 598.68 468.48 597.74 467.94
  Q 590.12 463.50 583.74 458.90
  Q 581.40 457.22 579.05 454.80
  Q 576.76 452.45 574.65 450.35
  Q 557.08 432.76 551.77 408.27
  L 560.60 394.68
  A 1.68 1.62 62.5 0 0 560.87 393.77
  Q 560.77 374.83 567.25 357.48
  A 1.66 1.62 84.3 0 1 567.88 356.69
  C 571.16 354.51 574.95 354.58 579.11 354.71
  C 585.66 354.92 589.86 359.81 593.40 365.04
  A 1.09 1.09 0.0 0 0 594.96 365.30
  Q 599.51 361.87 612.41 352.99
  Q 615.70 350.74 622.11 347.45
  Q 631.58 342.59 638.91 335.40
  C 642.96 331.43 645.73 324.40 647.70 320.68
  Q 651.25 313.96 652.34 310.55
  Q 655.63 300.20 653.43 288.51
  Q 650.95 275.30 650.39 271.60
  A 0.79 0.79 0.0 0 1 650.77 270.80
  L 664.73 262.74
  A 2.22 2.19 -45.8 0 1 666.88 262.70
  Q 687.09 273.46 705.91 288.78
  A 0.20 0.20 0.0 0 0 706.24 288.59
  Q 705.05 280.77 700.69 274.28
  Q 699.88 269.69 699.34 268.17
  Q 696.37 259.88 693.10 251.82
  A 0.29 0.29 0.0 0 1 693.58 251.52
  L 697.69 256.05
  Z"
/>
<path fill="#fe7d22" d="
  M 745.10 319.69
  C 740.85 323.26 736.60 320.79 733.30 317.38
  A 1.98 1.95 17.1 0 1 732.81 316.47
  C 731.76 311.61 730.46 305.19 728.45 300.12
  Q 723.87 288.57 718.58 281.16
  Q 710.70 270.14 697.69 256.05
  Q 705.32 255.03 712.28 251.40
  C 731.84 269.07 744.35 293.13 745.10 319.69
  Z"
/>
<path fill="#feea6f" d="
  M 717.33 372.58
  C 715.77 376.80 714.27 380.90 712.31 385.00
  Q 706.41 397.31 699.92 409.87
  Q 695.54 413.29 689.43 415.01
  A 0.67 0.66 77.9 0 1 688.59 414.46
  Q 688.51 413.91 688.98 413.22
  Q 697.51 400.94 701.73 386.98
  Q 703.96 379.60 703.87 371.52
  A 0.90 0.90 0.0 0 0 702.36 370.87
  C 699.36 373.67 697.74 375.27 694.75 377.16
  Q 685.85 382.82 680.60 386.27
  A 0.74 0.74 0.0 0 1 679.52 385.33
  C 685.31 373.18 684.18 361.42 682.38 347.31
  Q 680.24 330.59 678.60 322.76
  Q 678.43 321.98 677.99 321.51
  A 0.33 0.32 25.9 0 0 677.43 321.70
  Q 677.16 325.33 676.39 332.22
  C 675.02 344.49 670.33 355.73 662.48 365.27
  L 658.34 370.20
  A 3.27 3.14 -85.4 0 1 657.63 370.83
  Q 654.83 372.68 651.81 375.56
  Q 650.74 376.58 646.08 379.81
  Q 641.33 383.10 636.76 385.84
  C 626.68 391.91 618.97 400.58 614.95 411.45
  Q 614.13 413.65 614.16 415.03
  A 0.72 0.71 31.7 0 1 612.80 415.35
  C 611.29 412.27 610.66 406.81 610.86 402.81
  Q 611.35 392.62 611.54 388.86
  A 0.53 0.53 0.0 0 0 610.58 388.52
  L 606.69 393.99
  Q 601.56 399.22 597.98 405.66
  L 596.31 402.70
  Q 595.96 401.00 594.93 400.52
  A 0.46 0.46 0.0 0 0 594.27 400.89
  Q 594.15 402.29 592.97 405.35
  C 591.79 408.42 591.06 412.93 590.87 416.71
  C 590.42 425.61 589.92 435.07 592.20 442.83
  C 594.76 451.56 596.48 457.76 601.12 465.04
  A 0.84 0.83 -45.8 0 1 601.13 465.95
  Q 600.50 466.97 599.75 466.98
  Q 596.41 466.02 594.77 464.70
  Q 588.70 459.83 584.25 452.49
  Q 581.31 447.66 580.25 443.53
  Q 578.31 435.93 577.18 431.41
  C 573.66 417.20 575.23 404.12 577.92 388.30
  C 578.93 382.34 579.35 375.99 580.81 369.95
  A 0.45 0.44 -68.5 0 1 581.46 369.66
  Q 581.71 369.79 581.82 370.16
  Q 584.57 378.95 588.78 389.83
  A 0.38 0.38 0.0 0 0 589.49 389.83
  L 590.25 387.70
  A 2.76 2.56 75.3 0 1 590.64 386.97
  Q 597.54 377.70 600.63 374.65
  Q 601.67 373.63 608.46 368.39
  C 613.55 364.46 621.30 359.97 625.45 357.65
  C 631.06 354.52 635.65 350.52 639.38 346.23
  A 0.66 0.66 0.0 0 1 640.48 346.94
  L 634.72 358.99
  A 0.45 0.44 -78.0 0 0 635.13 359.63
  Q 637.58 359.60 640.20 356.80
  Q 640.25 356.75 640.30 356.70
  Q 654.07 344.94 660.57 331.39
  Q 669.49 312.78 668.62 290.22
  C 668.39 284.14 666.73 278.51 665.63 272.44
  Q 664.81 267.91 664.83 265.30
  A 0.26 0.26 0.0 0 1 665.34 265.22
  Q 670.69 279.88 681.01 292.25
  Q 687.38 299.89 690.73 304.01
  Q 693.07 306.89 695.32 308.58
  A 1.32 1.31 37.1 0 0 697.16 308.33
  L 698.13 307.06
  A 1.72 1.72 0.0 0 1 701.17 307.71
  L 705.62 326.53
  A 1.98 1.97 -49.2 0 1 705.67 327.24
  L 705.04 333.95
  A 0.16 0.16 0.0 0 0 705.35 334.03
  C 709.91 324.46 711.52 314.15 712.55 303.24
  Q 712.62 302.50 713.06 302.02
  A 0.46 0.46 0.0 0 1 713.81 302.11
  Q 716.50 307.12 718.33 314.17
  Q 719.91 320.25 720.79 325.83
  Q 722.08 333.95 721.96 344.99
  Q 721.80 359.17 717.33 372.58
  Z"
/>
<path fill="#fe9f30" d="
  M 532.90 268.04
  A 0.37 0.37 0.0 0 1 533.62 268.08
  Q 534.59 272.45 537.19 278.07
  C 540.84 285.97 547.46 290.55 556.11 292.40
  A 0.74 0.73 -47.5 0 1 556.17 293.82
  C 549.31 296.01 542.72 298.92 538.74 304.89
  Q 535.13 310.32 533.86 316.33
  A 0.66 0.66 0.0 0 1 532.57 316.36
  Q 527.94 298.81 509.94 295.19
  A 0.90 0.90 0.0 0 1 509.88 293.44
  C 518.28 291.12 525.26 285.69 529.00 277.66
  Q 531.32 272.69 532.90 268.04
  Z"
/>
<path fill="#3f5e0e" d="
  M 837.76 509.11
  Q 836.58 514.33 837.33 518.93
  A 1.52 1.52 0.0 0 1 834.46 519.84
  Q 832.37 515.55 832.15 511.23
  Q 831.52 503.88 829.19 497.31
  C 826.52 489.74 822.51 484.28 816.92 477.35
  Q 815.36 475.41 815.15 473.93
  Q 814.20 467.30 814.40 460.38
  Q 814.49 457.42 817.71 450.54
  Q 821.93 443.23 826.29 438.28
  Q 834.84 428.57 835.68 427.52
  C 836.91 425.97 838.09 423.69 839.26 422.70
  C 842.83 419.70 844.12 417.16 847.61 411.73
  A 7.06 6.63 74.2 0 0 848.19 410.61
  Q 850.14 405.74 851.51 403.97
  C 853.89 400.88 858.21 395.45 860.04 390.77
  Q 864.53 379.29 867.42 370.30
  C 869.56 363.63 870.29 355.40 871.42 348.15
  C 872.19 343.18 871.55 338.14 871.29 332.51
  Q 871.19 330.37 868.88 323.60
  Q 866.02 313.59 862.77 308.46
  Q 859.84 303.86 855.09 299.15
  Q 849.87 294.00 843.42 291.58
  C 832.33 286.91 821.44 289.28 810.55 293.57
  Q 809.14 294.12 804.51 297.02
  L 796.48 302.01
  A 1.26 1.24 81.1 0 0 795.93 302.78
  Q 794.38 309.24 799.55 313.38
  A 0.85 0.80 -23.1 0 0 800.04 313.56
  L 802.71 313.73
  A 1.09 1.05 65.4 0 1 803.32 313.97
  Q 805.65 315.81 807.28 314.31
  Q 812.99 309.06 814.33 308.14
  Q 824.93 300.85 837.09 305.10
  C 846.04 308.23 849.85 313.72 854.54 321.25
  Q 859.43 332.61 858.80 345.26
  Q 858.40 353.27 856.99 359.31
  Q 856.95 359.44 853.34 370.72
  C 852.12 374.54 850.02 377.76 848.35 381.89
  A 5.94 5.94 0.0 0 1 847.89 382.81
  Q 842.66 391.07 842.13 392.14
  C 840.84 394.75 838.87 396.55 837.13 399.30
  Q 835.64 401.66 833.03 404.43
  Q 825.74 412.16 821.47 416.30
  Q 819.21 418.49 817.21 419.86
  C 812.92 422.79 810.32 425.28 805.72 427.63
  C 797.70 431.71 789.05 436.15 779.49 436.43
  Q 772.57 436.63 771.15 436.67
  A 1.74 1.72 59.8 0 1 770.22 436.42
  Q 755.59 427.23 737.26 425.34
  Q 728.43 424.43 721.66 424.83
  Q 716.80 425.11 712.01 423.37
  A 0.40 0.39 24.6 0 1 711.80 422.81
  Q 712.10 422.26 711.71 421.50
  Q 713.82 420.37 716.75 419.95
  Q 743.36 416.19 766.89 427.62
  C 775.00 431.56 787.19 429.51 794.53 426.03
  Q 811.13 418.18 824.77 404.27
  Q 827.16 401.83 828.58 399.70
  C 829.88 397.74 832.04 395.89 833.58 393.56
  C 839.78 384.18 845.29 374.70 848.57 364.18
  A 1.10 1.06 -11.1 0 1 848.94 363.65
  Q 849.01 363.60 849.05 363.58
  A 0.19 0.19 0.0 0 0 849.16 363.47
  C 851.09 357.88 851.73 351.78 852.11 346.27
  Q 852.98 333.53 848.29 323.42
  C 843.93 314.01 834.53 306.39 823.85 310.21
  Q 815.35 313.25 809.13 320.10
  C 806.54 322.95 800.79 322.07 798.08 320.38
  C 794.90 318.40 790.33 314.41 789.71 310.61
  Q 789.02 306.33 789.86 301.73
  A 3.89 3.87 -16.6 0 1 791.01 299.62
  C 804.85 286.49 824.44 278.37 843.73 284.22
  C 856.79 288.18 867.44 300.81 872.40 313.13
  Q 878.83 329.14 877.82 346.25
  Q 877.33 354.50 876.29 360.26
  C 875.61 364.03 874.36 368.89 872.97 372.62
  Q 870.72 378.69 870.25 380.17
  Q 868.92 384.39 867.39 387.69
  C 857.89 408.15 844.90 426.10 829.65 442.90
  Q 828.71 443.94 824.93 450.08
  Q 822.02 454.81 821.25 457.81
  C 819.98 462.77 819.23 469.53 822.37 473.71
  C 830.56 484.56 837.21 495.10 837.76 509.11
  Z"
/>
<path fill="#aacb32" d="
  M 843.42 291.58
  Q 845.30 293.77 847.48 295.01
  A 1.43 1.42 16.8 0 1 848.19 296.32
  L 848.16 296.77
  A 0.57 0.57 0.0 0 1 847.37 297.26
  Q 832.00 290.70 817.09 295.41
  Q 812.93 296.73 809.00 299.07
  Q 804.63 301.67 801.14 303.27
  Q 799.52 304.02 798.16 303.72
  Q 797.41 303.55 797.43 302.44
  L 804.51 297.02
  Q 809.14 294.12 810.55 293.57
  C 821.44 289.28 832.33 286.91 843.42 291.58
  Z"
/>
<path fill="#78a21f" d="
  M 868.88 323.60
  C 866.84 331.81 867.93 339.76 866.86 347.53
  Q 864.84 362.24 861.62 371.90
  Q 859.06 379.63 854.13 388.60
  Q 852.63 391.34 851.75 393.19
  C 849.46 397.99 846.47 401.81 842.84 407.16
  C 838.54 413.53 832.94 419.19 827.39 425.89
  Q 826.44 427.04 821.59 430.77
  Q 817.75 433.72 815.75 435.60
  Q 809.23 441.74 803.07 446.05
  A 8.18 8.08 1.6 0 0 801.38 447.63
  Q 796.97 453.13 794.75 459.59
  A 0.57 0.57 0.0 0 1 794.04 459.95
  L 790.26 458.75
  L 782.57 452.25
  A 0.69 0.67 -39.3 0 0 781.79 452.18
  L 781.46 452.37
  A 0.51 0.50 -34.8 0 0 781.32 453.12
  L 786.07 459.11
  Q 789.36 464.49 783.35 472.19
  A 1.21 1.21 0.0 0 1 782.52 472.64
  Q 774.70 473.41 766.81 472.72
  Q 761.33 472.24 757.86 473.82
  Q 754.55 475.32 744.91 481.87
  Q 745.03 477.44 746.61 475.13
  Q 750.06 470.05 750.91 467.70
  C 752.65 462.89 749.63 460.71 746.35 458.07
  Q 749.88 457.65 753.43 458.69
  A 0.92 0.92 0.0 0 0 754.43 457.27
  Q 753.84 456.46 753.63 456.28
  Q 749.43 452.79 746.99 450.44
  C 742.63 446.24 737.85 444.82 731.93 444.91
  Q 741.44 444.54 754.05 446.19
  Q 758.76 446.81 768.55 446.61
  A 0.64 0.64 0.0 0 0 769.17 446.06
  Q 769.27 445.35 769.11 444.45
  A 0.49 0.49 0.0 0 1 769.60 443.87
  Q 778.60 444.08 787.86 441.74
  C 794.06 440.17 799.20 436.96 805.60 433.51
  C 808.99 431.68 811.62 429.09 814.62 427.63
  Q 817.79 426.10 821.18 423.03
  Q 828.28 416.62 833.65 410.58
  C 835.57 408.42 836.68 405.83 838.55 403.90
  C 841.64 400.68 843.77 395.27 846.55 392.40
  A 4.49 4.32 -12.9 0 0 847.42 391.07
  Q 849.18 386.83 851.29 384.00
  Q 853.46 381.10 854.88 377.46
  Q 860.69 362.53 862.28 349.83
  Q 863.94 336.66 858.14 323.48
  L 860.38 325.63
  A 0.38 0.38 0.0 0 0 861.01 325.44
  Q 861.50 322.94 859.88 320.54
  Q 855.51 314.11 852.93 309.90
  A 3.69 3.30 -86.8 0 0 852.45 309.30
  Q 843.32 300.35 832.60 299.21
  Q 823.11 298.20 812.73 302.77
  A 1.51 0.93 -58.3 0 0 812.53 302.87
  L 805.55 307.49
  A 1.58 1.58 0.0 0 1 803.31 306.96
  L 802.46 305.50
  A 2.38 2.38 0.0 0 0 800.56 304.30
  Q 796.04 303.96 797.43 302.44
  Q 797.41 303.55 798.16 303.72
  Q 799.52 304.02 801.14 303.27
  Q 804.63 301.67 809.00 299.07
  Q 812.93 296.73 817.09 295.41
  Q 832.00 290.70 847.37 297.26
  A 0.57 0.57 0.0 0 0 848.16 296.77
  L 848.19 296.32
  A 1.43 1.42 16.8 0 0 847.48 295.01
  Q 845.30 293.77 843.42 291.58
  Q 849.87 294.00 855.09 299.15
  Q 859.84 303.86 862.77 308.46
  Q 866.02 313.59 868.88 323.60
  Z"
/>
<path fill="#527d18" d="
  M 804.51 297.02
  L 797.43 302.44
  Q 796.04 303.96 800.56 304.30
  A 2.38 2.38 0.0 0 1 802.46 305.50
  L 803.31 306.96
  A 1.58 1.58 0.0 0 0 805.55 307.49
  L 812.53 302.87
  A 1.51 0.93 -58.3 0 1 812.73 302.77
  Q 823.11 298.20 832.60 299.21
  Q 843.32 300.35 852.45 309.30
  A 3.69 3.30 -86.8 0 1 852.93 309.90
  Q 855.51 314.11 859.88 320.54
  Q 861.50 322.94 861.01 325.44
  A 0.38 0.38 0.0 0 1 860.38 325.63
  L 858.14 323.48
  Q 856.73 321.65 854.54 321.25
  C 849.85 313.72 846.04 308.23 837.09 305.10
  Q 824.93 300.85 814.33 308.14
  Q 812.99 309.06 807.28 314.31
  Q 805.65 315.81 803.32 313.97
  A 1.09 1.05 65.4 0 0 802.71 313.73
  L 800.04 313.56
  A 0.85 0.80 -23.1 0 1 799.55 313.38
  Q 794.38 309.24 795.93 302.78
  A 1.26 1.24 81.1 0 1 796.48 302.01
  L 804.51 297.02
  Z"
/>
<path fill="#aacb32" d="
  M 858.14 323.48
  Q 863.94 336.66 862.28 349.83
  Q 860.69 362.53 854.88 377.46
  Q 853.46 381.10 851.29 384.00
  Q 849.18 386.83 847.42 391.07
  A 4.49 4.32 -12.9 0 1 846.55 392.40
  C 843.77 395.27 841.64 400.68 838.55 403.90
  C 836.68 405.83 835.57 408.42 833.65 410.58
  Q 828.28 416.62 821.18 423.03
  Q 817.79 426.10 814.62 427.63
  C 811.62 429.09 808.99 431.68 805.60 433.51
  C 799.20 436.96 794.06 440.17 787.86 441.74
  Q 778.60 444.08 769.60 443.87
  A 0.49 0.49 0.0 0 0 769.11 444.45
  Q 769.27 445.35 769.17 446.06
  A 0.64 0.64 0.0 0 1 768.55 446.61
  Q 758.76 446.81 754.05 446.19
  Q 741.44 444.54 731.93 444.91
  L 716.92 447.25
  L 714.01 447.00
  A 0.40 0.39 -50.5 0 1 713.94 446.23
  Q 717.44 445.18 721.21 443.41
  A 15.33 14.74 -42.6 0 1 723.22 442.63
  Q 725.08 442.07 727.48 441.52
  C 730.08 440.92 734.65 438.29 737.27 438.06
  Q 742.34 437.61 744.21 436.98
  Q 744.90 435.03 742.42 433.34
  Q 734.16 427.71 724.22 426.27
  Q 722.88 425.87 721.66 424.83
  Q 728.43 424.43 737.26 425.34
  Q 755.59 427.23 770.22 436.42
  A 1.74 1.72 59.8 0 0 771.15 436.67
  Q 772.57 436.63 779.49 436.43
  C 789.05 436.15 797.70 431.71 805.72 427.63
  C 810.32 425.28 812.92 422.79 817.21 419.86
  Q 819.21 418.49 821.47 416.30
  Q 825.74 412.16 833.03 404.43
  Q 835.64 401.66 837.13 399.30
  C 838.87 396.55 840.84 394.75 842.13 392.14
  Q 842.66 391.07 847.89 382.81
  A 5.94 5.94 0.0 0 0 848.35 381.89
  C 850.02 377.76 852.12 374.54 853.34 370.72
  Q 856.95 359.44 856.99 359.31
  Q 858.40 353.27 858.80 345.26
  Q 859.43 332.61 854.54 321.25
  Q 856.73 321.65 858.14 323.48
  Z"
/>
<path fill="#527d18" d="
  M 817.71 450.54
  Q 817.70 449.50 817.30 448.94
  Q 816.82 448.30 815.82 448.61
  Q 814.22 449.11 813.40 450.87
  Q 809.40 459.47 808.91 468.57
  Q 798.50 465.61 790.26 458.75
  L 794.04 459.95
  A 0.57 0.57 0.0 0 0 794.75 459.59
  Q 796.97 453.13 801.38 447.63
  A 8.18 8.08 1.6 0 1 803.07 446.05
  Q 809.23 441.74 815.75 435.60
  Q 817.75 433.72 821.59 430.77
  Q 826.44 427.04 827.39 425.89
  C 832.94 419.19 838.54 413.53 842.84 407.16
  C 846.47 401.81 849.46 397.99 851.75 393.19
  Q 852.63 391.34 854.13 388.60
  Q 859.06 379.63 861.62 371.90
  Q 864.84 362.24 866.86 347.53
  C 867.93 339.76 866.84 331.81 868.88 323.60
  Q 871.19 330.37 871.29 332.51
  C 871.55 338.14 872.19 343.18 871.42 348.15
  C 870.29 355.40 869.56 363.63 867.42 370.30
  Q 864.53 379.29 860.04 390.77
  C 858.21 395.45 853.89 400.88 851.51 403.97
  Q 850.14 405.74 848.19 410.61
  A 7.06 6.63 74.2 0 1 847.61 411.73
  C 844.12 417.16 842.83 419.70 839.26 422.70
  C 838.09 423.69 836.91 425.97 835.68 427.52
  Q 834.84 428.57 826.29 438.28
  Q 821.93 443.23 817.71 450.54
  Z"
/>
<path fill="#fe9f30" d="
  M 509.73 343.54
  A 0.66 0.66 0.0 0 1 509.29 344.73
  L 497.42 343.98
  A 3.93 3.77 57.5 0 1 496.07 343.65
  C 488.81 340.48 488.00 335.01 488.74 327.36
  A 0.60 0.59 -83.5 0 1 489.41 326.82
  Q 495.59 327.56 499.30 331.21
  C 501.21 333.08 502.50 335.95 504.10 338.96
  A 2.44 2.35 5.6 0 0 504.79 339.77
  L 509.73 343.54
  Z"
/>
<path fill="#fefded" d="
  M 596.31 402.70
  L 597.98 405.66
  L 599.97 409.52
  A 0.42 0.42 0.0 0 0 600.76 409.37
  C 601.16 405.96 601.82 403.41 603.61 400.03
  Q 605.20 397.02 606.69 393.99
  L 610.58 388.52
  A 0.53 0.53 0.0 0 1 611.54 388.86
  Q 611.35 392.62 610.86 402.81
  C 610.66 406.81 611.29 412.27 612.80 415.35
  A 0.72 0.71 31.7 0 0 614.16 415.03
  Q 614.13 413.65 614.95 411.45
  C 618.97 400.58 626.68 391.91 636.76 385.84
  Q 641.33 383.10 646.08 379.81
  Q 650.74 376.58 651.81 375.56
  Q 654.83 372.68 657.63 370.83
  A 3.27 3.14 -85.4 0 0 658.34 370.20
  L 662.48 365.27
  C 667.00 365.11 681.30 363.25 674.49 373.45
  Q 672.39 376.60 668.89 379.35
  C 662.51 384.37 654.57 389.54 648.31 395.85
  Q 638.64 405.59 630.33 413.65
  C 620.65 423.05 610.71 427.03 602.20 413.41
  Q 598.96 408.22 596.31 402.70
  Z"
/>
<path fill="#fe9f30" d="
  M 741.73 395.96
  A 0.59 0.59 0.0 0 1 741.46 394.93
  Q 749.77 388.13 753.75 378.48
  A 11.32 11.26 73.7 0 1 754.83 376.49
  C 758.11 371.75 760.72 368.10 760.62 363.12
  A 0.49 0.49 0.0 0 1 761.43 362.75
  C 769.41 369.87 768.17 381.87 759.86 387.96
  C 754.91 391.59 748.69 393.70 742.80 395.78
  Q 742.11 396.03 741.73 395.96
  Z"
/>
<path fill="#fc9b50" d="
  M 717.33 372.58
  Q 719.53 377.88 716.29 383.03
  Q 711.68 390.34 707.18 397.71
  Q 704.74 401.71 704.72 406.33
  L 699.92 409.87
  Q 706.41 397.31 712.31 385.00
  C 714.27 380.90 715.77 376.80 717.33 372.58
  Z"
/>
<path fill="#fe9f30" d="
  M 524.41 415.45
  A 0.62 0.62 0.0 0 1 523.59 416.29
  C 518.55 413.78 514.32 411.68 510.53 407.04
  C 505.18 400.49 510.44 390.84 516.67 386.99
  A 0.95 0.94 72.4 0 1 518.11 387.74
  Q 518.92 400.66 518.97 401.23
  C 519.44 406.47 521.71 410.39 524.41 415.45
  Z"
/>
<path fill="#f5d7c8" d="
  M 606.69 393.99
  Q 605.20 397.02 603.61 400.03
  C 601.82 403.41 601.16 405.96 600.76 409.37
  A 0.42 0.42 0.0 0 1 599.97 409.52
  L 597.98 405.66
  Q 601.56 399.22 606.69 393.99
  Z"
/>
<path fill="#393d0b" d="
  M 711.71 421.50
  Q 712.10 422.26 711.80 422.81
  A 0.40 0.39 24.6 0 0 712.01 423.37
  Q 716.80 425.11 721.66 424.83
  Q 722.88 425.87 724.22 426.27
  L 734.75 433.81
  A 1.75 1.64 70.1 0 0 735.20 434.04
  L 744.21 436.98
  Q 742.34 437.61 737.27 438.06
  C 734.65 438.29 730.08 440.92 727.48 441.52
  Q 725.08 442.07 723.22 442.63
  A 15.33 14.74 -42.6 0 0 721.21 443.41
  Q 717.44 445.18 713.94 446.23
  A 0.40 0.39 -50.5 0 0 714.01 447.00
  L 716.92 447.25
  L 720.76 447.42
  A 2.24 2.20 57.6 0 1 721.53 447.60
  Q 724.89 449.07 729.43 449.87
  Q 739.00 451.56 746.35 458.07
  C 749.63 460.71 752.65 462.89 750.91 467.70
  Q 750.06 470.05 746.61 475.13
  Q 745.03 477.44 744.91 481.87
  Q 750.62 481.39 755.52 480.52
  Q 756.22 480.39 763.44 480.78
  Q 767.60 481.00 771.19 482.22
  C 780.08 485.23 786.83 488.00 792.98 493.88
  Q 793.54 494.42 798.35 499.75
  Q 802.00 503.80 803.21 506.05
  Q 807.05 513.15 808.99 516.12
  A 4.40 4.37 -68.6 0 1 809.60 517.53
  L 810.11 519.68
  A 0.38 0.37 -40.1 0 0 810.82 519.74
  L 813.28 513.96
  Q 815.99 506.76 815.95 499.01
  A 0.90 0.90 0.0 0 1 817.32 498.23
  L 823.80 502.10
  A 1.63 1.38 79.5 0 1 824.18 502.41
  L 832.15 511.23
  Q 832.37 515.55 834.46 519.84
  A 1.52 1.52 0.0 0 0 837.33 518.93
  Q 836.58 514.33 837.76 509.11
  L 839.55 516.81
  Q 838.40 518.12 838.18 520.67
  A 1.34 1.32 -18.7 0 1 837.73 521.57
  Q 835.90 523.17 834.40 521.33
  Q 828.97 514.65 827.07 512.92
  Q 824.42 509.34 820.47 506.92
  A 0.93 0.93 0.0 0 0 819.07 507.57
  L 817.36 518.62
  L 808.70 530.92
  A 1.08 1.06 -47.6 0 1 807.02 531.01
  Q 806.75 530.69 806.64 530.18
  Q 805.90 526.64 804.30 522.76
  Q 803.57 520.96 802.04 517.14
  Q 799.94 511.90 797.28 507.24
  C 794.50 502.40 789.79 498.57 785.66 494.83
  Q 782.11 491.61 778.94 490.23
  Q 773.43 487.83 771.23 487.51
  Q 761.91 486.15 759.50 485.74
  A 8.99 8.74 -42.6 0 0 757.02 485.67
  C 754.31 485.96 750.31 485.78 746.58 486.35
  Q 742.41 486.99 738.15 487.62
  Q 737.82 487.77 737.55 487.36
  A 0.79 0.79 0.0 0 1 737.98 486.16
  Q 738.69 485.95 738.91 484.98
  Q 739.70 481.54 740.54 478.39
  L 744.56 467.99
  A 1.61 1.56 -32.8 0 0 744.65 467.60
  Q 744.91 464.12 742.90 462.78
  C 738.72 460.00 735.81 457.94 731.59 456.34
  Q 718.55 451.41 703.94 450.86
  Q 706.89 445.90 711.25 443.96
  Q 718.00 440.95 724.94 438.53
  Q 727.18 438.29 729.22 437.60
  A 0.62 0.62 0.0 0 0 728.95 436.40
  Q 728.64 436.43 728.20 436.05
  Q 726.41 434.48 724.25 433.45
  Q 719.83 427.82 712.77 425.48
  Q 711.37 425.02 709.50 422.99
  Q 710.43 421.63 711.71 421.50
  Z"
/>
<path fill="#c00a1d" d="
  M 707.12 422.73
  Q 709.44 424.72 708.36 426.47
  Q 707.48 427.93 707.04 429.81
  C 700.68 430.00 694.75 430.24 688.43 431.81
  Q 682.20 433.36 675.99 434.93
  Q 671.87 435.97 664.50 439.73
  Q 660.31 438.15 657.67 434.65
  Q 680.98 422.44 707.12 422.73
  Z"
/>
<path fill="#ac0b17" d="
  M 709.50 422.99
  Q 711.37 425.02 712.77 425.48
  Q 719.83 427.82 724.25 433.45
  L 716.22 431.11
  L 707.04 429.81
  Q 707.48 427.93 708.36 426.47
  Q 709.44 424.72 707.12 422.73
  L 709.50 422.99
  Z"
/>
<path fill="#78a21f" d="
  M 744.21 436.98
  L 735.20 434.04
  A 1.75 1.64 70.1 0 1 734.75 433.81
  L 724.22 426.27
  Q 734.16 427.71 742.42 433.34
  Q 744.90 435.03 744.21 436.98
  Z"
/>
<path fill="#fd4810" d="
  M 707.04 429.81
  L 716.22 431.11
  Q 719.36 433.00 721.46 436.07
  A 1.12 1.11 74.7 0 0 722.33 436.57
  L 723.59 436.65
  A 0.67 0.67 0.0 0 1 724.21 437.27
  Q 724.26 438.08 724.94 438.53
  Q 718.00 440.95 711.25 443.96
  Q 706.89 445.90 703.94 450.86
  Q 703.91 453.49 707.59 454.55
  Q 710.65 455.44 713.77 456.26
  C 719.68 457.81 725.31 460.62 730.80 463.22
  C 721.90 476.09 712.09 488.20 702.54 500.57
  Q 700.93 502.66 696.69 506.53
  C 698.63 500.98 698.86 494.85 691.62 494.06
  Q 687.84 493.65 684.88 494.18
  A 2.33 2.17 20.5 0 0 684.01 494.54
  C 680.26 497.14 676.52 502.06 678.25 506.52
  A 1.86 1.86 0.0 0 0 678.83 507.32
  Q 684.48 511.86 691.68 510.98
  Q 676.79 528.15 662.11 545.61
  C 647.92 562.50 624.24 585.03 604.71 603.78
  C 593.74 614.31 582.97 626.20 573.35 636.18
  Q 556.60 653.58 536.07 668.17
  C 515.91 682.51 496.41 695.66 475.30 704.63
  Q 447.15 716.57 432.14 723.04
  A 3.38 3.35 -60.2 0 1 431.16 723.31
  Q 423.54 724.30 416.51 724.69
  Q 387.19 726.32 359.48 723.21
  Q 341.90 721.24 334.60 720.09
  Q 314.59 716.93 283.14 708.26
  Q 277.46 706.70 267.96 702.90
  C 256.45 698.29 245.06 694.43 234.93 689.09
  Q 219.08 680.72 201.49 668.40
  L 198.79 666.13
  L 189.08 656.27
  C 194.38 652.40 200.41 652.47 206.41 654.56
  C 214.34 657.33 222.27 660.89 230.63 662.67
  Q 233.46 663.28 250.57 667.21
  C 262.90 670.05 274.08 670.45 284.79 671.48
  Q 294.70 672.44 302.36 672.23
  C 313.69 671.92 323.08 672.47 333.22 671.26
  Q 349.38 669.33 354.36 668.31
  Q 363.37 666.46 376.56 663.83
  C 382.78 662.59 390.36 659.36 397.66 656.93
  Q 415.46 651.01 421.22 648.68
  Q 433.20 643.81 456.25 631.72
  C 463.63 627.85 470.94 622.50 479.33 617.78
  Q 486.21 613.92 494.55 607.92
  Q 507.16 598.85 509.14 597.10
  Q 523.23 584.67 529.10 579.59
  C 535.06 574.44 540.90 568.22 546.33 562.08
  C 551.07 556.73 558.18 550.98 562.49 545.73
  Q 572.00 534.14 579.68 525.21
  Q 582.37 522.09 592.50 507.51
  Q 595.21 503.62 604.83 492.34
  C 606.16 490.79 607.23 488.46 608.66 486.76
  Q 619.38 474.03 628.88 464.14
  Q 630.68 462.27 633.09 460.37
  Q 635.60 458.39 637.53 456.81
  Q 649.94 446.65 664.50 439.73
  Q 671.87 435.97 675.99 434.93
  Q 682.20 433.36 688.43 431.81
  C 694.75 430.24 700.68 430.00 707.04 429.81
  Z
  M 685.90 437.71
  C 677.29 439.24 668.70 443.28 661.81 446.83
  Q 650.43 452.70 641.06 461.57
  Q 631.14 470.96 624.61 478.61
  Q 618.00 486.36 608.49 498.46
  Q 605.15 502.71 594.60 517.09
  Q 585.38 529.67 580.67 535.69
  Q 574.29 543.85 559.65 559.77
  Q 555.63 564.14 553.84 565.75
  Q 549.59 569.58 547.80 571.49
  C 541.34 578.39 534.99 583.52 527.12 590.93
  C 524.39 593.51 521.41 595.69 518.51 598.08
  Q 515.53 600.53 511.84 603.21
  C 497.95 613.30 491.12 618.61 478.95 625.89
  A 4.79 4.47 6.4 0 0 478.21 626.44
  Q 476.55 628.01 475.12 628.41
  A 4.44 4.40 19.9 0 0 473.89 628.98
  C 470.81 630.99 469.19 632.18 466.42 633.59
  Q 459.19 637.27 454.60 639.94
  C 449.19 643.11 444.39 644.62 438.49 647.88
  C 435.00 649.81 430.66 651.08 427.40 652.47
  C 423.06 654.31 418.15 656.84 412.40 658.85
  Q 405.72 661.19 392.40 665.41
  Q 382.69 668.50 375.49 670.06
  Q 367.04 671.89 358.35 673.94
  C 353.78 675.01 349.88 674.99 345.31 675.85
  Q 342.20 676.42 335.51 677.14
  Q 317.93 679.02 295.83 678.64
  Q 290.90 678.56 287.04 678.24
  Q 280.15 677.66 278.27 677.80
  Q 277.65 677.85 277.43 677.94
  A 0.51 0.50 47.6 0 0 277.39 678.85
  Q 280.12 680.32 283.69 680.91
  Q 302.93 684.08 311.55 684.91
  C 329.21 686.61 346.05 685.89 364.47 684.26
  Q 381.30 682.76 398.96 679.45
  C 405.01 678.31 410.05 676.71 417.04 674.92
  Q 422.05 673.64 430.35 670.70
  Q 443.92 665.88 449.49 663.91
  Q 460.65 659.95 466.44 657.24
  Q 477.47 652.07 482.90 649.37
  Q 491.92 644.88 514.51 632.23
  Q 519.33 629.53 528.93 622.79
  C 532.50 620.27 535.81 618.74 538.81 616.28
  Q 540.52 614.88 546.03 611.13
  Q 560.30 601.39 571.99 590.58
  C 574.64 588.13 577.85 586.27 580.34 583.63
  C 582.56 581.27 584.87 579.85 587.20 577.39
  Q 588.77 575.75 592.27 572.62
  C 602.47 563.50 611.33 553.90 620.75 545.01
  Q 623.18 542.70 628.45 535.77
  Q 630.37 533.24 632.95 531.14
  C 635.33 529.20 637.17 526.62 639.55 524.56
  C 642.85 521.71 645.76 518.25 649.58 514.54
  Q 652.32 511.88 657.92 508.09
  Q 671.67 498.77 679.13 490.62
  Q 685.28 483.91 686.88 472.51
  L 689.66 467.34
  A 2.20 2.04 83.6 0 1 690.03 466.84
  Q 695.16 461.60 695.39 453.42
  C 695.54 448.24 700.59 443.64 704.14 440.34
  A 1.66 1.66 0.0 0 0 703.65 437.60
  C 699.01 435.64 693.34 436.43 685.90 437.71
  Z
  M 220.17 668.51
  Q 220.17 668.21 219.97 667.99
  C 215.60 663.10 205.81 655.84 198.41 657.12
  C 195.25 657.67 195.05 660.85 197.38 662.26
  C 200.52 664.17 203.18 665.92 206.61 666.98
  Q 207.99 667.40 213.01 667.86
  Q 215.81 668.11 219.30 669.16
  A 0.68 0.67 -81.4 0 0 220.17 668.51
  Z"
/>
<path fill="#e72520" d="
  M 724.25 433.45
  Q 726.41 434.48 728.20 436.05
  Q 728.64 436.43 728.95 436.40
  A 0.62 0.62 0.0 0 1 729.22 437.60
  Q 727.18 438.29 724.94 438.53
  Q 724.26 438.08 724.21 437.27
  A 0.67 0.67 0.0 0 0 723.59 436.65
  L 722.33 436.57
  A 1.12 1.11 74.7 0 1 721.46 436.07
  Q 719.36 433.00 716.22 431.11
  L 724.25 433.45
  Z"
/>
<path fill="#e53109" d="
  M 657.67 434.65
  Q 660.31 438.15 664.50 439.73
  Q 649.94 446.65 637.53 456.81
  Q 635.60 458.39 633.09 460.37
  Q 630.68 462.27 628.88 464.14
  Q 619.38 474.03 608.66 486.76
  C 607.23 488.46 606.16 490.79 604.83 492.34
  Q 595.21 503.62 592.50 507.51
  Q 582.37 522.09 579.68 525.21
  Q 572.00 534.14 562.49 545.73
  C 558.18 550.98 551.07 556.73 546.33 562.08
  C 540.90 568.22 535.06 574.44 529.10 579.59
  Q 523.23 584.67 509.14 597.10
  Q 507.16 598.85 494.55 607.92
  Q 486.21 613.92 479.33 617.78
  C 470.94 622.50 463.63 627.85 456.25 631.72
  Q 433.20 643.81 421.22 648.68
  Q 415.46 651.01 397.66 656.93
  C 390.36 659.36 382.78 662.59 376.56 663.83
  Q 363.37 666.46 354.36 668.31
  Q 349.38 669.33 333.22 671.26
  C 323.08 672.47 313.69 671.92 302.36 672.23
  Q 294.70 672.44 284.79 671.48
  C 274.08 670.45 262.90 670.05 250.57 667.21
  Q 233.46 663.28 230.63 662.67
  C 222.27 660.89 214.34 657.33 206.41 654.56
  C 200.41 652.47 194.38 652.40 189.08 656.27
  L 187.74 657.82
  L 183.12 650.91
  Q 186.94 647.24 190.30 646.27
  Q 196.61 644.44 201.83 645.23
  Q 206.79 645.98 211.51 647.84
  Q 211.72 647.92 211.50 647.94
  Q 210.35 648.01 211.59 648.11
  Q 211.87 648.13 218.28 650.65
  Q 221.13 651.77 225.04 652.97
  Q 252.89 661.51 281.59 664.48
  Q 286.49 664.98 290.29 664.95
  C 294.08 664.91 297.55 665.56 301.90 665.62
  Q 328.97 665.96 356.63 660.51
  C 367.47 658.37 381.16 654.28 388.82 652.31
  Q 396.14 650.42 410.39 644.80
  Q 442.35 632.22 466.95 616.87
  Q 471.46 614.06 472.52 613.46
  Q 475.24 611.95 478.08 610.05
  Q 487.64 603.69 501.76 593.02
  Q 513.94 583.82 520.79 577.39
  Q 524.71 573.71 529.85 569.30
  Q 532.31 567.19 538.54 560.79
  C 544.54 554.62 549.57 549.86 553.16 545.31
  Q 556.04 541.65 560.24 537.07
  Q 563.82 533.17 568.91 526.65
  C 578.45 514.46 584.36 507.30 592.54 496.31
  Q 602.64 482.75 614.07 469.55
  Q 620.91 461.66 628.64 454.65
  Q 641.84 442.68 657.67 434.65
  Z"
/>
<path fill="#fe7d22" d="
  M 686.88 472.51
  Q 687.46 468.80 686.57 464.91
  C 684.95 457.81 679.02 455.85 671.89 455.88
  Q 667.38 455.91 660.47 456.46
  A 0.17 0.17 0.0 0 1 660.36 456.15
  Q 664.19 453.19 668.34 451.10
  Q 680.50 444.99 686.37 442.36
  Q 688.22 441.53 689.14 439.92
  A 0.88 0.88 0.0 0 0 689.12 439.03
  Q 688.22 437.56 685.90 437.71
  C 693.34 436.43 699.01 435.64 703.65 437.60
  A 1.66 1.66 0.0 0 1 704.14 440.34
  C 700.59 443.64 695.54 448.24 695.39 453.42
  Q 695.16 461.60 690.03 466.84
  A 2.20 2.04 83.6 0 0 689.66 467.34
  L 686.88 472.51
  Z"
/>
<path fill="#fc9b50" d="
  M 685.90 437.71
  Q 688.22 437.56 689.12 439.03
  A 0.88 0.88 0.0 0 1 689.14 439.92
  Q 688.22 441.53 686.37 442.36
  Q 680.50 444.99 668.34 451.10
  Q 664.19 453.19 660.36 456.15
  A 0.17 0.17 0.0 0 0 660.47 456.46
  Q 667.38 455.91 671.89 455.88
  C 679.02 455.85 684.95 457.81 686.57 464.91
  Q 687.46 468.80 686.88 472.51
  Q 685.28 483.91 679.13 490.62
  Q 671.67 498.77 657.92 508.09
  Q 652.32 511.88 649.58 514.54
  C 645.76 518.25 642.85 521.71 639.55 524.56
  C 637.17 526.62 635.33 529.20 632.95 531.14
  Q 630.37 533.24 628.45 535.77
  Q 623.18 542.70 620.75 545.01
  C 611.33 553.90 602.47 563.50 592.27 572.62
  Q 588.77 575.75 587.20 577.39
  C 584.87 579.85 582.56 581.27 580.34 583.63
  C 577.85 586.27 574.64 588.13 571.99 590.58
  Q 560.30 601.39 546.03 611.13
  Q 540.52 614.88 538.81 616.28
  C 535.81 618.74 532.50 620.27 528.93 622.79
  Q 519.33 629.53 514.51 632.23
  Q 491.92 644.88 482.90 649.37
  Q 477.47 652.07 466.44 657.24
  Q 460.65 659.95 449.49 663.91
  Q 443.92 665.88 430.35 670.70
  Q 422.05 673.64 417.04 674.92
  C 410.05 676.71 405.01 678.31 398.96 679.45
  Q 381.30 682.76 364.47 684.26
  C 346.05 685.89 329.21 686.61 311.55 684.91
  Q 302.93 684.08 283.69 680.91
  Q 280.12 680.32 277.39 678.85
  A 0.51 0.50 47.6 0 1 277.43 677.94
  Q 277.65 677.85 278.27 677.80
  Q 280.15 677.66 287.04 678.24
  Q 290.90 678.56 295.83 678.64
  Q 317.93 679.02 335.51 677.14
  Q 342.20 676.42 345.31 675.85
  C 349.88 674.99 353.78 675.01 358.35 673.94
  Q 367.04 671.89 375.49 670.06
  Q 382.69 668.50 392.40 665.41
  Q 405.72 661.19 412.40 658.85
  C 418.15 656.84 423.06 654.31 427.40 652.47
  C 430.66 651.08 435.00 649.81 438.49 647.88
  C 444.39 644.62 449.19 643.11 454.60 639.94
  Q 459.19 637.27 466.42 633.59
  C 469.19 632.18 470.81 630.99 473.89 628.98
  A 4.44 4.40 19.9 0 1 475.12 628.41
  Q 476.55 628.01 478.21 626.44
  A 4.79 4.47 6.4 0 1 478.95 625.89
  C 491.12 618.61 497.95 613.30 511.84 603.21
  Q 515.53 600.53 518.51 598.08
  C 521.41 595.69 524.39 593.51 527.12 590.93
  C 534.99 583.52 541.34 578.39 547.80 571.49
  Q 549.59 569.58 553.84 565.75
  Q 555.63 564.14 559.65 559.77
  Q 574.29 543.85 580.67 535.69
  Q 585.38 529.67 594.60 517.09
  Q 605.15 502.71 608.49 498.46
  Q 618.00 486.36 624.61 478.61
  Q 631.14 470.96 641.06 461.57
  Q 650.43 452.70 661.81 446.83
  C 668.70 443.28 677.29 439.24 685.90 437.71
  Z
  M 627.73 505.79
  C 628.22 508.24 630.61 508.76 632.77 508.22
  Q 651.88 503.44 666.85 488.83
  Q 666.99 488.70 672.13 482.62
  Q 676.59 477.34 676.59 469.53
  C 676.59 462.92 668.09 462.05 663.37 463.43
  C 652.60 466.60 643.64 474.08 636.90 483.14
  C 632.39 489.21 626.25 498.35 627.73 505.79
  Z
  M 623.12 523.80
  C 615.75 516.42 604.98 530.13 602.11 535.87
  C 600.84 538.42 599.16 542.43 600.60 544.66
  A 2.83 2.42 -20.1 0 0 603.34 545.68
  C 606.52 545.11 608.17 543.84 611.30 541.66
  Q 618.57 536.60 622.85 529.44
  Q 623.67 528.08 623.56 524.81
  A 1.51 1.49 21.7 0 0 623.12 523.80
  Z"
/>
<path fill="#fe9f30" d="
  M 510.11 442.67
  A 0.55 0.55 0.0 0 1 510.90 441.95
  C 513.66 443.88 517.08 443.95 521.21 443.83
  C 522.84 443.79 526.23 445.40 528.16 446.76
  Q 532.43 449.75 537.98 450.94
  A 0.87 0.87 0.0 0 1 538.22 452.55
  C 528.66 457.82 518.65 457.84 512.88 447.61
  Q 511.55 445.25 510.11 442.67
  Z"
/>
<path fill="#527d18" d="
  M 731.93 444.91
  C 737.85 444.82 742.63 446.24 746.99 450.44
  Q 749.43 452.79 753.63 456.28
  Q 753.84 456.46 754.43 457.27
  A 0.92 0.92 0.0 0 1 753.43 458.69
  Q 749.88 457.65 746.35 458.07
  Q 739.00 451.56 729.43 449.87
  Q 724.89 449.07 721.53 447.60
  A 2.24 2.20 57.6 0 0 720.76 447.42
  L 716.92 447.25
  L 731.93 444.91
  Z"
/>
<path fill="#78a21f" d="
  M 817.71 450.54
  Q 814.49 457.42 814.40 460.38
  Q 814.20 467.30 815.15 473.93
  Q 815.36 475.41 816.92 477.35
  C 822.51 484.28 826.52 489.74 829.19 497.31
  Q 831.52 503.88 832.15 511.23
  L 824.18 502.41
  A 1.63 1.38 79.5 0 0 823.80 502.10
  L 817.32 498.23
  A 0.90 0.90 0.0 0 0 815.95 499.01
  Q 815.99 506.76 813.28 513.96
  Q 812.22 514.72 811.62 513.91
  A 0.81 0.80 24.7 0 1 811.47 513.51
  Q 810.82 504.92 808.43 496.18
  C 808.17 495.24 808.10 493.93 807.92 492.60
  A 1.06 1.05 -0.8 0 1 809.08 491.41
  Q 816.34 492.20 821.27 497.96
  A 0.58 0.58 0.0 0 0 822.25 497.36
  Q 818.87 489.06 814.02 481.25
  Q 812.55 478.89 809.30 477.37
  A 1.16 1.13 1.7 0 1 808.72 476.77
  L 807.77 474.50
  Q 809.81 473.90 811.82 474.16
  A 0.69 0.69 0.0 0 0 812.35 472.95
  Q 810.23 471.16 808.91 468.57
  Q 809.40 459.47 813.40 450.87
  Q 814.22 449.11 815.82 448.61
  Q 816.82 448.30 817.30 448.94
  Q 817.70 449.50 817.71 450.54
  Z"
/>
<path fill="#e72520" d="
  M 703.94 450.86
  Q 718.55 451.41 731.59 456.34
  C 735.81 457.94 738.72 460.00 742.90 462.78
  Q 744.91 464.12 744.65 467.60
  A 1.61 1.56 -32.8 0 1 744.56 467.99
  L 740.54 478.39
  C 741.42 470.65 736.90 466.47 730.80 463.22
  C 725.31 460.62 719.68 457.81 713.77 456.26
  Q 710.65 455.44 707.59 454.55
  Q 703.91 453.49 703.94 450.86
  Z"
/>
<path fill="#3f5e0e" d="
  M 790.26 458.75
  Q 798.50 465.61 808.91 468.57
  Q 810.23 471.16 812.35 472.95
  A 0.69 0.69 0.0 0 1 811.82 474.16
  Q 809.81 473.90 807.77 474.50
  C 807.98 480.18 808.71 485.83 807.64 491.40
  A 0.28 0.28 0.0 0 1 807.09 491.37
  C 806.56 484.52 804.57 476.99 800.62 471.37
  Q 799.26 469.43 795.10 466.46
  Q 790.04 462.84 786.07 459.11
  L 781.32 453.12
  A 0.51 0.50 -34.8 0 1 781.46 452.37
  L 781.79 452.18
  A 0.69 0.67 -39.3 0 1 782.57 452.25
  L 790.26 458.75
  Z"
/>
<path fill="#527d18" d="
  M 807.77 474.50
  L 808.72 476.77
  A 1.16 1.13 1.7 0 0 809.30 477.37
  Q 812.55 478.89 814.02 481.25
  Q 818.87 489.06 822.25 497.36
  A 0.58 0.58 0.0 0 1 821.27 497.96
  Q 816.34 492.20 809.08 491.41
  A 1.06 1.05 -0.8 0 0 807.92 492.60
  C 808.10 493.93 808.17 495.24 808.43 496.18
  Q 810.82 504.92 811.47 513.51
  A 0.81 0.80 24.7 0 0 811.62 513.91
  Q 812.22 514.72 813.28 513.96
  L 810.82 519.74
  A 0.38 0.37 -40.1 0 1 810.11 519.68
  L 809.60 517.53
  A 4.40 4.37 -68.6 0 0 808.99 516.12
  Q 807.05 513.15 803.21 506.05
  Q 802.00 503.80 798.35 499.75
  Q 793.54 494.42 792.98 493.88
  C 786.83 488.00 780.08 485.23 771.19 482.22
  Q 767.60 481.00 763.44 480.78
  Q 756.22 480.39 755.52 480.52
  Q 750.62 481.39 744.91 481.87
  Q 754.55 475.32 757.86 473.82
  Q 761.33 472.24 766.81 472.72
  Q 774.70 473.41 782.52 472.64
  A 1.21 1.21 0.0 0 0 783.35 472.19
  Q 789.36 464.49 786.07 459.11
  Q 790.04 462.84 795.10 466.46
  Q 799.26 469.43 800.62 471.37
  C 804.57 476.99 806.56 484.52 807.09 491.37
  A 0.28 0.28 0.0 0 0 807.64 491.40
  C 808.71 485.83 807.98 480.18 807.77 474.50
  Z"
/>
<path fill="#fb281d" d="
  M 740.54 478.39
  Q 739.70 481.54 738.91 484.98
  Q 738.69 485.95 737.98 486.16
  A 0.79 0.79 0.0 0 0 737.55 487.36
  Q 737.82 487.77 738.15 487.62
  Q 740.62 489.22 743.38 489.50
  Q 747.98 489.97 752.45 491.05
  L 754.05 492.13
  A 1.00 0.99 -74.1 0 1 754.48 492.91
  Q 755.04 513.11 746.34 531.33
  Q 740.32 543.93 732.79 555.87
  C 718.35 578.78 699.30 599.40 679.04 616.65
  Q 674.64 620.39 671.73 623.16
  Q 667.23 627.43 664.40 629.64
  Q 635.43 652.30 604.79 669.77
  Q 592.63 676.71 581.58 681.76
  Q 562.78 690.35 557.75 692.48
  Q 547.34 696.87 520.57 705.51
  C 496.95 713.13 471.48 717.97 445.47 721.89
  A 1.18 1.14 -75.3 0 0 444.71 722.35
  L 436.69 732.97
  Q 409.33 735.96 383.24 734.25
  Q 369.33 733.33 350.52 731.18
  Q 340.79 729.42 330.97 728.27
  Q 327.68 727.88 310.67 723.50
  Q 305.44 722.15 301.67 721.33
  C 292.37 719.31 283.92 716.31 274.08 713.07
  Q 268.87 711.36 264.67 709.54
  C 257.56 706.47 252.24 704.93 246.31 701.89
  Q 244.90 701.16 237.50 697.48
  Q 233.06 695.27 227.34 691.09
  Q 222.07 687.25 217.43 684.37
  Q 212.92 681.57 204.40 674.72
  Q 203.15 673.72 201.77 671.93
  A 1.41 1.41 0.0 0 1 201.51 670.79
  Q 201.76 669.59 201.49 668.40
  Q 219.08 680.72 234.93 689.09
  C 245.06 694.43 256.45 698.29 267.96 702.90
  Q 277.46 706.70 283.14 708.26
  Q 314.59 716.93 334.60 720.09
  Q 341.90 721.24 359.48 723.21
  Q 387.19 726.32 416.51 724.69
  Q 423.54 724.30 431.16 723.31
  A 3.38 3.35 -60.2 0 0 432.14 723.04
  Q 447.15 716.57 475.30 704.63
  C 496.41 695.66 515.91 682.51 536.07 668.17
  Q 556.60 653.58 573.35 636.18
  C 582.97 626.20 593.74 614.31 604.71 603.78
  C 624.24 585.03 647.92 562.50 662.11 545.61
  Q 676.79 528.15 691.68 510.98
  Q 694.66 509.21 696.69 506.53
  Q 700.93 502.66 702.54 500.57
  C 712.09 488.20 721.90 476.09 730.80 463.22
  C 736.90 466.47 741.42 470.65 740.54 478.39
  Z"
/>
<path fill="#c00a1d" d="
  M 817.36 518.62
  Q 817.11 528.25 814.74 536.53
  Q 810.39 551.72 804.23 565.81
  C 801.24 572.67 795.26 580.71 792.64 584.84
  Q 787.90 592.28 784.09 597.00
  Q 772.49 611.36 760.87 622.55
  C 758.26 625.06 756.48 627.41 753.79 629.71
  C 751.42 631.73 749.86 634.17 747.48 636.25
  Q 727.96 653.35 724.24 656.67
  C 718.97 661.38 712.52 665.21 707.07 669.30
  A 2.75 2.61 -73.1 0 1 706.47 669.64
  Q 705.20 670.15 702.96 671.70
  Q 689.56 680.99 688.93 681.38
  Q 678.39 688.05 676.89 689.07
  Q 673.18 691.57 664.59 696.28
  Q 652.43 702.95 642.52 707.98
  Q 629.95 714.36 606.21 724.13
  Q 584.17 733.20 551.46 741.83
  Q 549.19 742.43 530.97 746.98
  Q 529.71 747.29 515.36 749.73
  Q 515.34 749.73 503.37 751.76
  Q 497.57 752.74 489.26 753.55
  Q 457.61 756.61 446.20 757.26
  Q 420.67 757.58 401.28 756.44
  Q 380.50 755.22 366.76 752.71
  Q 347.19 749.12 338.54 747.18
  Q 336.36 746.69 334.65 746.17
  A 0.43 0.43 0.0 0 1 334.38 745.57
  C 338.00 738.21 343.24 734.55 350.52 731.18
  Q 369.33 733.33 383.24 734.25
  Q 409.33 735.96 436.69 732.97
  C 455.31 731.88 472.44 728.43 491.23 724.54
  Q 509.58 720.75 523.62 716.65
  Q 569.55 703.26 611.48 680.73
  C 616.59 677.99 620.46 676.57 624.35 673.64
  Q 626.47 672.03 633.77 667.60
  Q 652.48 656.23 668.27 643.49
  Q 684.80 630.14 696.94 618.68
  Q 709.73 606.61 723.47 590.93
  C 732.66 580.44 740.73 569.26 746.18 559.43
  C 749.97 552.59 753.07 547.89 755.25 542.35
  Q 760.85 528.10 763.07 514.76
  C 763.99 509.26 764.00 503.69 763.39 498.74
  C 762.61 492.37 757.82 491.19 752.45 491.05
  Q 747.98 489.97 743.38 489.50
  Q 740.62 489.22 738.15 487.62
  Q 742.41 486.99 746.58 486.35
  C 750.31 485.78 754.31 485.96 757.02 485.67
  A 8.99 8.74 -42.6 0 1 759.50 485.74
  Q 761.91 486.15 771.23 487.51
  Q 773.43 487.83 778.94 490.23
  Q 782.11 491.61 785.66 494.83
  C 789.79 498.57 794.50 502.40 797.28 507.24
  Q 799.94 511.90 802.04 517.14
  Q 803.57 520.96 804.30 522.76
  Q 805.90 526.64 806.64 530.18
  Q 806.75 530.69 807.02 531.01
  A 1.08 1.06 -47.6 0 0 808.70 530.92
  L 817.36 518.62
  Z
  M 783.27 574.26
  L 788.76 576.42
  A 2.78 2.78 0.0 0 0 792.36 574.86
  L 793.80 571.20
  A 8.17 4.90 -68.5 0 0 792.24 561.80
  L 790.69 561.19
  A 8.17 4.90 -68.5 0 0 783.14 567.00
  L 781.70 570.66
  A 2.78 2.78 0.0 0 0 783.27 574.26
  Z"
/>
<path fill="#e72520" d="
  M 436.69 732.97
  L 444.71 722.35
  A 1.18 1.14 -75.3 0 1 445.47 721.89
  C 471.48 717.97 496.95 713.13 520.57 705.51
  Q 547.34 696.87 557.75 692.48
  Q 562.78 690.35 581.58 681.76
  Q 592.63 676.71 604.79 669.77
  Q 635.43 652.30 664.40 629.64
  Q 667.23 627.43 671.73 623.16
  Q 674.64 620.39 679.04 616.65
  C 699.30 599.40 718.35 578.78 732.79 555.87
  Q 740.32 543.93 746.34 531.33
  Q 755.04 513.11 754.48 492.91
  A 1.00 0.99 -74.1 0 0 754.05 492.13
  L 752.45 491.05
  C 757.82 491.19 762.61 492.37 763.39 498.74
  C 764.00 503.69 763.99 509.26 763.07 514.76
  Q 760.85 528.10 755.25 542.35
  C 753.07 547.89 749.97 552.59 746.18 559.43
  C 740.73 569.26 732.66 580.44 723.47 590.93
  Q 709.73 606.61 696.94 618.68
  Q 684.80 630.14 668.27 643.49
  Q 652.48 656.23 633.77 667.60
  Q 626.47 672.03 624.35 673.64
  C 620.46 676.57 616.59 677.99 611.48 680.73
  Q 569.55 703.26 523.62 716.65
  Q 509.58 720.75 491.23 724.54
  C 472.44 728.43 455.31 731.88 436.69 732.97
  Z"
/>
<path fill="#fe7d22" d="
  M 696.69 506.53
  Q 694.66 509.21 691.68 510.98
  Q 684.48 511.86 678.83 507.32
  A 1.86 1.86 0.0 0 1 678.25 506.52
  C 676.52 502.06 680.26 497.14 684.01 494.54
  A 2.33 2.17 20.5 0 1 684.88 494.18
  Q 687.84 493.65 691.62 494.06
  C 698.86 494.85 698.63 500.98 696.69 506.53
  Z"
/>
<path fill="#db223a" d="
  M 827.07 512.92
  L 827.51 514.77
  L 826.08 513.82
  A 0.39 0.38 -68.4 0 0 825.49 514.08
  C 824.70 518.55 824.86 522.94 824.20 527.28
  Q 821.23 546.77 819.58 554.62
  Q 817.31 565.44 813.31 573.35
  Q 806.19 587.44 796.89 602.05
  Q 790.03 612.83 780.71 623.31
  Q 768.08 637.53 754.26 651.32
  C 750.59 654.98 745.59 659.04 742.03 662.79
  Q 740.08 664.84 734.56 668.33
  Q 730.74 670.73 724.86 676.45
  A 9.90 9.76 5.6 0 1 723.50 677.55
  Q 717.88 681.42 713.97 684.62
  C 707.70 689.76 700.50 693.11 693.98 697.54
  C 689.16 700.82 683.40 703.94 679.13 706.96
  C 675.61 709.45 672.23 710.59 669.44 712.71
  Q 667.42 714.24 661.89 716.45
  Q 658.76 717.70 651.54 721.78
  Q 648.16 723.69 632.95 730.89
  C 626.87 733.77 620.75 734.87 615.14 737.78
  Q 610.24 740.32 603.94 742.51
  Q 582.94 749.79 562.72 754.46
  C 551.42 757.07 547.73 758.34 536.80 760.99
  Q 525.06 763.84 520.67 764.42
  Q 489.95 768.47 457.19 770.83
  Q 456.29 770.89 445.05 771.26
  C 438.82 771.46 433.61 770.83 426.88 770.88
  A 6.62 6.06 47.6 0 1 425.76 770.78
  C 415.24 768.80 404.57 768.93 396.03 768.03
  Q 408.89 767.99 416.26 767.08
  C 427.13 765.75 436.05 762.31 446.20 757.26
  Q 457.61 756.61 489.26 753.55
  Q 497.57 752.74 503.37 751.76
  Q 515.34 749.73 515.36 749.73
  Q 529.71 747.29 530.97 746.98
  Q 549.19 742.43 551.46 741.83
  Q 584.17 733.20 606.21 724.13
  Q 629.95 714.36 642.52 707.98
  Q 652.43 702.95 664.59 696.28
  Q 673.18 691.57 676.89 689.07
  Q 678.39 688.05 688.93 681.38
  Q 689.56 680.99 702.96 671.70
  Q 705.20 670.15 706.47 669.64
  A 2.75 2.61 -73.1 0 0 707.07 669.30
  C 712.52 665.21 718.97 661.38 724.24 656.67
  Q 727.96 653.35 747.48 636.25
  C 749.86 634.17 751.42 631.73 753.79 629.71
  C 756.48 627.41 758.26 625.06 760.87 622.55
  Q 772.49 611.36 784.09 597.00
  Q 787.90 592.28 792.64 584.84
  C 795.26 580.71 801.24 572.67 804.23 565.81
  Q 810.39 551.72 814.74 536.53
  Q 817.11 528.25 817.36 518.62
  L 819.07 507.57
  A 0.93 0.93 0.0 0 1 820.47 506.92
  Q 824.42 509.34 827.07 512.92
  Z"
/>
<path fill="#ac0b17" d="
  M 839.55 516.81
  Q 842.54 535.33 840.16 551.97
  Q 837.18 572.87 828.20 592.23
  Q 819.89 610.16 808.63 625.65
  Q 796.04 642.95 782.16 657.16
  C 775.79 663.67 766.53 672.72 758.28 679.58
  Q 739.98 694.81 719.87 708.24
  C 711.47 713.85 702.63 718.82 695.07 723.76
  C 692.06 725.73 687.73 727.49 684.01 729.75
  Q 664.69 739.63 643.51 748.26
  Q 628.43 754.70 616.46 758.70
  Q 588.27 768.12 556.61 774.82
  Q 538.48 778.66 509.23 781.79
  C 513.28 777.33 508.67 775.55 504.84 774.86
  Q 514.44 773.32 523.98 772.18
  Q 536.61 770.68 543.08 769.35
  Q 558.21 766.23 563.67 765.26
  Q 573.58 763.49 582.80 760.69
  Q 598.64 755.87 601.69 755.15
  C 609.71 753.24 617.94 749.77 626.92 746.83
  C 633.29 744.75 639.53 741.50 646.19 739.01
  C 650.74 737.31 653.75 735.39 657.76 733.99
  Q 660.74 732.95 666.31 729.92
  Q 673.43 726.03 693.56 715.88
  C 698.80 713.24 703.59 709.39 708.12 706.61
  Q 725.51 695.91 734.85 688.33
  C 738.88 685.06 743.07 682.27 746.15 679.64
  Q 750.52 675.90 759.96 667.88
  C 763.36 664.99 766.21 661.53 769.97 658.23
  Q 774.60 654.18 779.91 648.17
  C 787.05 640.08 790.25 636.74 795.63 629.60
  Q 800.29 623.41 806.81 614.32
  C 811.56 607.70 815.32 599.71 819.54 591.91
  C 822.55 586.36 824.01 581.16 826.71 573.49
  Q 830.85 561.71 832.54 547.80
  Q 833.78 537.60 832.04 526.69
  Q 831.55 523.66 830.21 520.58
  Q 828.93 517.62 827.51 514.77
  L 827.07 512.92
  Q 828.97 514.65 834.40 521.33
  Q 835.90 523.17 837.73 521.57
  A 1.34 1.32 -18.7 0 0 838.18 520.67
  Q 838.40 518.12 839.55 516.81
  Z"
/>
<path fill="#e13d6e" d="
  M 827.51 514.77
  Q 828.93 517.62 830.21 520.58
  Q 831.55 523.66 832.04 526.69
  Q 833.78 537.60 832.54 547.80
  Q 830.85 561.71 826.71 573.49
  C 824.01 581.16 822.55 586.36 819.54 591.91
  C 815.32 599.71 811.56 607.70 806.81 614.32
  Q 800.29 623.41 795.63 629.60
  C 790.25 636.74 787.05 640.08 779.91 648.17
  Q 774.60 654.18 769.97 658.23
  C 766.21 661.53 763.36 664.99 759.96 667.88
  Q 750.52 675.90 746.15 679.64
  C 743.07 682.27 738.88 685.06 734.85 688.33
  Q 725.51 695.91 708.12 706.61
  C 703.59 709.39 698.80 713.24 693.56 715.88
  Q 673.43 726.03 666.31 729.92
  Q 660.74 732.95 657.76 733.99
  C 653.75 735.39 650.74 737.31 646.19 739.01
  C 639.53 741.50 633.29 744.75 626.92 746.83
  C 617.94 749.77 609.71 753.24 601.69 755.15
  Q 598.64 755.87 582.80 760.69
  Q 573.58 763.49 563.67 765.26
  Q 558.21 766.23 543.08 769.35
  Q 536.61 770.68 523.98 772.18
  Q 514.44 773.32 504.84 774.86
  Q 498.88 775.39 492.78 775.86
  Q 487.13 776.31 480.71 776.41
  Q 476.59 776.48 455.50 776.82
  Q 443.60 777.01 419.94 775.92
  Q 398.85 774.94 391.63 773.54
  Q 382.29 771.73 377.90 771.32
  C 368.10 770.40 359.70 768.12 349.42 766.25
  C 342.79 765.05 335.27 762.82 328.20 761.06
  L 321.84 758.44
  A 1.01 0.96 -58.9 0 1 321.50 756.90
  Q 321.84 756.47 322.83 756.04
  A 1.34 1.28 40.4 0 1 323.68 755.99
  Q 326.09 756.66 339.73 759.78
  C 344.77 760.92 351.02 761.43 356.36 762.66
  Q 357.61 762.95 368.78 765.09
  C 377.59 766.79 386.92 767.36 396.03 768.03
  C 404.57 768.93 415.24 768.80 425.76 770.78
  A 6.62 6.06 47.6 0 0 426.88 770.88
  C 433.61 770.83 438.82 771.46 445.05 771.26
  Q 456.29 770.89 457.19 770.83
  Q 489.95 768.47 520.67 764.42
  Q 525.06 763.84 536.80 760.99
  C 547.73 758.34 551.42 757.07 562.72 754.46
  Q 582.94 749.79 603.94 742.51
  Q 610.24 740.32 615.14 737.78
  C 620.75 734.87 626.87 733.77 632.95 730.89
  Q 648.16 723.69 651.54 721.78
  Q 658.76 717.70 661.89 716.45
  Q 667.42 714.24 669.44 712.71
  C 672.23 710.59 675.61 709.45 679.13 706.96
  C 683.40 703.94 689.16 700.82 693.98 697.54
  C 700.50 693.11 707.70 689.76 713.97 684.62
  Q 717.88 681.42 723.50 677.55
  A 9.90 9.76 5.6 0 0 724.86 676.45
  Q 730.74 670.73 734.56 668.33
  Q 740.08 664.84 742.03 662.79
  C 745.59 659.04 750.59 654.98 754.26 651.32
  Q 768.08 637.53 780.71 623.31
  Q 790.03 612.83 796.89 602.05
  Q 806.19 587.44 813.31 573.35
  Q 817.31 565.44 819.58 554.62
  Q 821.23 546.77 824.20 527.28
  C 824.86 522.94 824.70 518.55 825.49 514.08
  A 0.39 0.38 -68.4 0 1 826.08 513.82
  L 827.51 514.77
  Z"
/>
<path fill="#e13d6e" d="
  M 783.27 574.26
  A 2.78 2.78 0.0 0 1 781.70 570.66
  L 783.14 567.00
  A 8.17 4.90 -68.5 0 1 790.69 561.19
  L 792.24 561.80
  A 8.17 4.90 -68.5 0 1 793.80 571.20
  L 792.36 574.86
  A 2.78 2.78 0.0 0 1 788.76 576.42
  L 783.27 574.26
  Z"
/>
<path fill="#c00a1d" d="
  M 187.74 657.82
  Q 183.65 664.79 187.57 672.80
  Q 192.00 682.89 199.95 691.04
  Q 192.16 684.34 189.67 680.29
  Q 185.40 673.31 180.60 666.65
  A 0.14 0.14 0.0 0 0 180.35 666.74
  Q 180.57 670.04 179.47 673.36
  Q 174.92 660.71 183.12 650.91
  L 187.74 657.82
  Z"
/>
<path fill="#fb281d" d="
  M 189.08 656.27
  L 198.79 666.13
  Q 197.57 671.11 198.52 676.02
  A 0.38 0.37 86.4 0 1 198.13 676.47
  Q 192.37 676.07 187.57 672.80
  Q 183.65 664.79 187.74 657.82
  L 189.08 656.27
  Z"
/>
<path fill="#fc9b50" d="
  M 220.17 668.51
  A 0.68 0.67 -81.4 0 1 219.30 669.16
  Q 215.81 668.11 213.01 667.86
  Q 207.99 667.40 206.61 666.98
  C 203.18 665.92 200.52 664.17 197.38 662.26
  C 195.05 660.85 195.25 657.67 198.41 657.12
  C 205.81 655.84 215.60 663.10 219.97 667.99
  Q 220.17 668.21 220.17 668.51
  Z"
/>
<path fill="#ac0b17" d="
  M 199.95 691.04
  Q 210.32 702.93 214.43 706.33
  Q 219.71 710.71 240.81 724.50
  Q 248.57 729.57 255.09 732.48
  C 260.68 734.98 265.94 739.15 271.67 741.11
  C 276.31 742.70 280.20 745.10 285.14 746.92
  C 293.22 749.89 299.04 752.61 305.98 755.07
  Q 309.37 756.27 314.21 757.52
  Q 321.20 759.32 328.20 761.06
  C 335.27 762.82 342.79 765.05 349.42 766.25
  C 359.70 768.12 368.10 770.40 377.90 771.32
  Q 382.29 771.73 391.63 773.54
  Q 398.85 774.94 419.94 775.92
  Q 443.60 777.01 455.50 776.82
  Q 476.59 776.48 480.71 776.41
  Q 487.13 776.31 492.78 775.86
  Q 498.88 775.39 504.84 774.86
  C 508.67 775.55 513.28 777.33 509.23 781.79
  Q 474.67 785.63 439.75 784.33
  Q 419.50 783.58 413.89 783.27
  C 406.66 782.86 400.38 781.80 393.42 781.28
  Q 387.33 780.82 378.13 779.28
  Q 365.76 777.22 353.61 775.28
  Q 312.96 766.87 275.74 750.99
  Q 251.79 740.49 230.29 726.42
  Q 219.38 719.29 204.55 706.45
  Q 192.70 696.19 184.22 683.02
  Q 181.26 678.43 179.47 673.36
  Q 180.57 670.04 180.35 666.74
  A 0.14 0.14 0.0 0 1 180.60 666.65
  Q 185.40 673.31 189.67 680.29
  Q 192.16 684.34 199.95 691.04
  Z"
/>
<path fill="#e72520" d="
  M 198.79 666.13
  L 201.49 668.40
  Q 201.76 669.59 201.51 670.79
  A 1.41 1.41 0.0 0 0 201.77 671.93
  Q 203.15 673.72 204.40 674.72
  Q 212.92 681.57 217.43 684.37
  Q 222.07 687.25 227.34 691.09
  Q 233.06 695.27 237.50 697.48
  Q 244.90 701.16 246.31 701.89
  C 252.24 704.93 257.56 706.47 264.67 709.54
  Q 268.87 711.36 274.08 713.07
  C 283.92 716.31 292.37 719.31 301.67 721.33
  Q 305.44 722.15 310.67 723.50
  Q 327.68 727.88 330.97 728.27
  Q 340.79 729.42 350.52 731.18
  C 343.24 734.55 338.00 738.21 334.38 745.57
  A 0.43 0.43 0.0 0 0 334.65 746.17
  Q 336.36 746.69 338.54 747.18
  Q 347.19 749.12 366.76 752.71
  Q 380.50 755.22 401.28 756.44
  Q 420.67 757.58 446.20 757.26
  C 436.05 762.31 427.13 765.75 416.26 767.08
  Q 408.89 767.99 396.03 768.03
  C 386.92 767.36 377.59 766.79 368.78 765.09
  Q 357.61 762.95 356.36 762.66
  C 351.02 761.43 344.77 760.92 339.73 759.78
  Q 326.09 756.66 323.68 755.99
  A 1.34 1.28 40.4 0 0 322.83 756.04
  Q 321.84 756.47 321.50 756.90
  A 1.01 0.96 -58.9 0 0 321.84 758.44
  L 328.20 761.06
  Q 321.20 759.32 314.21 757.52
  Q 309.37 756.27 305.98 755.07
  C 299.04 752.61 293.22 749.89 285.14 746.92
  C 280.20 745.10 276.31 742.70 271.67 741.11
  C 265.94 739.15 260.68 734.98 255.09 732.48
  Q 248.57 729.57 240.81 724.50
  Q 219.71 710.71 214.43 706.33
  Q 210.32 702.93 199.95 691.04
  Q 192.00 682.89 187.57 672.80
  Q 192.37 676.07 198.13 676.47
  A 0.38 0.37 86.4 0 0 198.52 676.02
  Q 197.57 671.11 198.79 666.13
  Z"
/>
<path fill="#f5d7c8" d="
  M 684.01 729.75
  Q 691.13 730.95 697.50 731.49
  Q 736.03 734.76 775.41 741.00
  C 788.04 743.00 801.53 745.63 811.43 748.85
  Q 817.12 750.70 827.93 755.58
  C 832.90 757.82 839.32 762.05 837.40 768.21
  Q 836.48 771.14 831.18 774.45
  C 824.31 778.73 818.97 780.28 810.15 783.00
  Q 804.82 784.64 800.25 785.72
  Q 775.86 791.46 751.37 794.59
  Q 715.85 799.12 680.49 801.73
  C 674.00 802.20 670.13 802.03 664.87 802.77
  C 660.82 803.34 655.79 803.02 651.00 803.33
  C 641.12 803.98 625.28 804.47 600.18 805.28
  C 548.52 806.93 496.33 806.37 446.85 804.19
  Q 439.25 803.86 435.68 803.48
  C 430.86 802.97 426.49 803.13 420.78 802.74
  Q 391.02 800.73 359.50 797.71
  C 331.54 795.03 303.16 790.21 276.74 783.30
  Q 264.76 780.16 254.72 774.32
  Q 252.17 772.83 250.04 770.01
  C 246.60 765.46 250.59 760.05 254.65 757.68
  Q 261.66 753.60 269.47 751.62
  A 5.14 5.09 -48.8 0 1 271.29 751.49
  Q 274.05 751.78 275.74 750.99
  Q 312.96 766.87 353.61 775.28
  Q 348.68 775.99 343.69 774.59
  Q 337.30 772.81 337.19 772.78
  Q 330.24 771.22 323.49 769.09
  C 322.08 768.65 319.98 768.43 318.79 768.63
  A 1.49 1.49 0.0 0 0 317.76 770.85
  Q 319.17 773.26 322.30 774.47
  C 331.56 778.09 339.36 779.52 350.76 781.86
  C 360.75 783.91 369.51 783.92 380.14 785.49
  Q 385.83 786.32 396.45 787.13
  Q 398.73 787.30 429.39 789.89
  Q 434.37 790.32 466.34 791.77
  Q 468.36 791.86 471.16 791.78
  C 485.54 791.37 497.62 792.18 501.75 792.14
  Q 522.90 791.96 543.50 791.88
  C 556.96 791.84 576.47 790.00 592.36 789.00
  C 606.33 788.11 614.28 787.03 627.09 785.77
  Q 642.35 784.28 659.30 780.50
  C 663.35 779.60 697.60 772.76 687.94 763.32
  Q 684.69 760.14 680.60 758.65
  Q 670.25 754.90 660.50 752.27
  Q 656.02 751.07 642.69 749.90
  A 0.49 0.49 0.0 0 1 642.31 749.17
  Q 642.59 748.69 643.51 748.26
  Q 664.69 739.63 684.01 729.75
  Z"
/>
<path fill="#e6bfae" d="
  M 643.51 748.26
  Q 642.59 748.69 642.31 749.17
  A 0.49 0.49 0.0 0 0 642.69 749.90
  Q 656.02 751.07 660.50 752.27
  Q 670.25 754.90 680.60 758.65
  Q 684.69 760.14 687.94 763.32
  C 697.60 772.76 663.35 779.60 659.30 780.50
  Q 642.35 784.28 627.09 785.77
  C 614.28 787.03 606.33 788.11 592.36 789.00
  C 576.47 790.00 556.96 791.84 543.50 791.88
  Q 522.90 791.96 501.75 792.14
  C 497.62 792.18 485.54 791.37 471.16 791.78
  Q 468.36 791.86 466.34 791.77
  Q 434.37 790.32 429.39 789.89
  Q 398.73 787.30 396.45 787.13
  Q 385.83 786.32 380.14 785.49
  C 369.51 783.92 360.75 783.91 350.76 781.86
  C 339.36 779.52 331.56 778.09 322.30 774.47
  Q 319.17 773.26 317.76 770.85
  A 1.49 1.49 0.0 0 1 318.79 768.63
  C 319.98 768.43 322.08 768.65 323.49 769.09
  Q 330.24 771.22 337.19 772.78
  Q 337.30 772.81 343.69 774.59
  Q 348.68 775.99 353.61 775.28
  Q 365.76 777.22 378.13 779.28
  Q 387.33 780.82 393.42 781.28
  C 400.38 781.80 406.66 782.86 413.89 783.27
  Q 419.50 783.58 439.75 784.33
  Q 474.67 785.63 509.23 781.79
  Q 538.48 778.66 556.61 774.82
  Q 588.27 768.12 616.46 758.70
  Q 628.43 754.70 643.51 748.26
  Z"
/>
</svg>
